<svg width="23" height="26" viewBox="0 0 23 26" fill="none" xmlns="http://www.w3.org/2000/svg">
<path d="M20.4014 3.69628L19.6551 0L10.5027 0.252133L2.97397 0L2.8126 3.69628C1.02245 7.81614 0.0139205 15.8844 1.1939 24.7393C4.30019 25.5815 7.40143 26 10.5077 26C13.614 26 16.7152 25.5815 19.8215 24.7393L21.7176 24.0434L22.3126 19.2579C22.3933 6.93871 20.4065 3.69628 20.4065 3.69628H20.4014ZM3.66986 9.28355C3.33704 11.0434 2.66132 13.8018 2.66132 13.8018C2.66132 13.8018 2.60081 9.76765 3.03448 7.82622C3.26644 6.77735 4.68343 4.57874 4.68343 4.57874H6.11555C6.11555 4.57874 4.00771 7.51862 3.6749 9.27851L3.66986 9.28355ZM12.9635 14.4876C12.5298 14.6237 12.1214 14.6237 11.839 14.4019C11.8239 14.3918 11.8138 14.3766 11.7986 14.3666L10.7145 15.5415L10.8153 18.5217H10.1749L10.2707 15.5264L9.20166 14.3716C9.20166 14.3716 9.17645 14.3968 9.16132 14.4069C8.88397 14.6288 8.47048 14.6237 8.03681 14.4926C6.90725 14.1346 6.19623 13.0151 6.24666 11.8301L6.27187 11.2452L6.85682 11.2199C8.04185 11.1695 9.16132 11.8805 9.51935 13.0101C9.6555 13.4438 9.6555 13.8522 9.43363 14.1346C9.42354 14.1497 9.40841 14.1598 9.39833 14.1749L10.2808 14.9868L10.3615 12.5058C10.3363 12.5058 10.306 12.5058 10.2808 12.5058C9.92781 12.4655 9.63533 12.173 9.42858 11.7696C8.87893 10.7207 9.17141 9.42475 10.0438 8.62296L10.4775 8.22964L10.9111 8.62296C11.7835 9.42475 12.076 10.7207 11.5263 11.7696C11.3196 12.173 11.0271 12.4655 10.6741 12.5058C10.6489 12.5058 10.6287 12.5058 10.6035 12.5058L10.6892 15.007L11.5919 14.1749C11.5919 14.1749 11.5667 14.1497 11.5566 14.1346C11.3347 13.8573 11.3398 13.4438 11.4709 13.0101C11.8289 11.8805 12.9484 11.1695 14.1334 11.2199L14.7183 11.2452L14.7436 11.8301C14.794 13.0151 14.083 14.1346 12.9534 14.4926L12.9635 14.4876Z" fill="white"/>
</svg>
