<svg width="629" height="800" viewBox="0 0 629 800" fill="" xmlns="http://www.w3.org/2000/svg">
<path fill-rule="evenodd" clip-rule="evenodd" d="M114.286 342.857H342.857C405.886 342.857 457.143 291.6 457.143 228.571C457.143 165.543 405.886 114.286 342.857 114.286H114.286V342.857ZM114.286 685.714H400C463.029 685.714 514.286 634.457 514.286 571.429C514.286 508.4 463.029 457.143 400 457.143H114.286V685.714ZM400 800H0V0H342.857C468.914 0 571.429 102.514 571.429 228.571C571.429 284.514 551.2 335.829 517.771 375.543C584.114 415.6 628.571 488.457 628.571 571.429C628.571 697.486 526.057 800 400 800Z" fill=""/>
</svg>
