<svg width="16" height="16" viewBox="0 0 16 16" fill="none" xmlns="http://www.w3.org/2000/svg">
<g clip-path="url(#clip0_299_3554)">
<path d="M11.4733 6L8.55332 1.62666C8.42665 1.44 8.21332 1.34666 7.99998 1.34666C7.78665 1.34666 7.57332 1.44 7.44665 1.63333L4.52665 6H1.33332C0.966649 6 0.666649 6.3 0.666649 6.66666C0.666649 6.72666 0.673316 6.78666 0.693316 6.84666L2.38665 13.0267C2.53998 13.5867 3.05332 14 3.66665 14H12.3333C12.9466 14 13.46 13.5867 13.62 13.0267L15.3133 6.84666L15.3333 6.66666C15.3333 6.3 15.0333 6 14.6666 6H11.4733ZM5.99998 6L7.99998 3.06666L9.99998 6H5.99998ZM7.99998 11.3333C7.26665 11.3333 6.66665 10.7333 6.66665 10C6.66665 9.26666 7.26665 8.66666 7.99998 8.66666C8.73332 8.66666 9.33332 9.26666 9.33332 10C9.33332 10.7333 8.73332 11.3333 7.99998 11.3333Z" fill="white"/>
</g>
<defs>
<clipPath id="clip0_299_3554">
<rect width="16" height="16" fill="white"/>
</clipPath>
</defs>
</svg>
