<svg width="14" height="16" viewBox="0 0 14 16" fill="none" xmlns="http://www.w3.org/2000/svg">
<path d="M2.91936 7.4496H3.19141V4.22812C3.19206 4.22012 3.19392 4.21239 3.19392 4.20412V3.72844C3.19392 2.88042 3.45355 2.19304 3.96565 1.68527C5.02488 0.634553 6.83418 0.64886 6.86473 0.653167C6.88624 0.651833 8.68042 0.625567 9.74439 1.67547C10.26 2.18423 10.5215 2.87479 10.5215 3.72844V4.23141C10.5215 4.23675 10.5228 4.24075 10.5228 4.24568V7.4495H10.7949C11.4644 7.4495 12.0071 6.90239 12.0071 6.22754V5.05308C12.0071 4.51014 11.6554 4.05052 11.1693 3.89145V3.72856C11.1693 2.69276 10.8421 1.84507 10.1976 1.2089C8.94103 -0.0310052 6.93384 0.00110139 6.86364 0.00014139C6.77929 -0.000671915 4.77018 -0.025592 3.5142 1.21663C2.8719 1.85216 2.54604 2.69728 2.54604 3.72843V3.89068C2.05925 4.04971 1.70728 4.50968 1.70728 5.05292V6.22738C1.70731 6.90242 2.25014 7.4496 2.91936 7.4496ZM13.7139 14.7144C13.5646 11.8548 11.0154 10.6719 11.0154 10.6719C10.4063 10.3847 9.30208 9.82271 8.57809 9.45117C9.50567 8.42806 9.77964 6.75995 9.82229 6.52259C10.0159 5.44861 9.91845 4.11931 9.91845 4.11931C9.74144 1.53434 7.15276 1.49374 6.88167 1.49644C6.86671 1.49644 6.85698 1.4966 6.85698 1.4966C6.85698 1.4966 6.84865 1.49644 6.83644 1.4966C6.59066 1.49394 3.97348 1.51954 3.79551 4.11931C3.79551 4.11931 3.69808 5.44845 3.89167 6.52259C3.90424 6.59179 3.93705 6.7845 3.99928 7.04514C4.48688 7.69047 5.23965 8.00694 5.85747 8.16182C5.93516 8.08568 6.04101 8.03835 6.15833 8.03835H7.28441C7.52273 8.03835 7.71566 8.23302 7.71566 8.47328C7.71566 8.71369 7.52273 8.90852 7.28441 8.90852H6.15833C5.98052 8.90852 5.82851 8.80039 5.76212 8.64611C5.30129 8.53318 4.768 8.33636 4.29203 7.99791C4.48193 8.49492 4.75255 9.02807 5.13618 9.45129C4.41219 9.82283 3.30841 10.3847 2.69889 10.6718C2.69889 10.6718 0.150012 11.8548 0.000359484 14.7143C0.000359484 14.7143 -0.0439051 15.1899 0.849933 15.3699C0.849933 15.3699 3.58824 16 6.85729 16C10.1267 16 12.865 15.3699 12.865 15.3699C13.7586 15.1899 13.7139 14.7144 13.7139 14.7144Z" fill="white"/>
</svg>
