<svg width="14" height="26" viewBox="0 0 14 26" fill="none" xmlns="http://www.w3.org/2000/svg">
<path d="M12.922 1.41306H12.6331V0.847832C12.6331 0.678265 12.5176 0.565204 12.3442 0.565204C12.1709 0.565204 12.0554 0.678265 12.0554 0.847832V1.41304H7.43318V0.282628C7.43318 0.113062 7.31761 0 7.14428 0C6.971 0 6.85543 0.113062 6.85543 0.282628V1.41306H1.94443V0.847832C1.94443 0.678265 1.82886 0.565204 1.65553 0.565204C1.4822 0.565204 1.36668 0.678265 1.36668 0.847832V1.41304H1.07778C0.760036 1.41304 0.5 1.66737 0.5 1.97827V2.54347C0.5 2.85434 0.760009 3.10867 1.07778 3.10867H3.67771V3.95653C3.67771 4.1261 3.79329 4.23913 3.96662 4.23913H5.9888V5.18234L3.01331 5.96306C2.5511 6.10436 2.29109 6.55653 2.40667 7.00873C2.52221 7.37612 2.84001 7.63046 3.24443 7.63046C3.30221 7.63046 3.38889 7.63046 3.47554 7.60219L3.6121 7.56638L5.64217 7.80003C5.69993 7.80003 5.75771 7.77176 5.81552 7.68699C5.84439 7.60219 5.78663 7.51742 5.69993 7.51742L4.37841 7.36528L5.98883 6.94276V8.00844L3.01334 8.78913C2.55113 8.93046 2.29112 9.3826 2.40669 9.83482C2.52224 10.2022 2.84003 10.4565 3.24445 10.4565C3.30224 10.4565 3.38892 10.4565 3.47557 10.4283L3.61213 10.3925L5.64219 10.6261C5.69995 10.6261 5.75774 10.5978 5.81555 10.5131C5.84442 10.4283 5.78666 10.3435 5.69995 10.3435L4.37843 10.1914L5.98885 9.76881V10.8345L3.01336 11.6152C2.55116 11.7565 2.29115 12.2087 2.40672 12.6608C2.52226 13.0282 2.84006 13.2826 3.24448 13.2826C3.30227 13.2826 3.38895 13.2826 3.4756 13.2544L4.83335 12.8981V13.8225L3.01339 14.3C2.55118 14.4413 2.29117 14.8934 2.40675 15.3456C2.47043 15.5481 2.59575 15.7159 2.76294 15.8261H2.52229C2.20455 15.8261 1.94454 16.0804 1.94454 16.3913V16.9565C1.94454 17.2674 2.20452 17.5217 2.52229 17.5217H4.2556V21.4217C4.2556 21.7608 4.48672 22.1 4.83338 22.213L4.94892 22.2696C5.03824 22.2998 5.12824 22.3281 5.21887 22.3543H5.20893L5.96928 23.9703C5.80118 24.1812 5.70003 24.4447 5.70003 24.7282C5.70003 25.4348 6.27778 26 7.00003 26C7.69338 26 8.27115 25.4348 8.24221 24.7282C8.24221 24.4972 8.17505 24.2794 8.05926 24.0924L8.84885 22.3543H8.74386C8.8362 22.328 8.92891 22.3 9.02226 22.2696L9.19554 22.213C9.54226 22.1 9.77335 21.7891 9.77335 21.4217V17.5217H11.4778C11.7955 17.5217 12.0556 17.2674 12.0556 16.9565V16.3913C12.0556 16.0804 11.7955 15.8261 11.4778 15.8261H9.1667V14.446L11.0155 13.9609C11.4778 13.8195 11.7378 13.3674 11.6223 12.9152C11.5066 12.5478 11.1889 12.2935 10.7844 12.2935C10.6978 12.2935 10.64 12.2935 10.5534 12.3217L9.1667 12.6856V11.7612L11.0155 11.2761C11.4778 11.1348 11.7378 10.6826 11.6223 10.2305C11.5066 9.86306 11.1889 9.6087 10.7844 9.6087C10.6978 9.6087 10.6112 9.6087 10.5534 9.63699L10.1226 9.74992L8.44449 9.55219C8.35783 9.52395 8.27113 9.58043 8.27113 9.66523C8.24226 9.75003 8.3001 9.83485 8.3867 9.83485L9.36508 9.94872L8.01123 10.304V9.24135H7.99958L11.0155 8.45005C11.4778 8.30872 11.7378 7.85656 11.6223 7.40439C11.5066 7.03702 11.1889 6.78265 10.7844 6.78265C10.6978 6.78265 10.6112 6.78265 10.5534 6.81092L10.1226 6.9239L8.44449 6.72612C8.35783 6.69786 8.27113 6.75439 8.27113 6.83918C8.24226 6.92395 8.3001 7.00875 8.3867 7.00875L9.36508 7.12268L8.01123 7.47793V6.41223L11.0156 5.62398C11.4778 5.48265 11.7378 5.03051 11.6223 4.57832C11.5067 4.21092 11.1889 3.95658 10.7844 3.95658C10.6978 3.95658 10.6112 3.95658 10.5534 3.98485L10.308 4.04922C10.3165 4.02059 10.3223 3.99005 10.3223 3.95661V3.10867H12.9222C13.24 3.10867 13.5 2.85434 13.5 2.54347V1.97827C13.4997 1.66737 13.2398 1.41306 12.922 1.41306ZM6.99989 25.4913C6.56655 25.4913 6.21992 25.1522 6.21992 24.7282C6.21949 24.6279 6.23937 24.5285 6.27841 24.4357C6.31746 24.343 6.37489 24.2587 6.44741 24.1878C6.51992 24.1168 6.60607 24.0606 6.7009 24.0224C6.79573 23.9842 6.89734 23.9648 6.99989 23.9652C7.10244 23.9648 7.20406 23.9842 7.29889 24.0224C7.39372 24.0606 7.47987 24.1168 7.55239 24.1878C7.62491 24.2587 7.68235 24.343 7.7214 24.4357C7.76045 24.5285 7.78034 24.6279 7.77992 24.7282C7.78035 24.8286 7.76047 24.928 7.72142 25.0208C7.68237 25.1135 7.62493 25.1978 7.55241 25.2688C7.47989 25.3397 7.39373 25.3959 7.2989 25.4341C7.20407 25.4723 7.10245 25.4917 6.99989 25.4913ZM8.12653 22.5239L7.5985 23.651C7.4124 23.5457 7.198 23.4848 6.971 23.4848C6.77772 23.4848 6.59342 23.5289 6.42804 23.607L5.93102 22.5239H5.96349C6.30593 22.5804 6.6526 22.6087 6.99987 22.6088C7.33208 22.6088 7.66435 22.5805 8.00017 22.5239H8.12653ZM6.56655 4.23913H7.43321V4.80337L6.56655 5.03077V4.23913ZM3.90635 15.8261L4.83324 15.5829V15.8261H3.90635ZM8.99318 21.6761L8.81985 21.7326C7.6354 22.1283 6.33546 22.1283 5.15101 21.7043L5.03547 21.6761C4.9199 21.6478 4.83324 21.5348 4.83324 21.4217V20.1531C4.85218 20.1622 4.87145 20.1706 4.891 20.1783L5.00658 20.2066C5.64211 20.4326 6.30657 20.5457 6.99987 20.5457C7.63538 20.5457 8.29986 20.4326 8.93537 20.2348L9.10873 20.1783C9.13835 20.1665 9.16728 20.1532 9.19538 20.1383V21.4218C9.19543 21.5348 9.10876 21.6478 8.99318 21.6761ZM9.19543 19.7835C9.1487 19.8336 9.09012 19.8734 9.02208 19.8957L8.84875 19.9522C7.6354 20.3478 6.3066 20.3478 5.09325 19.9239L4.97771 19.8957C4.92286 19.8777 4.87469 19.8477 4.83327 19.8107V17.5217H9.19543V19.7835ZM11.4775 16.9565H2.52218V16.3913H11.4776V16.9565H11.4775ZM8.58879 15.8261H5.41102V15.4313L8.58876 14.5976L8.58879 15.8261ZM10.6976 12.8587H10.7843C10.8998 12.8587 11.0154 12.9434 11.0442 13.0565C11.0731 13.1978 10.9865 13.3674 10.842 13.3956L3.30216 15.3739C3.15775 15.4304 2.98442 15.3174 2.95552 15.1761C2.9266 15.0348 3.01331 14.8653 3.15775 14.837L10.6976 12.8587ZM8.58879 12.8372L5.41105 13.6709V12.7466L8.58879 11.9128V12.8372ZM11.0443 10.3717C11.0731 10.5131 10.9865 10.6826 10.842 10.7109L3.30219 12.6892C3.15778 12.7457 2.98444 12.6326 2.95555 12.4914C2.92663 12.35 3.01334 12.1805 3.15777 12.1522L10.6977 10.1739H10.7843C10.8998 10.1739 11.0154 10.2587 11.0443 10.3717ZM7.43318 10.4555L6.56653 10.6829V9.61729L7.43318 9.38986V10.4555ZM11.0443 7.54564C11.0731 7.68696 10.9865 7.8565 10.842 7.88477L3.30219 9.86304C3.15778 9.89128 2.98444 9.80651 2.95555 9.6652C2.92663 9.52396 3.01334 9.35436 3.15777 9.32612L10.6977 7.34783H10.7843C10.8998 7.34783 11.0154 7.43263 11.0443 7.54564ZM7.43318 7.62944L6.56653 7.85684V6.7912L7.43318 6.56377V7.62944ZM10.6976 4.52176H10.7843C10.8998 4.52176 11.0154 4.60653 11.0442 4.71959C11.0731 4.86089 10.9865 5.03046 10.842 5.05872L3.30216 7.03699C3.15775 7.0935 2.98442 6.98046 2.95552 6.83916C2.9266 6.69783 3.01331 6.52826 3.15775 6.50003L10.6976 4.52176ZM8.01096 4.6518V4.23916H9.58373L8.01096 4.6518ZM9.74427 3.6739H4.25547V3.10867H9.74427V3.6739ZM12.922 2.54347H1.07778V1.97827H12.922V2.54347Z" fill="white"/>
</svg>
