<svg width="352" height="644" viewBox="0 0 352 644" fill="none" xmlns="http://www.w3.org/2000/svg">
<path d="M352 452V584.5L287 626.5L259 637.5L203.5 643.5H124.5L75 631.5L1.5 586V456L16.5 435L22 415.5C22.28 382.44 22.62 330.89 22.65 291.85L3 298.5L0 288L22.64 273.38C22.6 252.27 22.42 238 22 238C20.8 238 11.5 214.33 7 202.5V74.5L21 62.5L45.5 28.5C55.5 20 82.3 2.4 109.5 0L121.5 7H228.5L245 0C260.17 3.5 293.2 13.5 304 25.5C314.8 37.5 326.5 53.83 331 60.5L347 75V203.5L331 233V274.26L351.5 287.5L348.5 298L331 292.08V417.5L336 436.5L352 452Z" fill="#020202" fill-opacity="0.4"/>
</svg>
