<?xml version="1.0"?>
<svg data-name="Layer 1" id="Layer_1" viewBox="0 0 512 512" fill="white" xmlns="http://www.w3.org/2000/svg">
    <title />
    <path
        d="M449.5,237.5H390a57.62,57.62,0,0,1-41.07-17l-38.27-38.34a29.51,29.51,0,0,0-20.77-8.62H182.15a29.28,29.28,0,0,0-24.38,13l-30.2,45.06a13.3,13.3,0,0,1-11.08,5.92h-54a28,28,0,0,0-28,28v22.34a8,8,0,0,0,2.35,5.66l42.69,42.66a8,8,0,0,0,5.65,2.34h21.44a8,8,0,0,0,8-8,24.07,24.07,0,0,1,48.13,0,8,8,0,0,0,8,8h181.3a8,8,0,0,0,8-8,24.07,24.07,0,0,1,48.13,0,8,8,0,0,0,8,8H449.5a28,28,0,0,0,28-28v-45A28,28,0,0,0,449.5,237.5Zm12,73a12,12,0,0,1-12,12H423.35a40.07,40.07,0,0,0-78.45,0h-167a40.07,40.07,0,0,0-78.45,0h-11l-38-38v-19a12,12,0,0,1,12-12h54a29.28,29.28,0,0,0,24.38-13l30.2-45.06a13.3,13.3,0,0,1,11.08-5.92h107.7a13.41,13.41,0,0,1,9.44,3.92l38.27,38.34A73.53,73.53,0,0,0,390,253.5H449.5a12,12,0,0,1,12,12ZM279.36,201.84a8,8,0,0,0-5.66-2.34h-86a8,8,0,0,0-7.15,4.42l-21.51,43a8,8,0,0,0,7.16,11.58H316.7a8,8,0,0,0,5.66-13.66ZM179.14,242.5l13.51-27h77.74l27,27Zm50.67,33.7a8,8,0,0,1-8,8H205.86a8,8,0,0,1,0-16h15.95A8,8,0,0,1,229.81,276.2Z" />
</svg>