<svg viewBox="0 0 20 21" fill="white" xmlns="http://www.w3.org/2000/svg">
<path d="M19.7137 10.6796L11.3292 4.13273C11.002 3.89321 10.7157 3.34763 10.4703 2.49601C10.3067 1.93713 9.93865 1.46475 9.36605 1.07884C8.79345 0.692934 8.19357 0.5 7.56646 0.5C7.07566 0.5 6.58486 0.666347 6.09406 0.999002C5.60327 1.33166 5.24879 1.6976 5.03067 2.09681H7.56646L8.54805 3.21457L7.56646 4.57186H5.15337C5.31697 5.02427 5.63734 5.39022 6.11451 5.66966C6.59169 5.9491 7.14384 6.02228 7.77096 5.88922C7.79824 5.88922 8.00957 5.86926 8.4049 5.82934C8.80028 5.78942 9.1002 5.76279 9.3047 5.7495C9.5092 5.73621 9.76143 5.74283 10.0613 5.76946C10.2522 5.82268 10.3954 5.86926 10.4908 5.90918C10.5864 5.9491 10.6614 5.99569 10.7157 6.0489C10.7703 6.10212 10.8998 6.22188 11.1043 6.40818C11.3088 6.59449 11.5474 6.79409 11.82 7.00699L18.4458 12.3164C18.8548 12.6889 19.2774 12.6223 19.7137 12.1168C19.9046 11.9305 20 11.6909 20 11.3982C20 11.1055 19.9046 10.8659 19.7137 10.6796Z" fill="white"/>
<path d="M14.3149 12.9102L11.7382 8.51896C11.5473 8.17297 11.3564 8 11.1656 8H3.92638C3.76278 8 3.5719 8.17297 3.35378 8.51896L0.858896 12.9102H0.777096C0.259018 12.9102 0 13.0965 0 13.4691V17.2216C0 17.6208 0.259018 17.8204 0.777096 17.8204H1.67689V19.1377C1.67689 19.4571 1.77231 19.7232 1.96319 19.9361C2.15407 20.149 2.39947 20.2555 2.69939 20.2555H3.10838C3.4083 20.2555 3.66736 20.149 3.88548 19.9361C4.1036 19.7232 4.21268 19.4571 4.21268 19.1377V17.8204H10.8793V19.1377C10.8793 19.4305 10.9884 19.6899 11.2065 19.9162C11.4247 20.1424 11.6838 20.2555 11.9836 20.2555H12.3926C12.6926 20.2555 12.938 20.149 13.1288 19.9361C13.3197 19.7232 13.4151 19.4571 13.4151 19.1377V17.8204H14.3149C14.833 17.8204 15.092 17.6208 15.092 17.2216V13.4691C15.092 13.0965 14.833 12.9102 14.3149 12.9102ZM2.82209 15.4651C2.63121 15.6514 2.39947 15.7445 2.12679 15.7445C1.85411 15.7445 1.62916 15.6514 1.45194 15.4651C1.27472 15.2788 1.18609 15.0526 1.18609 14.7864C1.18609 14.5203 1.27472 14.2941 1.45194 14.1078C1.62916 13.9215 1.85411 13.8283 2.12679 13.8283C2.39947 13.8283 2.63121 13.9215 2.82209 14.1078C3.01297 14.2941 3.10838 14.5203 3.10838 14.7864C3.10838 15.0526 3.01297 15.2788 2.82209 15.4651ZM2.90389 12.9102L4.45808 9.71657C4.62168 9.39721 4.81256 9.23752 5.03068 9.23752H10.0614C10.2795 9.23752 10.4703 9.39721 10.6339 9.71657L12.1881 12.9102H2.90389ZM13.6605 15.4651C13.4697 15.6514 13.2379 15.7445 12.9652 15.7445C12.6925 15.7445 12.4607 15.6514 12.2699 15.4651C12.0791 15.2788 11.9836 15.0526 11.9836 14.7864C11.9836 14.5203 12.0791 14.2941 12.2699 14.1078C12.4608 13.9215 12.6926 13.8283 12.9652 13.8283C13.2379 13.8283 13.4697 13.9215 13.6605 14.1078C13.8514 14.2941 13.9468 14.5203 13.9468 14.7864C13.9468 15.0526 13.8514 15.2788 13.6605 15.4651Z" fill="white"/>
</svg>
