<svg width="15" height="15" viewBox="0 0 15 15" fill="none" xmlns="http://www.w3.org/2000/svg">
<path d="M14.2586 13.047C14.2586 13.2495 14.2242 13.4383 14.1549 13.6137C14.086 13.7893 13.9875 13.9437 13.86 14.0769C13.7324 14.2101 13.5835 14.3138 13.4133 14.388C13.2433 14.4623 13.0571 14.4998 12.8551 14.5H2.24081C2.03879 14.5 1.8474 14.4627 1.66671 14.388C1.48602 14.3133 1.32644 14.2098 1.18796 14.0769C1.04946 13.9439 0.940457 13.7898 0.860902 13.6137C0.781224 13.4381 0.741394 13.2493 0.741394 13.047L0.741394 5.07773C0.741394 4.67299 0.882234 4.32955 1.16393 4.0474C1.44575 3.76535 1.78872 3.62428 2.19286 3.62428H12.807C13.2113 3.62428 13.5543 3.76537 13.8362 4.0474C14.1177 4.32955 14.2586 4.67301 14.2586 5.07773V7.24966H10.6379C10.2336 7.24966 9.8907 7.38815 9.60898 7.665C9.3273 7.94222 9.18636 8.28307 9.18636 8.68732C9.19695 8.96431 9.25541 9.2092 9.36197 9.42207C9.44704 9.60309 9.58802 9.7681 9.7846 9.91732C9.98119 10.0665 10.2657 10.1413 10.6379 10.1413H14.2586V13.0479V13.047H14.2586ZM12.0895 2.88988H4.84812C5.42246 2.5918 5.96485 2.30422 6.47519 2.02727C6.922 1.79284 7.36328 1.55853 7.79913 1.32457C8.23495 1.09038 8.57535 0.909347 8.82003 0.781229C9.19224 0.578859 9.52437 0.485637 9.81666 0.501789C10.109 0.517697 10.3562 0.568377 10.5582 0.653462C10.7926 0.770747 10.9943 0.925027 11.1645 1.11653L12.0895 2.88988ZM9.92038 8.68734C9.92038 8.48486 9.98922 8.31467 10.1276 8.17632C10.2657 8.03793 10.4357 7.96864 10.6379 7.96864C10.8402 7.96864 11.0101 8.03793 11.1483 8.17632C11.2864 8.31467 11.3555 8.48486 11.3555 8.68734C11.3555 8.88983 11.2864 9.06285 11.1483 9.20665C11.0101 9.35043 10.8402 9.42211 10.6379 9.42211C10.4357 9.42211 10.2657 9.35043 10.1276 9.20665C9.98921 9.06285 9.92038 8.88983 9.92038 8.68734Z" fill="white"/>
</svg>
