<svg width="26" height="40" viewBox="0 0 26 40" fill="none" xmlns="http://www.w3.org/2000/svg">
<path id="Vector" d="M10.538 6.77679C11.47 6.77679 12.257 6.44643 12.9032 5.79018C13.5495 5.13393 13.8748 4.33482 13.8748 3.38839C13.8748 2.44643 13.5495 1.64732 12.9032 0.986607C12.257 0.330357 11.47 0 10.538 0C9.61037 0 8.81903 0.330357 8.17277 0.986607C7.52212 1.64286 7.19679 2.44643 7.20119 3.38839C7.20119 4.33482 7.52651 5.13393 8.17277 5.79018C8.81903 6.44643 9.61037 6.77679 10.538 6.77679ZM23.7709 13.9375H19.1592L16.7808 10.3482C15.5586 8.52232 14.1078 7.61161 12.424 7.61161H7.37264C5.9878 7.61161 4.90191 8.03572 4.10617 8.875C3.31483 9.71875 2.91916 10.8482 2.91916 12.2589V17.558L0.404462 20.8884C0.13189 21.2589 -4.94029e-08 21.6071 0 21.9464C0 22.8571 0.584712 23.308 1.75853 23.308C2.29488 23.308 2.79606 22.933 3.26647 22.1786L4.97664 19.4554C5.68006 18.7723 5.94384 17.8929 5.78117 16.8348V12.567H6.45381V36.7277C6.45381 37.9375 6.49777 38.6741 6.59889 38.942C6.86267 39.6473 7.43859 40 8.32664 40C9.18393 40 9.74226 39.6786 10.006 39.0402C10.1335 38.6741 10.1995 37.9509 10.1995 36.875V23.3125H11.1007V37.0714C11.1007 39.0223 11.6942 39.9955 12.8768 39.9955C13.7034 39.9955 14.2441 39.692 14.5079 39.0893C14.6354 38.7857 14.7013 38.1339 14.7013 37.125V12.5268L16.5346 15.433C17.1633 16.4062 17.7568 16.8929 18.3195 16.8929H23.727C25.1118 16.8929 25.8064 16.4196 25.8064 15.4687C25.8064 14.4464 25.125 13.9375 23.7709 13.9375Z" fill="white"/>
</svg>
