<svg width="11" height="13" viewBox="0 0 11 13" fill="none" xmlns="http://www.w3.org/2000/svg">
<path d="M10.5199 5.78H9.49994V2.42C9.49994 1.3595 8.64044 0.5 7.57994 0.5H3.85994C2.79944 0.5 1.93994 1.3595 1.93994 2.42V5.78H0.919941C0.654441 5.78 0.439941 5.9945 0.439941 6.26V12.02C0.439941 12.2855 0.654441 12.5 0.919941 12.5H10.5199C10.7854 12.5 10.9999 12.2855 10.9999 12.02V6.26C10.9999 5.9945 10.7854 5.78 10.5199 5.78ZM6.13994 9.335V10.13C6.13994 10.196 6.08594 10.25 6.01994 10.25H5.41994C5.35394 10.25 5.29994 10.196 5.29994 10.13V9.335C5.17612 9.2461 5.0837 9.12021 5.03599 8.97544C4.98827 8.83068 4.98772 8.6745 5.03441 8.5294C5.08111 8.3843 5.17264 8.25776 5.29583 8.16799C5.41902 8.07822 5.56751 8.02986 5.71994 8.02986C5.87237 8.02986 6.02087 8.07822 6.14406 8.16799C6.26725 8.25776 6.35878 8.3843 6.40547 8.5294C6.45216 8.6745 6.45161 8.83068 6.4039 8.97544C6.35618 9.12021 6.26376 9.2461 6.13994 9.335ZM8.41994 5.78H3.01994V2.42C3.01994 1.9565 3.39644 1.58 3.85994 1.58H7.57994C8.04344 1.58 8.41994 1.9565 8.41994 2.42V5.78Z" fill="white"/>
</svg>
