<svg width="12" height="14" viewBox="0 0 12 14" fill="none" xmlns="http://www.w3.org/2000/svg">
<g id="Group 65">
<path id="Vector" d="M1.5 4.375V13.125C1.5 13.6063 1.89375 14 2.375 14H10.25C10.7313 14 11.125 13.6063 11.125 13.125V4.375H1.5ZM4.125 12.25H3.25V6.125H4.125V12.25ZM5.875 12.25H5V6.125H5.875V12.25ZM7.625 12.25H6.75V6.125H7.625V12.25ZM9.375 12.25H8.5V6.125H9.375V12.25Z" fill="white"/>
<path id="Vector_2" d="M11.3438 1.75H8.5V0.65625C8.5 0.29575 8.20425 0 7.84375 0H4.78125C4.42075 0 4.125 0.29575 4.125 0.65625V1.75H1.28125C0.919875 1.75 0.625 2.04488 0.625 2.40625V3.5H12V2.40625C12 2.04488 11.7043 1.75 11.3438 1.75ZM7.625 1.75H5V0.886375H7.625V1.75Z" fill="white"/>
</g>
</svg>
