<svg viewBox="0 0 31 32" fill="none" xmlns="http://www.w3.org/2000/svg">
<path d="M20.1952 0.997918C19.8515 0.990802 19.4467 1.14324 19.0042 1.54173C16.2135 5.35169 17.5204 8.21496 19.0443 13.1001C20.6989 18.404 19.2429 22.0474 13.2316 20.3353L14.0697 23.0026C21.3508 24.0836 22.8084 18.8682 21.8288 14.3606C20.4896 8.19822 18.5812 6.6927 21.2387 2.73737C21.5525 2.07654 21.0736 1.0161 20.1952 0.997918V0.997918ZM22.6217 3.70158C22.1372 3.98482 21.9674 4.3733 21.9505 5.23403C23.9071 6.85407 25.5705 9.14366 26.879 10.7561C26.3948 11.041 25.7887 11.3041 25.1241 11.2237C24.5043 10.3651 22.8543 8.43621 21.6315 7.27153C21.7312 8.32877 22.0234 9.11494 22.1122 10.0307C24.0293 12.157 24.1311 13.2403 24.1311 13.2403C26.6045 13.3642 28.6907 12.2983 30.0827 11.0596C30.8335 10.4229 29.7831 8.6967 28.4431 9.88153C26.6329 7.66071 24.76 5.51734 22.6217 3.70158V3.70158ZM14.5016 9.05674C10.6245 9.013 7.85566 11.9357 8.04702 15.7352C8.34995 19.0614 9.87012 21.2398 10.1139 23.9266L8.44918 22.069C7.79818 21.9985 7.22751 21.9105 6.52491 22.2937L10.0353 25.964C9.94032 26.5278 9.78085 27.1227 9.53961 27.7601C8.1659 26.4559 6.5489 24.4997 4.77538 22.6053C3.7505 22.83 3.18633 23.4032 3.17587 23.4205L8.77285 29.3801C7.32187 30.9666 9.8225 32.0434 10.9589 30.7684C14.8686 26.2687 11.8561 20.9409 10.5757 15.8199L13.4255 18.8817C14.4301 19.4259 15.7747 19.41 16.2731 19.109L10.8021 13.4883C11.0848 12.8649 11.3829 12.7096 12.0642 12.377L17.4006 17.8713C17.7385 17.2443 18.2413 16.6458 17.6044 15.306L14.1308 11.5081C14.7241 11.3118 16.0385 11.72 17.0683 12.0379L16.2257 9.26314C15.632 9.12972 15.0555 9.06298 14.5016 9.05674V9.05674ZM5.92198 18.7743C3.19806 18.7463 1.70182 19.8533 0.417877 20.9693C-0.731805 21.9752 0.718649 23.811 2.01979 22.8685C3.65084 21.431 5.02539 20.6722 7.6325 20.8565L7.16746 18.859C6.72526 18.8054 6.31111 18.7783 5.92198 18.7743V18.7743Z" fill="white"/>
</svg>