<svg width="1em" height="1em" viewBox="0 0 31 30" fill="none" xmlns="http://www.w3.org/2000/svg">
<path d="M14.9625 28.4464C15.2353 26.808 15.3374 24.5698 15.1538 24.5698C15.1065 24.5698 14.9173 24.6662 14.7331 24.784C14.2913 25.0668 13.1478 25.6721 13.0555 25.6721C13.0155 25.6721 12.9606 25.6323 12.9334 25.5837C12.8916 25.5092 12.8005 25.5377 12.3486 25.7666C11.8799 26.0041 11.7969 26.0291 11.6818 25.9676C11.5684 25.9069 11.4914 25.9256 11.1195 26.1037C10.6463 26.3305 10.5896 26.3419 10.4305 26.2426C10.342 26.1873 10.2759 26.2019 10.0687 26.3222C9.65725 26.5612 9.5643 26.574 9.5201 26.398C9.49928 26.315 9.46579 26.2561 9.44567 26.2672C9.10093 26.4555 8.77582 26.5656 8.53885 26.5741C8.20873 26.5861 7.8665 26.6855 7.01214 27.0176C6.68297 27.1455 6.4017 27.2383 6.38709 27.2237C6.31836 27.1549 6.47383 26.9988 7.05433 26.5536L7.79161 25.9714C7.85158 25.9162 7.96516 25.8263 8.04404 25.7715C8.12293 25.7168 8.18821 25.6136 8.18911 25.5415C8.19036 25.441 8.2685 25.372 8.52779 25.2425C8.74038 25.1362 8.83904 25.058 8.79489 25.0308C8.66289 24.9492 8.79218 24.813 9.11715 24.6914C9.29605 24.6245 9.49362 24.5697 9.55624 24.5697C9.68619 24.5697 9.69324 24.5473 9.61135 24.3943C9.55979 24.2979 9.58287 24.2759 9.79991 24.2145C9.93592 24.176 10.1962 24.1422 10.3782 24.1395C10.6857 24.1349 10.707 24.1258 10.6783 24.0113C10.6495 23.8963 10.6762 23.8854 11.0725 23.8498C11.3092 23.8286 11.5835 23.8371 11.6913 23.8691C11.8466 23.915 11.8791 23.9109 11.8552 23.8483C11.8077 23.7246 12.112 23.6938 13.0342 23.7292L13.8762 23.7615L13.2961 23.5561C12.7469 23.3615 11.5007 22.9752 10.9592 22.8317C10.8227 22.7955 10.7206 22.7475 10.7325 22.725C10.7755 22.6436 10.5643 22.5097 10.3661 22.4928C10.2546 22.4832 9.93732 22.4353 9.66111 22.3862C9.23929 22.3113 9.15239 22.2769 9.11815 22.1715C9.09572 22.1025 9.08041 22.0175 9.08411 21.9826C9.08781 21.9478 8.86451 21.8718 8.5879 21.8138C8.0522 21.7013 7.84052 21.5682 7.89993 21.381C7.92731 21.2947 7.89583 21.2653 7.74336 21.2349C7.21146 21.1286 6.95317 21.0253 6.85872 20.8812C6.76591 20.7396 6.76601 20.7245 6.86077 20.6198C6.94651 20.525 6.94822 20.5086 6.87243 20.5086C6.82353 20.5086 6.59612 20.4663 6.36701 20.4146C6.05491 20.3441 5.92787 20.286 5.8602 20.1827C5.7755 20.0534 5.7784 20.0377 5.907 19.9306C5.98243 19.8678 6.02453 19.8122 6.0006 19.8072L5.91356 19.79C5.66583 19.7449 4.95458 19.4256 4.84726 19.3113C4.71351 19.1689 4.71276 19.1627 4.82018 19.0842C4.92875 19.0048 4.92875 19.0028 4.82018 18.965C4.5269 18.863 4.18146 18.6964 4.08821 18.6119C3.97729 18.5115 3.9465 18.304 4.04256 18.304C4.19743 18.304 4.06588 18.203 3.75318 18.0817C3.56212 18.0076 3.35113 17.8775 3.28431 17.7925L3.16282 17.6381L3.28431 17.5574C3.40044 17.4803 3.38853 17.4666 3.01431 17.2479C2.58933 16.9996 2.52185 16.9309 2.56535 16.7908C2.58382 16.7314 2.53857 16.6737 2.43721 16.6275C2.19108 16.5154 1.83398 16.2114 1.8513 16.1288C1.87428 16.0192 1.20302 15.501 0.508146 15.092C0.0535361 14.8244 -0.0648968 14.7314 0.0308606 14.7173C0.100939 14.707 0.294706 14.7428 0.461493 14.7969C0.816942 14.9121 1.99636 15.3784 2.14033 15.4607C2.19489 15.4919 2.27703 15.503 2.32283 15.4854C2.36863 15.4678 2.57201 15.5399 2.77474 15.6455L3.1869 15.8573C3.21083 15.8681 3.2304 15.8357 3.2304 15.7852C3.2304 15.7347 3.24476 15.6933 3.26228 15.6933C3.33441 15.6933 3.67995 15.8946 3.88653 16.057C4.10248 16.2267 4.10828 16.2279 4.13987 16.1071C4.15764 16.0391 4.19288 15.9834 4.21811 15.9834C4.28773 15.9834 4.89857 16.493 4.92975 16.577C4.94532 16.619 4.98492 16.5804 5.02201 16.4871L5.08698 16.3237L5.27549 16.4569C5.37916 16.5301 5.58679 16.7121 5.73686 16.8614L6.00971 17.1329L6.07494 16.9353C6.11083 16.8266 6.15403 16.7377 6.17104 16.7377C6.22886 16.7377 6.85571 17.3292 7.03902 17.5567L7.22167 17.7833L7.28259 17.6086C7.31608 17.5125 7.36799 17.4338 7.39787 17.4338C7.47671 17.4338 8.16203 18.1793 8.21749 18.3254C8.26299 18.4453 8.26674 18.4442 8.33842 18.2896C8.37912 18.2018 8.44439 18.13 8.48344 18.13C8.57159 18.13 9.26311 18.8622 9.26632 18.9589C9.26762 18.9976 9.30761 18.9575 9.35521 18.8697C9.40282 18.782 9.46123 18.7102 9.48501 18.7102C9.54598 18.7102 10.1007 19.3483 10.2427 19.5819L10.3609 19.7762L10.4202 19.6203C10.4527 19.5346 10.5033 19.4644 10.5324 19.4644C10.5989 19.4644 11.2938 20.3794 11.2966 20.4706C11.2977 20.5074 11.3304 20.4806 11.3691 20.4109C11.4079 20.3413 11.4568 20.276 11.4778 20.2659C11.5238 20.2438 12.1977 21.1054 12.3224 21.3458C12.4101 21.5148 12.411 21.5151 12.4785 21.3888C12.5457 21.2633 12.5488 21.2644 12.7536 21.4799C12.8676 21.5998 13.0662 21.834 13.195 22.0002C13.4449 22.3226 14.1504 22.9984 14.4846 23.2355L14.6869 23.3789L14.5571 23.1967C14.4858 23.0964 14.4274 22.9974 14.4274 22.9767C14.4274 22.956 14.325 22.7882 14.1997 22.6037C13.964 22.2567 13.5348 21.8073 12.8278 21.1675C12.6022 20.9634 12.384 20.712 12.3431 20.609C12.275 20.4379 12.1716 20.3406 11.5429 19.8563C11.3726 19.7251 11.1785 19.4665 11.1785 19.3707C11.1785 19.3584 11.2242 19.347 11.28 19.3453C11.3615 19.3428 11.3532 19.3228 11.2382 19.2438C10.7476 18.9067 10.2832 18.52 10.2179 18.3941C10.1521 18.2672 10.1549 18.2403 10.2391 18.1932C10.2926 18.1632 10.3235 18.1281 10.3078 18.115C10.2921 18.1019 10.0965 17.9649 9.87315 17.8105C9.35682 17.4535 9.13612 17.2017 9.3394 17.2017C9.38089 17.2017 9.44456 17.172 9.48091 17.1356C9.53036 17.0862 9.46389 17.0157 9.21691 16.8558C8.90161 16.6517 8.50972 16.267 8.50972 16.1617C8.50972 16.1343 8.57499 16.0956 8.65478 16.0756C8.73457 16.0556 8.79984 16.0181 8.79984 15.9923C8.79984 15.9666 8.64051 15.8301 8.4458 15.689C8.25108 15.5479 8.05566 15.3626 8.01146 15.2773C7.93407 15.1277 7.93748 15.1207 8.10441 15.084C8.32581 15.0354 8.32266 14.99 8.0891 14.863C7.83811 14.7265 7.28985 14.2323 7.2907 14.1432C7.2911 14.1044 7.35863 14.0373 7.44077 13.9942L7.59019 13.916L7.35097 13.7577C7.05904 13.5645 6.65319 13.203 6.65319 13.1362C6.65319 13.1092 6.75245 13.0575 6.87373 13.0212L7.09428 12.9551L6.58366 12.4517C6.30284 12.1749 6.07303 11.9062 6.07303 11.8547C6.07303 11.7937 6.14361 11.7479 6.27581 11.7231L6.47859 11.6851L6.11148 11.325C5.65422 10.8766 5.60691 10.7711 5.84213 10.724C5.93718 10.705 6.01502 10.6798 6.01502 10.668C6.01502 10.6562 5.88698 10.4877 5.73045 10.2934C5.43782 9.93028 5.33651 9.7184 5.45479 9.71684C5.49168 9.71634 5.56021 9.69172 5.60706 9.66208C5.67939 9.61633 5.67459 9.59246 5.57508 9.50341C5.38426 9.33271 5.14479 8.98883 5.14479 8.88551C5.14479 8.82084 5.1939 8.78946 5.29501 8.78946H5.44523L5.29226 8.60765C5.11131 8.39256 4.91278 8.01849 4.91278 7.8925C4.91278 7.84279 4.96264 7.80315 5.02516 7.80315C5.13038 7.80315 5.12667 7.77912 4.96715 7.42733C4.79255 7.04225 4.74384 6.77735 4.86098 6.84973C4.90377 6.87616 4.91268 6.85003 4.88776 6.77144C4.86718 6.70652 4.80076 6.47486 4.74024 6.25652C4.67972 6.03817 4.47184 5.51503 4.27832 5.09381C4.08481 4.67259 3.92648 4.30963 3.92648 4.28711C3.92648 4.17158 4.21836 4.5451 4.72102 5.30395C5.02911 5.76907 5.33951 6.20491 5.41069 6.27243C5.48187 6.33996 5.60987 6.54259 5.69511 6.72269C5.78036 6.90279 5.87526 7.03454 5.90605 7.01552C5.93683 6.9965 6.00216 7.01412 6.05111 7.05476C6.16003 7.14516 6.38949 7.59572 6.44625 7.83068L6.48795 8.00332L6.59102 7.86667L6.69408 7.73002L6.78468 7.85931C6.83449 7.93044 6.92319 8.14248 6.9818 8.33049C7.08787 8.67087 7.15189 8.73164 7.27473 8.60875C7.31022 8.57326 7.36448 8.55975 7.39532 8.57882C7.47936 8.63078 7.65631 9.02442 7.69365 9.24251L7.72654 9.43463L7.86424 9.30608C7.99794 9.18129 8.00385 9.18079 8.06577 9.28801C8.19476 9.51131 8.38653 10.0256 8.42442 10.2501L8.46342 10.481L8.59181 10.3603C8.66244 10.294 8.74909 10.2397 8.78432 10.2397C8.8525 10.2397 9.0318 10.9383 9.0318 11.204V11.3622L9.18152 11.2216C9.32643 11.0854 9.33379 11.0844 9.41123 11.1903C9.45523 11.2505 9.50764 11.4093 9.52771 11.5433C9.58237 11.9077 9.63663 11.9704 9.78284 11.838C9.84882 11.7783 9.91489 11.7416 9.92976 11.7565C9.99048 11.8172 10.2394 12.5485 10.2774 12.7779C10.2999 12.9135 10.334 13.0245 10.353 13.0245C10.3721 13.0245 10.448 12.9678 10.5218 12.8986C10.5955 12.8293 10.6721 12.7889 10.6921 12.8089C10.7527 12.8695 10.8865 13.5037 10.8874 13.7352C10.8884 13.9662 10.9443 14.008 11.0624 13.8657C11.1021 13.8179 11.1555 13.7787 11.181 13.7787C11.2436 13.7787 11.3423 14.0904 11.4298 14.5643C11.4967 14.9267 11.5089 14.9483 11.5971 14.8601C11.6494 14.8078 11.7043 14.765 11.7192 14.765C11.775 14.765 12.0668 15.7349 12.1005 16.0323L12.1356 16.3425L12.2953 16.2166C12.4143 16.1227 12.4612 16.1102 12.4793 16.1675L12.6871 16.8101C12.788 17.1213 12.8879 17.4958 12.9092 17.6423L12.9479 17.9086L13.1047 17.7852L13.2614 17.6618L13.3187 17.8814C13.4585 18.417 13.5501 18.8152 13.5863 19.0437C13.6249 19.288 13.6868 19.3509 13.7646 19.225C13.8163 19.1413 13.9194 19.435 14.1336 20.2765C14.2875 20.8814 14.6017 21.7258 14.9 22.3361L15.0134 22.5682L14.9866 22.104C14.9714 21.8415 14.8961 21.4383 14.8133 21.1758C14.7328 20.9205 14.6267 20.5159 14.5776 20.2765C14.5 19.8984 14.4992 19.8332 14.5718 19.7785C14.6241 19.7391 14.6349 19.6951 14.6007 19.6609C14.547 19.6072 14.1373 18.4651 14.1373 18.3691C14.1373 18.3422 14.1999 18.3321 14.2765 18.3467L14.4158 18.3734L14.1925 17.8184C14.0697 17.5131 13.9519 17.1712 13.9307 17.0585C13.8947 16.8665 13.9018 16.8536 14.0438 16.8536C14.1272 16.8536 14.1953 16.8454 14.1953 16.8354C14.1953 16.8254 14.1317 16.6853 14.0539 16.5241C13.9247 16.2562 13.7312 15.6227 13.7312 15.4673C13.7312 15.4321 13.8123 15.4032 13.9115 15.4032C14.0607 15.4032 14.0844 15.3858 14.049 15.3017C13.9073 14.9652 13.6734 14.318 13.6424 14.1767C13.6075 14.0182 13.6151 14.0109 13.8151 14.0109H14.0242L13.9421 13.8513C13.8434 13.6594 13.6151 12.9317 13.6151 12.8089C13.6151 12.7444 13.6615 12.7282 13.7916 12.7473C13.9363 12.7685 13.9608 12.7566 13.9272 12.6814C13.8429 12.4926 13.6251 11.8284 13.5859 11.6407L13.5452 11.446L13.7919 11.4877C14.0181 11.5259 14.0348 11.5203 13.9921 11.4213C13.8455 11.0817 13.7288 10.6749 13.6948 10.3861L13.6562 10.0574L13.8636 10.0963L14.071 10.1352L13.9314 9.79588C13.8547 9.60927 13.7913 9.3685 13.7906 9.26083C13.7893 9.07252 13.7961 9.06642 13.9694 9.10105C14.1223 9.13164 14.1438 9.12223 14.1119 9.03893C13.8503 8.35707 13.8516 8.17176 14.1182 8.19854L14.3004 8.21686L14.2126 7.96648C14.1643 7.82878 14.1211 7.58561 14.1166 7.42603L14.1083 7.13595L14.3316 7.14942C14.5239 7.16098 14.549 7.14887 14.5118 7.06237C14.488 7.00711 14.456 6.71688 14.4407 6.41744L14.4128 5.87298L14.6227 5.91233C14.8298 5.95117 14.8318 5.94967 14.775 5.80035C14.704 5.61354 14.7013 5.19167 14.7705 5.08245C14.7987 5.0379 14.8635 5.01753 14.9146 5.0371C14.9933 5.06728 15.0075 5.02053 15.0075 4.7312C15.0075 4.34107 15.0457 4.20216 15.1429 4.23955C15.1909 4.25807 15.2047 4.17113 15.1904 3.94007C15.1712 3.63192 15.1766 3.61661 15.2919 3.65315C15.4036 3.68864 15.4136 3.66961 15.4136 3.42109C15.4136 3.27217 15.45 3.06809 15.4946 2.96758C15.5392 2.86706 15.6059 2.51062 15.6428 2.17559C15.7204 1.47105 15.8641 0.426829 15.9182 0.174045L15.9554 0L15.9978 0.145063C16.0211 0.224852 16.0428 0.61504 16.046 1.01223C16.053 1.88837 16.1607 3.06148 16.2387 3.11089C16.2699 3.13071 16.2863 3.29359 16.2752 3.47289C16.2568 3.76888 16.2648 3.79571 16.3628 3.76452C16.4631 3.73264 16.4692 3.76332 16.4496 4.19706C16.4296 4.63565 16.4354 4.66323 16.5447 4.65262C16.6494 4.64246 16.661 4.67589 16.6609 4.98939C16.6608 5.18086 16.6391 5.39725 16.6127 5.47028C16.5685 5.59272 16.5771 5.59998 16.7231 5.56334L16.8815 5.52359L16.8507 6.01595C16.8339 6.28675 16.789 6.56616 16.7512 6.63694C16.6847 6.76113 16.6895 6.76423 16.8892 6.72679L17.0961 6.688V6.91385C17.0961 7.12734 16.9934 7.58656 16.8924 7.82437C16.8457 7.93455 16.8919 7.9331 17.2063 7.81466C17.2726 7.78968 17.2818 7.85251 17.2562 8.1562C17.2389 8.36088 17.1848 8.64239 17.1358 8.7818L17.0469 9.03523L17.2486 9.00249C17.3874 8.97997 17.4595 8.99383 17.4798 9.04694C17.5053 9.11337 17.3305 9.69322 17.1839 10.0287C17.1417 10.1252 17.1563 10.1325 17.3194 10.0967C17.4966 10.0577 17.5022 10.0625 17.5022 10.2551C17.5022 10.4869 17.3203 11.0444 17.1512 11.331C17.0092 11.5717 17.0323 11.6078 17.2745 11.5233L17.4589 11.459L17.4311 11.7483C17.4158 11.9074 17.3226 12.2003 17.2241 12.3991C17.1255 12.5979 17.0528 12.7685 17.0625 12.7782C17.0721 12.7878 17.1498 12.7692 17.2352 12.7367C17.5659 12.611 17.4902 13.0112 16.9906 14.0314C16.9773 14.0587 17.0477 14.0632 17.1473 14.0413C17.3216 14.0031 17.3282 14.0086 17.3272 14.1948C17.3267 14.301 17.2358 14.6098 17.1251 14.8811L16.9231 15.3887C16.9225 15.3967 16.9894 15.4032 17.0717 15.4032C17.2099 15.4032 17.2184 15.4176 17.1822 15.5918C17.1607 15.6955 17.0541 15.9676 16.9455 16.1964C16.8369 16.4253 16.748 16.6251 16.748 16.6406C16.748 16.6561 16.8002 16.6551 16.864 16.6384C17.0468 16.5906 17.0129 16.8755 16.777 17.3676C16.6653 17.6007 16.5739 17.8028 16.5739 17.8167C16.5739 17.8307 16.6392 17.8257 16.719 17.8057C16.8393 17.7755 16.864 17.7901 16.864 17.8916C16.864 17.9589 16.8902 18.0139 16.922 18.0139C16.9539 18.0139 16.9801 17.8834 16.9801 17.7239C16.9801 17.51 17.002 17.4338 17.0637 17.4338C17.1097 17.4338 17.1634 17.4599 17.1831 17.4918C17.2716 17.635 17.3798 17.5442 17.3731 17.3323C17.3649 17.0749 17.4447 16.2052 17.4822 16.1436C17.4965 16.12 17.5682 16.14 17.6414 16.188L17.7746 16.2753L17.8092 15.7074C17.8481 15.0683 17.8873 14.9179 18.0028 14.9648L18.1566 15.0275C18.2117 15.05 18.2499 14.8975 18.3049 14.4344C18.3456 14.0915 18.3922 13.7977 18.4084 13.7815C18.4246 13.7652 18.511 13.794 18.6004 13.8453L18.763 13.9386L18.8019 13.4671C18.8232 13.2078 18.8674 12.8958 18.9 12.7738L18.9593 12.5519L19.1513 12.6984L19.3433 12.8449L19.3804 12.5297C19.429 12.1162 19.5236 11.6819 19.5876 11.5789C19.6311 11.5088 19.6612 11.5111 19.7888 11.5947L19.9387 11.693L19.939 11.4741C19.9392 11.3537 19.9668 11.1508 20.0002 11.0231C20.1076 10.6136 20.1033 10.6195 20.22 10.7251C20.3822 10.8718 20.4608 10.8397 20.4608 10.6267C20.4608 10.376 20.5814 9.77576 20.6318 9.77576C20.6532 9.77576 20.7214 9.8141 20.7833 9.86096C20.9504 9.98735 20.9632 9.97478 20.9741 9.67425C20.9854 9.36535 21.136 8.7895 21.2056 8.7895C21.2305 8.7895 21.3016 8.82785 21.3635 8.8747C21.5255 8.99719 21.5631 8.98392 21.5635 8.80402C21.5639 8.59073 21.6618 8.26427 21.7664 8.12701C21.8465 8.02199 21.8575 8.02124 21.9602 8.11415C22.0648 8.2088 22.0704 8.2028 22.1036 7.96038C22.1226 7.82162 22.1658 7.63541 22.1996 7.54651C22.2593 7.38964 22.2652 7.38768 22.4052 7.47939C22.5452 7.57109 22.5494 7.56974 22.5494 7.43228C22.5494 7.35445 22.6025 7.16679 22.6674 7.01527C22.7573 6.80563 22.8016 6.75597 22.8531 6.80738C22.953 6.90729 23.0135 6.88973 23.0135 6.76088C23.0135 6.69816 23.0576 6.55435 23.1115 6.44137C23.1849 6.28735 23.2358 6.24425 23.3146 6.26928C23.3816 6.29055 23.4196 6.27343 23.4196 6.22198C23.4196 6.17763 23.5327 5.96048 23.6709 5.73944C24.0704 5.10057 24.4059 4.52227 24.4059 4.47256C24.4059 4.38306 24.837 3.72998 24.8568 3.78945C24.8809 3.86188 24.7553 4.29156 24.5847 4.71959C24.3914 5.20494 24.0509 6.55335 24.1162 6.57527C24.2091 6.60641 24.1828 6.83291 24.0578 7.07809C23.919 7.35029 23.9202 7.33918 24.0288 7.33918C24.1781 7.33918 24.1348 7.4933 23.7776 8.23213C23.7638 8.26056 23.8213 8.26662 23.9052 8.24555C24.0438 8.21076 24.0578 8.22272 24.0578 8.37629C24.0578 8.4693 23.958 8.7439 23.8361 8.98658L23.6143 9.42777H23.778C23.9121 9.42777 23.9418 9.45295 23.9418 9.56693C23.9418 9.7204 23.6634 10.282 23.4457 10.5679C23.2976 10.7622 23.3327 10.8201 23.5984 10.8201C23.84 10.8201 23.709 11.1176 23.2665 11.5743L22.9573 11.8934L23.1584 11.9523L23.3596 12.0112L23.2391 12.2133C23.1729 12.3245 22.9865 12.5511 22.8249 12.7167L22.5311 13.0179L22.6871 13.057C22.9075 13.1124 22.8466 13.2708 22.4579 13.6533C22.2849 13.8235 22.1434 13.9736 22.1434 13.9868C22.1434 14.0001 22.1973 14.011 22.2633 14.011C22.4909 14.011 22.2965 14.3798 21.9061 14.6888L21.669 14.8764L21.8191 14.9141C21.9017 14.9348 21.9693 14.9768 21.9693 15.0074C21.9693 15.0773 21.8499 15.3068 21.7935 15.3454C21.7701 15.3613 21.6271 15.4889 21.4757 15.629C21.2426 15.8444 21.2149 15.8918 21.2951 15.9367C21.4359 16.0155 21.3324 16.173 20.8211 16.6585C20.4276 17.0322 20.3973 17.0762 20.5096 17.1119C20.6262 17.1489 20.6287 17.1617 20.5494 17.3151C20.5029 17.4052 20.2942 17.6286 20.0857 17.8116C19.6993 18.1509 19.6361 18.2462 19.7977 18.2462C19.9761 18.2462 19.817 18.5036 19.3539 18.9645C19.1012 19.2159 18.8945 19.4313 18.8945 19.4431C18.8945 19.4549 18.9337 19.4645 18.9816 19.4645C19.0806 19.4645 19.0981 19.5555 19.0096 19.6101C18.9772 19.6302 18.9641 19.6684 18.9807 19.6951C18.9972 19.7218 18.8034 19.9185 18.55 20.1323C18.2967 20.3461 18.0643 20.59 18.0335 20.6744C18.0028 20.7588 17.7804 21.0629 17.5393 21.35C16.9618 22.0379 15.9512 23.5233 16.2564 23.2356C16.854 22.6722 17.4148 22.0541 17.6802 21.6661C18.0792 21.0831 18.1275 21.0353 18.2049 21.147C18.249 21.2105 18.2731 21.215 18.294 21.1634C18.3947 20.9165 18.6747 20.4582 18.9236 20.1328C19.1649 19.8174 19.2245 19.7683 19.2781 19.8411C19.3657 19.9603 19.3983 19.9515 19.4375 19.7981C19.4558 19.7264 19.5768 19.527 19.7063 19.3553C19.8359 19.1835 19.9673 19.0007 19.9983 18.9491C20.0495 18.8643 20.0627 18.8656 20.138 18.9627C20.2157 19.0629 20.2307 19.0514 20.3657 18.7887C20.4451 18.6339 20.5897 18.4159 20.687 18.3043C20.8669 18.0977 20.8907 18.0998 21.0112 18.3333C21.0291 18.3679 21.055 18.3615 21.0754 18.3175C21.1056 18.2526 21.7123 17.3879 21.7745 17.3212C21.7878 17.307 21.8542 17.3511 21.9223 17.419L22.0459 17.5427L22.1672 17.3185C22.3008 17.0716 22.6865 16.6217 22.7647 16.6217C22.7919 16.6217 22.8455 16.7047 22.8838 16.8062L22.9535 16.9907L23.1141 16.7528C23.3104 16.4624 23.6959 16.0416 23.7658 16.0416C23.7939 16.0416 23.8471 16.1329 23.884 16.2447C23.958 16.469 24.0322 16.5045 24.0842 16.3405C24.121 16.2247 24.9425 15.4615 25.0304 15.4615C25.0597 15.4615 25.1163 15.5332 25.1562 15.6209C25.2287 15.7798 25.2291 15.7799 25.3256 15.6607C25.4572 15.4983 26.1515 14.9974 26.2452 14.9974C26.2866 14.9974 26.3206 15.0452 26.3206 15.1037C26.3206 15.2785 26.3828 15.2886 26.5332 15.1382C26.6756 14.9957 27.1922 14.7073 27.3049 14.7073C27.3379 14.7073 27.3649 14.7505 27.3649 14.8033C27.3649 14.8898 27.375 14.8905 27.4664 14.8108C27.62 14.6768 27.8412 14.5727 28.0031 14.5583C28.0829 14.5512 28.5136 14.3837 28.9603 14.1861C29.9987 13.7267 30.0336 13.7133 30.0336 13.7751C30.0336 13.8033 29.8574 13.9647 29.6421 14.1337C29.0798 14.575 28.4369 15.188 28.4464 15.2738C28.4564 15.3631 28.0477 15.7233 27.7773 15.8635C27.5818 15.9649 27.5813 15.9661 27.7048 16.0525C27.8235 16.1356 27.8244 16.1439 27.726 16.2329C27.6692 16.2843 27.472 16.3953 27.2876 16.4797C26.9825 16.6194 26.9618 16.6402 27.0571 16.7111C27.212 16.8263 27.103 16.9598 26.6755 17.1782C26.2339 17.4038 26.2083 17.4279 26.336 17.4994C26.5491 17.6187 26.2243 17.8824 25.602 18.0951C25.5005 18.1299 25.4994 18.1401 25.5871 18.2369C25.6639 18.3218 25.6681 18.359 25.6095 18.4363C25.5227 18.5508 24.7416 18.9418 24.5963 18.9437C24.5097 18.9448 24.5151 18.9619 24.6305 19.0506C24.9091 19.2649 24.5969 19.5438 23.8985 19.7045C23.5809 19.7776 23.5298 19.8291 23.6875 19.9173C23.8809 20.0256 23.678 20.1953 23.1174 20.3942C22.3368 20.6712 22.3432 20.6671 22.4686 20.8056C22.5671 20.9145 22.5664 20.924 22.4512 21.0392C22.3715 21.1189 22.1506 21.1963 21.7939 21.2695C21.311 21.3686 21.1088 21.4701 21.101 21.6174C21.1 21.6368 20.8708 21.7383 20.5916 21.8431C20.3124 21.948 20.0282 22.0932 19.9602 22.1659C19.7892 22.3486 19.557 22.4588 18.2564 22.9754C17.6342 23.2225 16.9816 23.5003 16.8061 23.5927C16.5145 23.746 16.5045 23.7575 16.69 23.7256C16.8017 23.7064 17.1596 23.6158 17.4852 23.5243C18.3521 23.2807 18.4886 23.2605 18.4886 23.3756C18.4886 23.4603 18.5024 23.4614 18.6191 23.3857C18.7234 23.318 19.1593 23.2181 19.6199 23.1564C19.6518 23.1522 19.6694 23.2094 19.659 23.2836C19.6416 23.4078 19.6507 23.4128 19.774 23.3468C19.8929 23.2832 20.6536 23.0652 20.7657 23.0626C20.7896 23.0621 20.8092 23.1166 20.8092 23.1838C20.8092 23.2763 20.8338 23.2966 20.9106 23.2672C21.1197 23.1869 21.5712 23.1102 21.6518 23.1411C21.6994 23.1594 21.7206 23.2122 21.7009 23.2636C21.6725 23.3375 21.6911 23.3445 21.8034 23.302C21.8788 23.2734 22.0812 23.2308 22.2531 23.2073L22.5657 23.1646L22.5368 23.3158L22.5079 23.467L22.9059 23.43C23.2856 23.3947 23.3039 23.3987 23.3039 23.5174C23.3039 23.6315 23.3342 23.6417 23.6745 23.6417C23.9919 23.6417 24.044 23.6563 24.0371 23.7432C24.0327 23.7991 24.0619 23.8382 24.1021 23.8301C24.1422 23.8221 24.2858 23.8402 24.4212 23.8704C24.5566 23.9006 24.7584 23.9413 24.8699 23.9609C24.9813 23.9804 25.0936 24.034 25.1193 24.0801C25.145 24.1262 25.2125 24.1638 25.2691 24.1638C25.5444 24.1638 26.7694 24.6944 26.8701 24.8572C26.8851 24.8815 26.3789 24.8986 25.7453 24.8952C24.7244 24.8898 24.5805 24.9006 24.4807 24.9906C24.406 25.0579 24.273 25.0921 24.0862 25.0921C23.8783 25.0921 23.7699 25.1246 23.6725 25.2161C23.5572 25.3244 23.4705 25.3404 22.9852 25.3426C22.5141 25.3448 22.4322 25.359 22.4448 25.4362C22.4863 25.689 22.2946 25.726 21.7082 25.5788C21.363 25.4921 21.329 25.4923 21.2395 25.5818C21.1307 25.6907 20.9173 25.6664 20.5771 25.5066C20.4506 25.4472 20.221 25.4107 19.968 25.4098C19.5264 25.4082 18.4744 25.1196 17.0091 24.598C16.4419 24.3961 16.1999 24.3366 16.0329 24.3579C15.6242 24.4099 15.5734 24.2299 15.5313 25.3915C15.4908 26.51 15.3495 27.7498 15.1207 28.9945C14.8367 29.2369 14.9212 28.7011 14.9626 28.4466L14.9625 28.4464ZM15.634 23.98C15.5274 23.9109 15.049 23.9382 15.1202 24.0094C15.151 24.0403 15.2558 24.0632 15.353 24.0604C15.4502 24.0577 15.5297 24.083 15.5297 24.1166C15.5297 24.1539 15.5649 24.1487 15.6195 24.1034C15.6913 24.0438 15.6942 24.0191 15.634 23.98ZM16.3635 20.5642C16.412 20.467 16.4678 20.2647 16.4877 20.1146L16.5237 19.8415L16.3573 20.1607C16.2648 20.3381 16.2017 20.5377 16.2152 20.6103C16.2465 20.779 16.2582 20.7754 16.3635 20.5642ZM16.8052 18.8838C16.905 18.9372 16.9143 18.9098 16.932 18.5094C16.9425 18.2717 16.9293 18.0992 16.9026 18.126C16.7952 18.234 16.4765 19.0475 16.5531 19.0181C16.6007 18.9999 16.6356 19.0306 16.6412 19.0956C16.6463 19.1548 16.6611 19.1184 16.6739 19.0147C16.6942 18.8514 16.7118 18.8338 16.8051 18.8837L16.8052 18.8838Z" fill="white"/>
<path d="M14.9453 23.7627H15.8338V24.2643H14.9453V23.7627Z" fill="white"/>
</svg>