<svg width="21" height="21" viewBox="0 0 21 21" fill="none" xmlns="http://www.w3.org/2000/svg">
<g id="Group 11">
<path id="Vector" d="M2.1 21H14.7C15.257 21 15.7911 20.7788 16.1849 20.3849C16.5787 19.9911 16.8 19.457 16.8 18.9V6.30001C16.8 5.74306 16.5787 5.20891 16.1849 4.81509C15.7911 4.42126 15.257 4.20001 14.7 4.20001H2.1C1.54305 4.20001 1.0089 4.42126 0.615076 4.81509C0.221249 5.20891 0 5.74306 0 6.30001V18.9C0 19.457 0.221249 19.9911 0.615076 20.3849C1.0089 20.7788 1.54305 21 2.1 21ZM4.2 11.55H7.35V8.40001H9.45V11.55H12.6V13.65H9.45V16.8H7.35V13.65H4.2V11.55Z" fill="white"/>
<path id="Vector_2" d="M18.9 0H6.30005V2.1H18.9V14.7H21V2.1C21 0.94185 20.0582 0 18.9 0Z" fill="white"/>
</g>
</svg>
