<svg viewBox="0 0 10 16" fill="none" xmlns="http://www.w3.org/2000/svg">
<path d="M5 0.790527C6.32608 0.790527 7.59785 1.31731 8.53554 2.25499C9.47322 3.19268 10 4.46444 10 5.79053C10 8.26553 8.2 10.3239 5.83333 10.7239V12.4572H7.5V14.1239H5.83333V15.7905H4.16667V14.1239H2.5V12.4572H4.16667V10.7239C1.8 10.3239 0 8.26553 0 5.79053C0 4.46444 0.526784 3.19268 1.46447 2.25499C2.40215 1.31731 3.67392 0.790527 5 0.790527M5 2.45719C4.11595 2.45719 3.2681 2.80838 2.64298 3.4335C2.01786 4.05863 1.66667 4.90647 1.66667 5.79053C1.66667 6.67458 2.01786 7.52243 2.64298 8.14755C3.2681 8.77267 4.11595 9.12386 5 9.12386C5.88406 9.12386 6.7319 8.77267 7.35702 8.14755C7.98214 7.52243 8.33333 6.67458 8.33333 5.79053C8.33333 4.90647 7.98214 4.05863 7.35702 3.4335C6.7319 2.80838 5.88406 2.45719 5 2.45719Z" fill="white"/>
</svg>