<svg width="20" height="21" viewBox="0 0 20 21" fill="none" xmlns="http://www.w3.org/2000/svg">
<path d="M18.7297 16.1312C18.6632 15.9973 18.6632 15.7963 18.7297 15.6623C19.3282 14.5905 19.9933 12.5139 19.9933 10.1694C19.9933 4.07363 15.0719 0.456345 10.3501 0.456345C5.69476 0.456345 0.706909 3.80568 0.706909 9.96846C0.706909 12.447 1.37196 14.5236 1.9705 15.5283C2.037 15.6623 2.037 15.8633 1.9705 15.9973L1.50496 17.0021C1.30545 17.337 1.37196 17.8059 1.57147 18.2078L3.10108 19.9495C3.4336 20.4854 4.29816 20.6863 4.8302 20.2174L6.89184 19.0786C6.89184 19.0786 6.95834 19.0786 6.95834 19.0117C7.35737 18.6767 7.49038 18.0738 7.22436 17.6049L7.02485 17.203C6.2933 15.7963 4.76369 12.8489 4.76369 10.7723C4.69719 7.75789 6.16029 4.47555 10.3501 4.47555C14.5399 4.47555 16.003 7.75789 16.003 10.8393C16.003 12.9159 14.5399 15.6623 13.7418 17.203C13.6088 17.404 13.5423 17.6049 13.4758 17.7389C13.2098 18.2078 13.3428 18.8107 13.8083 19.2126L15.4709 20.3514C15.6705 20.5524 15.9365 20.6193 16.2025 20.6193C16.6015 20.6193 16.934 20.4184 17.1336 20.0834L19.0622 18.1408L19.1287 18.0738C19.3282 17.7389 19.3947 17.27 19.1952 16.8681L18.7297 16.1312ZM17.6656 7.82488C17.8651 7.82488 17.9981 7.95885 17.9981 8.15981C17.9981 8.36077 17.8651 8.49475 17.6656 8.49475C17.4661 8.49475 17.3331 8.36077 17.3331 8.15981C17.3331 7.95885 17.5326 7.82488 17.6656 7.82488ZM3.03457 7.82488C3.23409 7.82488 3.36709 7.95885 3.36709 8.15981C3.36709 8.36077 3.16758 8.49475 3.03457 8.49475C2.90156 8.49475 2.70205 8.36077 2.70205 8.15981C2.70205 7.95885 2.83506 7.82488 3.03457 7.82488ZM3.56661 15.0594C3.5001 15.0594 3.4336 15.1264 3.4336 15.1264C3.30059 15.1264 3.23409 15.0594 3.16758 14.9255C2.76855 14.2556 2.10351 12.447 2.10351 10.2364C2.10351 10.0354 2.23652 9.90147 2.43603 9.90147C2.63554 9.90147 2.76855 10.0354 2.76855 10.2364C2.83506 12.38 3.4336 13.9877 3.76612 14.5905C3.83263 14.7915 3.76612 14.9925 3.56661 15.0594ZM7.15786 3.13581C5.82777 3.67171 4.69719 4.60952 3.96564 5.74829C3.89913 5.81528 3.76612 5.88227 3.69962 5.88227C3.63311 5.88227 3.56661 5.81528 3.5001 5.81528C3.36709 5.68131 3.30059 5.48035 3.4336 5.34637C4.29816 4.07363 5.49524 3.13581 6.89184 2.53293C7.09135 2.46595 7.22436 2.53293 7.35737 2.73389C7.42388 2.86787 7.35737 3.06883 7.15786 3.13581ZM10.3501 2.46595C10.1506 2.46595 10.0176 2.33197 10.0176 2.13101C10.0176 1.93005 10.1506 1.79608 10.3501 1.79608C10.5496 1.79608 10.6826 1.93005 10.6826 2.13101C10.6826 2.33197 10.5496 2.46595 10.3501 2.46595ZM13.5423 3.13581C13.3428 3.06883 13.2763 2.86787 13.3428 2.66691C13.4093 2.46595 13.6088 2.39896 13.8083 2.46595C15.2714 3.06883 16.4685 4.07363 17.3331 5.27939C17.4661 5.41336 17.3996 5.61432 17.2666 5.74829C17.2001 5.81528 17.1336 5.81528 17.067 5.81528C16.934 5.81528 16.8675 5.74829 16.801 5.68131C16.003 4.60952 14.8724 3.67171 13.5423 3.13581ZM17.3331 15.1264C17.2666 15.1264 17.2001 15.1264 17.2001 15.0594C17.067 14.9925 17.0005 14.7915 17.067 14.5905C17.3996 13.9877 18.0646 12.313 18.0646 10.2364C18.0646 10.0354 18.1976 9.90147 18.3971 9.90147C18.5967 9.90147 18.7297 10.0354 18.7297 10.2364C18.6632 12.447 17.9981 14.2556 17.6656 14.9255C17.5326 15.0594 17.3996 15.1264 17.3331 15.1264Z" fill="white"/>
</svg>
