<svg width="105" height="100" viewBox="0 0 105 100" fill="none" xmlns="http://www.w3.org/2000/svg">
<path d="M97.6228 63.8127H93.9393V91.6748L97.6228 92.6305L97.867 77.6354L101.062 93.3497L105 94.5418L100.818 75.9704L104.756 63.8325H100.818L97.6228 74.5517V63.8325V63.8127Z" fill="white"/>
<path d="M88.0376 74.9951L91.4769 75.2316V65.9508C91.3955 65.3202 90.0015 63.5665 86.5622 63.5665C82.8075 63.5665 81.7289 65.6256 81.6475 66.8966V86.8966C81.6475 87.9311 82.6345 90.1379 86.5622 90.7094C90.5001 91.2808 91.4769 89.5173 91.4769 88.5714V79.5271L88.0376 78.8178V86.4335C87.7934 86.7488 87.1524 87.3892 86.5622 87.3892C85.972 87.3892 85.331 86.7586 85.0868 86.4335V67.6256C85.0868 67.3892 85.3818 66.9163 86.5622 66.9163C87.7425 66.9163 88.0376 67.3892 88.0376 67.6256V75.0049V74.9951Z" fill="white"/>
<path d="M33.9351 100L35.6547 91.4286H40.3252L33.9351 100V100Z" fill="white"/>
<path d="M67.8699 38.0986L65.6619 36.1971L66.6489 32.3843C68.2261 32.7685 72.225 36.3547 74.026 38.0986H67.8801H67.8699Z" fill="white"/>
<path d="M77.455 42.8572L74.5042 46.4237C77.2617 50.9951 77.1294 57.537 76.7224 60.2365H80.6603C81.8406 52.9951 79.022 45.6355 77.4652 42.8572H77.455Z" fill="white"/>
<path d="M24.8381 60.473L28.2774 55.468C29.2644 43.6552 38.3612 36.739 42.7875 34.7587L45.4941 30.2365C43.9373 30.0001 36.6416 31.1922 29.7528 40.0001C23.4542 48.0592 23.7697 55.872 24.8381 60.473V60.473Z" fill="white"/>
<path d="M61.7241 41.1921L70.8209 0L30.74 58.0985H43.2761V60H61.7139L74.2602 41.1921H61.7139H61.7241Z" fill="white"/>
<path d="M66.3945 68.8078C66.5879 65.0049 65.0005 63.8916 64.1865 63.8127H56.5549V87.3792H65.1633C65.5703 87.3004 66.3945 85.9014 66.3945 80.9556C66.3945 76.0098 64.9191 74.128 64.1865 73.8127C64.8377 73.7339 66.2012 72.6206 66.3945 68.8078V68.8078ZM62.9451 85.3497H59.2718V75.4384H62.9451V85.3497ZM62.9451 71.8127H59.2718V65.8423H62.9451V71.8127Z" fill="white"/>
<path d="M7.37717 63.8127H0V94.5319L3.6835 93.3398V75.4876H7.12278V71.4384H3.6835V67.3891H7.36699V63.8226L7.37717 63.8127Z" fill="white"/>
<path d="M9.09672 92.3842V63.8127H12.536V87.6255H16.2195V90.9556L9.08655 92.3842H9.09672Z" fill="white"/>
<path d="M40.5796 65.9508V71.4286H37.1403V67.6158C35.9599 66.0887 34.6778 66.9853 34.1894 67.6158V72.3744L40.5796 76.1873V86.1872C36.4483 90.3744 32.134 87.9311 30.4957 86.1872V78.5715H33.935V84.2858C35.1154 85.6158 36.3975 84.8375 36.8859 84.2858V78.0986L30.7399 73.34V65.9607C31.1368 64.4336 32.541 63.5764 33.2024 63.34H37.8729C39.2466 63.34 40.2539 65.0838 40.5796 65.9607V65.9508Z" fill="white"/>
<path d="M46.7254 63.8127H43.0419V87.3891H46.7254V74.532H49.9204V87.3891H53.3597V63.8127H49.9204V71.665H46.7254V63.8127V63.8127Z" fill="white"/>
<path d="M23.1288 63.5665C19.9744 63.5665 18.5295 65.6355 18.2039 66.67L17.9597 90L21.399 89.7636V83.8128H24.6043V89.2808L28.0435 89.0443V66.67C27.7179 65.6355 26.273 63.5665 23.1288 63.5665V63.5665ZM24.8383 81.6453H21.165V68.4237C21.165 67.4483 21.9892 66.6503 22.9965 66.6503C24.0039 66.6503 24.8383 67.4483 24.8383 68.4237V81.6453Z" fill="white"/>
<path d="M74.016 63.5665C70.8718 63.5665 69.4269 65.6355 69.1013 66.67L68.8571 88.0985H72.2963V83.8128H75.4914V88.8079L78.9307 89.0444V66.67C78.6051 65.6355 77.1602 63.5665 74.016 63.5665V63.5665ZM75.7356 81.6453H72.0521V68.4237C72.0521 67.4483 72.8763 66.6503 73.8939 66.6503C74.9114 66.6503 75.7356 67.4483 75.7356 68.4237V81.6453Z" fill="white"/>
</svg>
