<svg width="804" height="772" viewBox="0 0 804 772" fill="none" xmlns="http://www.w3.org/2000/svg">
<path d="M621.893 285C603.343 301.53 582.023 319.15 558.893 337H289.463L370.103 87.67L382.053 50.74L398.463 0L414.683 50.7L426.483 87.58L473.963 236L401.463 164.5L359.963 285H621.893Z" fill="white"/>
<path d="M803.543 311.32L765.273 339.95L734.003 363.35L595.043 467.32L619.763 422.22C644.373 405.46 667.483 389.07 687.853 373.93C715.543 352.71 740.983 331.74 763.833 311.32H803.543Z" fill="white"/>
<path d="M181.243 638.63C189.723 635.19 198.463 631.57 207.403 627.79L126.673 758.44L181.243 638.63Z" fill="white"/>
<path d="M308.963 437L263.743 510.18C248.053 516.82 232.453 523.09 217.143 528.95L249.463 458L11.4629 284.5H258.963L170.463 334.5L308.963 437Z" fill="white"/>
<path d="M451.543 616.82L552.543 622.82L511.543 524.82L167.043 771.32L420.743 544.34C427.913 540.5 434.943 536.66 441.823 532.84C474.373 514.75 509.323 493.81 543.843 472L666.043 771.32L451.543 616.82Z" fill="white"/>
<path d="M786.143 175.37C774.333 154.1 743.833 145.72 695.503 150.44C652.253 154.67 596.083 169.49 532.903 193.31C546.153 202.74 571.043 226.46 581.943 238.48C622.463 230.72 650.363 233.52 657.483 246.34C664.603 259.16 652.223 284.33 624.243 314.63C581.923 356.61 504.803 415.25 430.873 456.32C356.933 497.4 266.403 531.89 208.403 545.64C167.883 553.4 139.993 550.61 132.873 537.78C125.753 524.96 138.123 499.8 166.113 469.5C161.663 453.9 155.063 420.01 154.063 403.77C100.463 444.83 58.203 484.7 31.763 519.18C2.22296 557.73 -6.77704 588.04 5.03296 609.31C10.833 619.75 21.143 627.09 35.853 631.29C51.093 635.65 71.083 636.64 95.673 634.24C138.903 630.02 195.073 615.2 258.243 591.39C316.053 568.64 393.753 532.61 454.493 498.87C515.233 465.12 587.253 417.98 637.103 380.92C690.713 339.85 732.963 299.99 759.403 265.51C788.943 226.96 797.943 196.64 786.123 175.38L786.143 175.37Z" fill="#E5261E"/>
</svg>
