<svg width="20" height="20" viewBox="0 0 20 20" fill="none" xmlns="http://www.w3.org/2000/svg">
<path d="M10.8333 10.0004C11.2933 10.0004 11.6667 9.62709 11.6667 9.16708C11.6667 8.70707 11.2933 8.33374 10.8333 8.33374C10.3733 8.33374 10 8.70707 10 9.16708C10 9.62709 10.3733 10.0004 10.8333 10.0004Z" fill="white"/>
<path d="M10.8333 11.6672C10.3733 11.6672 10 12.0406 10 12.5006C10 12.9606 10.3733 13.3339 10.8333 13.3339C11.2933 13.3339 11.6667 12.9606 11.6667 12.5006C11.6667 12.0406 11.2933 11.6672 10.8333 11.6672Z" fill="white"/>
<path d="M10.8334 5.83374C8.07224 5.83374 5.83325 8.07273 5.83325 10.8338C5.83325 13.5949 8.07224 15.8339 10.8334 15.8339C13.5945 15.8339 15.8334 13.5949 15.8334 10.8338C15.8334 8.07273 13.5945 5.83374 10.8334 5.83374ZM10.8334 14.1673C8.99273 14.1673 7.49996 12.6745 7.49996 10.8339C7.49996 8.99326 8.99273 7.50049 10.8334 7.50049C12.674 7.50049 14.1667 8.99326 14.1667 10.8339C14.1667 12.6745 12.674 14.1673 10.8334 14.1673Z" fill="white"/>
<path d="M11.9952 1.73225V1.31564C11.9952 0.55758 11.3587 -0.0343845 10.6078 0.0015537C4.87263 0.281715 0.280979 4.87364 0.00175437 10.6078C-0.0365276 11.3574 0.556453 11.995 1.31494 11.995H1.73151C2.30617 16.5214 6.17086 20.0008 10.8281 20.0008C15.8936 20.0008 20 15.8941 20 10.8281C20 6.17074 16.5215 2.30656 11.9952 1.73225ZM10.3282 1.69073V3.36709C10.1248 3.38842 9.92386 3.41783 9.72554 3.4542C7.34577 3.89026 5.35077 5.39072 4.24821 7.44908C3.78081 8.32152 3.47374 9.29412 3.36549 10.3283H1.69093C2.08871 5.73866 5.73972 2.08808 10.3282 1.69073ZM10.8282 18.3341C7.09049 18.3341 3.97578 15.5949 3.41417 11.9956H3.69054C4.16738 11.9956 4.59278 11.7403 4.82275 11.3524C4.92451 11.1812 4.98826 10.9842 5.00103 10.7718C5.0733 9.5885 5.47503 8.49875 6.11602 7.5917C7.00295 6.33684 8.34809 5.43193 9.91496 5.11462C10.194 5.05818 10.4801 5.02036 10.7718 5.00251C10.9667 4.99079 11.1488 4.93622 11.3098 4.84856C11.3126 4.84704 11.3153 4.84536 11.3181 4.8438C11.3331 4.83552 11.348 4.82712 11.3625 4.81825C11.3724 4.81227 11.3819 4.80587 11.3916 4.79966C11.399 4.79493 11.4065 4.7904 11.4137 4.78555C11.426 4.77727 11.438 4.76856 11.4501 4.75985C11.4544 4.75669 11.4589 4.75376 11.4632 4.75055C11.4756 4.74137 11.4876 4.7318 11.4996 4.72223C11.5033 4.71922 11.5073 4.71637 11.511 4.71329C11.5211 4.70504 11.5308 4.69645 11.5406 4.68794C11.546 4.68321 11.5516 4.67868 11.557 4.67387C11.5627 4.66872 11.5682 4.66333 11.5738 4.65805C11.834 4.41605 11.9952 4.06984 11.9952 3.69155V3.41479C15.5946 3.97577 18.3333 7.09009 18.3333 10.8281C18.3333 14.9736 14.9731 18.3341 10.8282 18.3341Z" fill="white"/>
<path d="M9.16659 10.0005C8.70658 10.0005 8.33325 10.3738 8.33325 10.8338C8.33325 11.2938 8.70658 11.6672 9.16659 11.6672C9.6266 11.6672 9.99992 11.2938 9.99992 10.8338C9.99992 10.3738 9.6266 10.0005 9.16659 10.0005Z" fill="white"/>
<path d="M12.5 10.0005C12.04 10.0005 11.6666 10.3738 11.6666 10.8338C11.6666 11.2938 12.04 11.6672 12.5 11.6672C12.96 11.6672 13.3333 11.2938 13.3333 10.8338C13.3333 10.3738 12.96 10.0005 12.5 10.0005Z" fill="white"/>
</svg>
