<svg viewBox="0 0 24 20" fill="none" xmlns="http://www.w3.org/2000/svg">
<path d="M23.5295 7.02345C23.3692 6.12605 21.0808 5.72288 17.7684 5.85588C18.0644 6.6706 18.32 7.60155 18.3307 7.64288C18.3896 7.85435 18.2687 8.07301 18.0585 8.13531C16.175 8.70323 13.9789 9.21003 11.7089 9.59523C9.54016 9.96485 7.37976 10.2117 5.46715 10.3105C5.45881 10.3105 5.45225 10.3105 5.44392 10.3105C5.34623 10.3105 5.24974 10.2728 5.17647 10.2057C5.09725 10.1344 5.05198 10.0343 5.04603 9.92831C5.04483 9.88458 4.99956 8.96262 4.98884 8.21739C2.11665 9.20344 0.318992 10.3015 0.470286 11.1534C0.718074 12.5444 6.07887 12.7517 12.4451 11.6117C18.8143 10.4729 23.7772 8.41867 23.5295 7.02345Z" fill="white"/>
<path d="M5.78397 7.97244C5.78636 8.4451 5.80959 9.07831 5.82686 9.48388C7.61022 9.37605 9.58776 9.14301 11.5772 8.80035C13.6643 8.4469 15.6848 7.98981 17.4503 7.47702C17.3347 7.08283 17.1417 6.45561 16.944 5.93503C16.9392 5.92245 16.9404 5.90867 16.9368 5.89549C16.9309 5.89668 16.9243 5.89669 16.9184 5.89669C16.4019 4.46073 15.5609 2.3718 14.774 1.54089C14.774 1.54089 14.238 0.73815 12.7721 0.547049C12.7721 0.547049 12.6357 0.522486 12.3438 0.523684C11.7565 0.586586 10.5253 0.992752 9.4037 1.50016C9.3501 1.52472 9.29411 1.5355 9.2399 1.5355C9.08742 1.5355 8.94208 1.44804 8.87596 1.29768C8.78423 1.09579 8.87477 0.857962 9.07729 0.766904C9.58597 0.536265 10.1965 0.293645 10.7773 0.0977511C8.92183 -0.277263 7.8038 0.547647 7.8038 0.547647C6.50649 1.25993 6.29623 2.20466 6.29623 2.20466C5.82626 3.35606 5.76432 6.21599 5.77266 7.91733C5.77683 7.9347 5.78397 7.95147 5.78397 7.97244Z" fill="white"/>
<path d="M20.259 15.8762C20.1521 16.0993 19.9742 16.2744 19.9038 16.4847C19.8233 16.7232 19.8085 17.0128 19.7614 17.2711C19.627 17.9999 19.4877 18.7963 19.0156 19.235C18.6223 19.5986 17.6483 19.8904 16.9532 19.9495C14.4663 20.1518 13.4352 18.9065 12.8354 17.1992C12.6533 16.6844 12.5866 16.144 11.9122 16.1988C11.3712 16.243 11.3469 16.6865 11.1293 17.3413C10.6635 18.7559 9.79485 19.8446 8.00566 19.9836C6.95384 20.064 5.667 19.8494 5.12812 19.341C4.62948 18.8671 4.45003 17.9126 4.27693 17.0549C4.21341 16.7419 4.13983 16.6077 3.99267 16.3777C3.92333 16.268 3.87039 16.1765 3.81534 16.0556C3.61895 15.6201 3.3511 15.1692 3.56549 14.5554C5.86603 14.1837 7.91884 14.1891 9.99442 14.5905C10.6566 14.7183 11.3289 14.9323 11.9837 14.9477C12.7476 14.9664 13.6718 14.6703 14.3986 14.5191C16.3027 14.1252 18.3851 13.9538 20.4729 14.4121C20.6936 14.9685 20.493 15.3853 20.259 15.8762Z" fill="white"/>
</svg>