<svg viewBox="0 0 16 16" fill="none" xmlns="http://www.w3.org/2000/svg">
<path d="M5.5 5.79053C6.575 5.79053 7.58333 6.13219 8.39167 6.71553L12.65 2.45719H8.83333V0.790527H15.5V7.45719H13.8333V3.63219L9.575 7.87386C10.1583 8.70719 10.5 9.70719 10.5 10.7905C10.5 12.1166 9.97322 13.3884 9.03553 14.3261C8.09785 15.2637 6.82608 15.7905 5.5 15.7905C4.17392 15.7905 2.90215 15.2637 1.96447 14.3261C1.02678 13.3884 0.5 12.1166 0.5 10.7905C0.5 9.46444 1.02678 8.19268 1.96447 7.25499C2.90215 6.31731 4.17392 5.79053 5.5 5.79053M5.5 7.45719C4.61594 7.45719 3.7681 7.80838 3.14298 8.4335C2.51786 9.05863 2.16667 9.90647 2.16667 10.7905C2.16667 11.6746 2.51786 12.5224 3.14298 13.1475C3.7681 13.7727 4.61594 14.1239 5.5 14.1239C6.38405 14.1239 7.2319 13.7727 7.85702 13.1475C8.48214 12.5224 8.83333 11.6746 8.83333 10.7905C8.83333 9.90647 8.48214 9.05863 7.85702 8.4335C7.2319 7.80838 6.38405 7.45719 5.5 7.45719V7.45719Z" fill="white"/>
</svg>