<svg id="Layer_1" data-name="Layer 1" xmlns="http://www.w3.org/2000/svg" fill="white" viewBox="0 0 122.88 92.42">
    <defs>
        <style>.cls-1{fill-rule:evenodd;}</style>
    </defs>
    <path class="cls-1"
        d="M0,66.36C.6,63,2.28,60.94,5.61,60.81a14.06,14.06,0,0,1,1.91-8.89,12.48,12.48,0,0,1,2.74-3c3.86-3.14,8.23-3.48,13-4.34,4.61-.84,9.23-1.55,13.85-2.1,5.58-.66,11.16-1.09,16.74-1.25,2.59-.08,2,.06,4-1.52l.07-.05L33.26,15.85c-3.17-3.3-5.68-3.6-9.91-3.56l-2.25,0a7,7,0,0,1-4.56-4.14L15.9,6c-.45-1.49-.63-2.12.44-3.52C18,.26,21.28.16,23.85,0c5.2-.27,9.4,1.09,13.36,6.19L64.26,35A190.46,190.46,0,0,1,90.3,20c4-2,9.1-3,15.11-3.12h17.47V84H58.69c4.53-20.84-8.94-29.32-21.31-28.11C21.46,57.45,17.27,70.22,20,84.25H6.22C2.29,84.41.46,81.27,0,76V66.36Zm41.34,2.69v5.7H47a7.77,7.77,0,0,0-5.69-5.7ZM47,78.46H41.34v5.7A7.79,7.79,0,0,0,47,78.46Zm-9.4,5.7v-5.7h-5.7a7.8,7.8,0,0,0,5.7,5.7Zm-5.7-9.41h5.7v-5.7a7.79,7.79,0,0,0-5.7,5.7Zm7.55-14A15.82,15.82,0,1,1,23.66,76.6,15.82,15.82,0,0,1,39.48,60.78ZM68.22,38v6.81h44.1l3.22-23.7H103.45c-7.52.88-8.74,1.13-15.58,4.76-5.63,3-10.76,6.27-16.24,9.85-1.14.74-2.28,1.51-3.41,2.28Z" />
</svg>