<svg width="20" height="21" viewBox="0 0 20 21" fill="none" xmlns="http://www.w3.org/2000/svg">
<path id="Vector" d="M18.192 7.43572L19.3324 8.60442C20.2225 9.51658 20.2225 10.9948 19.3324 11.9069H18.192V17.498C18.192 19.4322 16.6127 20.9959 14.6682 20.9959H12.2767V16.3293C12.2767 15.5556 11.645 14.9284 10.8656 14.9284H9.13445C8.35504 14.9284 7.72331 15.5556 7.72331 16.3293V21H5.33176C3.38324 21 1.80802 19.4322 1.80802 17.502V11.911H0.667624C-0.222541 10.9866 -0.222541 9.53287 0.667624 8.60849L1.80802 7.43979L2.24285 6.99186L8.39196 0.684119C8.81038 0.2484 9.39288 0 10 0C10.6071 0 11.1896 0.2484 11.608 0.684119L17.7572 6.99186L18.192 7.43572Z" fill="white"/>
</svg>
