<svg width="600" height="667" viewBox="0 0 600 667" fill="none" xmlns="http://www.w3.org/2000/svg">
<path d="M0 633.333C0 624.493 3.51189 616.014 9.76311 609.763C16.0143 603.512 24.4928 600 33.3333 600H145L382.033 66.6667H300C291.159 66.6667 282.681 63.1548 276.43 56.9036C270.179 50.6523 266.667 42.1739 266.667 33.3333C266.667 24.4928 270.179 16.0143 276.43 9.76311C282.681 3.51189 291.159 0 300 0H566.667C575.507 0 583.986 3.51189 590.237 9.76311C596.488 16.0143 600 24.4928 600 33.3333C600 42.1739 596.488 50.6523 590.237 56.9036C583.986 63.1548 575.507 66.6667 566.667 66.6667H455L217.967 600H300C308.841 600 317.319 603.512 323.57 609.763C329.821 616.014 333.333 624.493 333.333 633.333C333.333 642.174 329.821 650.652 323.57 656.904C317.319 663.155 308.841 666.667 300 666.667H33.3333C24.4928 666.667 16.0143 663.155 9.76311 656.904C3.51189 650.652 0 642.174 0 633.333Z" fill="black"/>
</svg>
