<svg viewBox="0 0 19 20" fill="none" xmlns="http://www.w3.org/2000/svg">
<path d="M12.2764 2.01057C12.178 1.7635 11.848 1.58125 11.5238 1.45703C11.561 2.20279 10.789 3.39057 10.2363 4.13951C11.0066 3.73013 11.7841 2.99344 12.101 2.64436C12.2828 2.40726 12.3462 2.18829 12.2764 2.01057Z" fill="white"/>
<path d="M0.234636 18.7141C0.220582 18.7236 0.202901 18.7213 0.187034 18.7272L0.00478716 19.5659C-0.0174271 19.677 0.0392416 19.7899 0.142152 19.8361C0.197915 19.861 0.722896 20.0741 2.27245 19.8561C2.40165 19.8379 2.49369 19.7182 2.476 19.5868C2.476 19.5791 2.41027 19.0219 2.65145 18.6592C2.32368 18.4983 1.28414 18.0812 0.234636 18.7141Z" fill="white"/>
<path d="M11.0255 1.3777C10.9875 1.29746 10.8759 1.25484 10.6937 1.25484C10.6769 1.25484 10.6592 1.25303 10.6452 1.25031C10.6416 1.2494 10.3156 1.18457 9.73939 1.18457C9.12555 1.18457 8.47091 1.25529 7.78907 1.39447C7.76414 1.3981 7.61181 1.43301 7.55696 1.59939C7.48352 1.8247 7.50392 2.55278 9.26247 4.42785C9.26428 4.42875 9.26791 4.42875 9.27153 4.42875C9.27335 4.42875 9.27788 4.42875 9.2806 4.42875C9.30961 4.42694 9.35404 4.41968 9.43021 4.39475C10.2154 3.42866 11.2427 1.83694 11.0255 1.3777Z" fill="white"/>
<path d="M6.0203 2.18442C5.9328 2.4723 6.27372 2.83634 6.57384 3.09113C6.58971 3.10427 7.4955 3.89537 8.45615 4.25443C7.3944 3.03537 6.94921 2.14498 7.08386 1.53613C6.59061 1.6735 6.10779 1.89247 6.0203 2.18442Z" fill="white"/>
<path d="M9.11485 9.44588C8.919 8.09897 9.1017 5.06696 9.11213 4.90284C9.08221 4.90103 9.05184 4.90012 9.02191 4.89559C8.71817 4.87882 8.42258 4.84572 8.13833 4.78996C8.17097 5.03522 8.16735 5.38521 8.03724 5.85805C7.87539 6.44605 8.0259 6.88399 8.14876 7.23806C8.19817 7.38086 8.24532 7.51823 8.26663 7.6497C8.31106 7.93712 8.28885 8.26626 8.2757 8.48386C8.27026 8.57227 8.26255 8.64344 8.26618 8.68107C8.29202 8.81073 8.20679 8.9345 8.07577 8.96034C8.06081 8.96396 8.04494 8.96578 8.02953 8.96578C7.91619 8.96578 7.81328 8.881 7.79061 8.76721C7.77656 8.69966 7.78155 8.61715 7.79243 8.45258C7.80739 8.2445 7.82597 7.95934 7.7888 7.7245C7.77474 7.63746 7.73666 7.52503 7.69223 7.39446C7.55487 7.00231 7.3699 6.46237 7.57074 5.73021C7.7353 5.13541 7.66186 4.79721 7.61834 4.67254C5.44724 4.09633 3.96478 2.67644 3.88862 2.60345V2.60254C3.60527 2.72585 3.29201 2.92079 3.01365 3.23406C2.45149 3.87328 2.21938 4.79767 2.3232 5.98273C2.27106 6.35765 1.97684 8.56365 2.22573 9.43908C1.9927 9.76186 1.40833 10.6622 1.65178 11.2838C1.51623 11.6043 1.16126 12.511 1.24195 13.074C1.26779 13.2413 1.17576 13.4462 1.05064 13.7328C0.834391 14.2287 0.507978 14.9749 0.507978 16.2221C0.507978 16.8314 0.348398 17.0635 0.207859 17.2703C0.0165451 17.5464 -0.0913524 17.7717 0.107669 18.2373C1.55703 17.453 2.94474 18.2676 3.00594 18.303C3.02816 18.3161 3.04493 18.3347 3.0608 18.3524C3.08845 18.3379 3.12019 18.3252 3.13787 18.3003C3.17686 18.2454 3.52639 17.7141 3.87094 15.485C3.97385 14.8117 4.09761 14.2732 4.2182 13.8534C4.16698 14.6753 4.089 15.7987 3.9675 17.0631C3.98428 17.0667 3.99924 17.0685 4.01465 17.0749C4.04457 17.0898 6.0035 18.055 9.12029 18.1516C9.05637 16.2344 8.99789 13.3442 9.19645 12.696C9.45849 11.8437 9.31161 10.8145 9.12301 9.51071L9.11485 9.44588ZM7.05165 12.6425C6.95599 12.9335 6.07513 15.4931 5.04512 16.0471C5.00976 16.0666 4.96986 16.0757 4.93178 16.0757C4.84428 16.0757 4.76359 16.0285 4.71825 15.9478C4.65433 15.8304 4.69966 15.6849 4.81663 15.621C5.54698 15.2288 6.34669 13.2268 6.59376 12.4892C6.63547 12.3646 6.77692 12.2952 6.89932 12.3378C7.02626 12.3795 7.09426 12.5146 7.05165 12.6425ZM6.82316 11.0018C6.82135 11.0018 6.81953 11.0018 6.81953 11.0018C4.99797 10.9709 3.87456 6.95199 3.75035 6.49501C3.7168 6.36671 3.79387 6.23479 3.92307 6.19943C4.05318 6.16679 4.1833 6.24204 4.21775 6.37034C4.52331 7.51732 5.59005 10.4995 6.82724 10.5199C6.96098 10.5226 7.06706 10.6318 7.06434 10.7656C7.06253 10.8971 6.95599 11.0018 6.82316 11.0018Z" fill="white"/>
<path d="M6.81076 3.88971C6.49296 3.66168 6.28215 3.47762 6.25812 3.45812C5.66287 2.95536 5.42486 2.47798 5.55497 2.04503C5.8161 1.17913 7.47356 0.94837 7.70023 0.920715C7.70023 0.920715 7.70114 0.919809 7.70295 0.919809C8.40429 0.77655 9.09202 0.70356 9.7385 0.70356C10.2821 0.70356 10.6221 0.757056 10.7168 0.77247C10.8048 0.774283 10.8782 0.788337 10.9499 0.803751C10.958 0.804657 10.9639 0.801937 10.9712 0.803751C11.119 0.828685 12.4214 1.06397 12.7252 1.83376C12.8616 2.18149 12.7764 2.55822 12.4704 2.95581C12.4296 3.00114 12.0266 3.43863 11.4662 3.88971C12.4414 3.53202 13.4832 2.96216 13.9878 2.06724C13.9896 2.06543 13.9914 2.06452 13.9923 2.06271C13.9819 1.92353 13.9447 1.75307 13.8445 1.56538C13.5498 1.01547 12.8689 0.592942 11.8334 0.318211C11.7369 0.283757 9.39304 -0.48422 6.48752 0.497739C5.2807 0.903942 4.62016 1.30108 4.41026 1.74581C4.28786 2.00241 4.33047 2.22727 4.38895 2.40181C4.73441 2.69604 5.61164 3.39329 6.81076 3.88971Z" fill="white"/>
<path d="M18.1821 15.5223C18.1849 15.1284 18.1549 12.9201 17.2373 11.4653C17.241 11.1684 17.2151 10.1211 16.7346 9.48371C16.6675 9.10335 16.3071 6.94675 16.405 5.46475C16.4086 5.43845 16.7432 3.02164 14.4252 2.25684C14.4198 2.2727 14.4166 2.28902 14.4093 2.30489C13.7239 3.52169 12.2337 4.19038 11.04 4.5449C10.8981 5.03316 10.6542 6.16835 10.9303 6.71872C11.2508 7.36202 11.1819 7.7986 11.1216 8.18259C11.0994 8.31723 11.079 8.45415 11.0763 8.60103C11.0731 8.73341 10.9648 8.83723 10.8338 8.83723C10.8338 8.83723 10.8301 8.83723 10.8279 8.83723C10.6941 8.83542 10.5894 8.72434 10.5917 8.59015C10.5958 8.41516 10.6198 8.25921 10.6429 8.10869C10.6996 7.75009 10.749 7.44136 10.4983 6.93406C10.1805 6.30073 10.3664 5.24941 10.501 4.68907C10.2276 4.75661 9.98509 4.80739 9.79287 4.8423C9.72396 4.85953 9.65505 4.87403 9.58614 4.88627C9.58795 4.90033 9.59339 4.91347 9.59249 4.92662C9.59067 4.95972 9.40299 8.07197 9.59067 9.37853L9.59883 9.43928C9.7965 10.8048 9.94927 11.8828 9.65641 12.8381C9.48822 13.3825 9.53491 16.1239 9.60246 18.164C11.181 18.1649 13.0253 17.9373 15.0513 17.2659C15.0604 17.2628 15.0699 17.2637 15.0789 17.2628C15.0418 16.9223 14.9674 16.2269 14.8718 15.3773C14.938 15.5999 15.0481 15.8569 15.2417 16.1747C15.4861 16.575 15.4779 16.7505 15.4693 16.9699C15.4561 17.2687 15.4471 17.6109 15.9512 18.3735C16.3329 18.1327 17.3289 17.6499 18.6835 17.9936C18.7003 17.9296 18.7144 17.8648 18.7384 17.7995C18.7561 17.7828 18.7719 17.7614 18.7878 17.7383C18.9111 17.5434 18.9351 17.1277 18.1821 15.5223ZM13.8612 15.948C13.8168 16.0296 13.7348 16.0759 13.6486 16.0759C13.6105 16.0759 13.5706 16.0664 13.5335 16.0473C12.5048 15.4933 11.6253 12.9337 11.5265 12.6427C11.4848 12.5162 11.5537 12.3797 11.6811 12.338C11.8044 12.2954 11.944 12.3648 11.9875 12.4894C12.2337 13.227 13.0334 15.2299 13.7638 15.6212C13.8807 15.6851 13.9252 15.8306 13.8612 15.948ZM14.8291 6.66885C14.7067 7.12628 13.5815 11.1452 11.7618 11.1761H11.7572C11.6253 11.1761 11.5174 11.0682 11.5156 10.9385C11.5138 10.8034 11.6194 10.6946 11.7518 10.6928C12.989 10.671 14.0557 7.69025 14.3613 6.54237C14.3948 6.41588 14.5259 6.33881 14.656 6.37236C14.7874 6.40681 14.8627 6.53783 14.8291 6.66885Z" fill="white"/>
<path d="M9.62109 18.6614C9.63333 18.9874 9.64512 19.2857 9.65645 19.5414C11.1031 19.5024 12.8412 19.3025 14.9171 18.8206C15.0269 18.7947 15.1048 18.6977 15.1048 18.5844V17.7529C13.0602 18.4198 11.2069 18.6551 9.62109 18.6614Z" fill="white"/>
<path d="M3.87918 17.543L3.74816 18.1949C3.72958 18.2878 3.76947 18.3844 3.84836 18.4402C3.93948 18.5041 5.53074 19.5558 9.17432 19.5472C9.1648 19.3301 9.1503 19.0272 9.13806 18.6514C6.21666 18.5757 4.29355 17.7424 3.87918 17.543Z" fill="white"/>
<path d="M18.6225 18.4755C17.4252 18.1518 16.5425 18.5748 16.2192 18.7752C16.3335 18.9855 16.4504 19.3015 16.4087 19.6887C16.3965 19.8147 16.4858 19.9308 16.6105 19.9516C16.6345 19.9562 16.9197 20.0001 17.2941 20.0001C17.713 20.0001 18.2471 19.9448 18.6596 19.7141C18.7648 19.6547 18.811 19.5286 18.7675 19.4167C18.7671 19.4094 18.6147 18.9901 18.6225 18.4755Z" fill="white"/>
</svg>