<svg width="22" height="20" viewBox="0 0 22 20" fill="none" xmlns="http://www.w3.org/2000/svg">
<path d="M10.2435 0.415503H18.844H18.8442C19.9262 0.415503 20.8345 1.33622 20.8345 2.50137V16.6324C20.8345 17.7975 19.9262 18.7182 18.8442 18.7182H10.2437C9.16176 18.7182 8.2535 17.7975 8.2535 16.6324V11.6991H8.94521V16.6324C8.94521 17.3534 9.50882 17.9737 10.2435 17.9737H18.8437C19.5784 17.9737 20.142 17.3534 20.142 16.6324V2.50137C20.142 1.78028 19.5784 1.16007 18.8437 1.16007H10.2432C9.50856 1.16007 8.94496 1.78028 8.94496 2.50137V6.74907H8.25324V2.50137C8.25324 1.33622 9.16151 0.415503 10.2435 0.415503Z" fill="white" stroke="white" stroke-width="0.83125"/>
<path d="M3.46731 9.58992H2.48476L3.16906 10.295L6.52275 13.7506L6.52278 13.7506C6.69366 13.9267 6.69503 14.222 6.52502 14.4001L6.52493 14.4002C6.44402 14.4849 6.34011 14.5291 6.2288 14.5296H6.22878H6.22877H6.22876H6.22874H6.22873H6.22872H6.2287H6.22869H6.22868H6.22867H6.22865H6.22864H6.22863H6.22861H6.2286H6.22859H6.22857H6.22856H6.22855H6.22853H6.22852H6.2285H6.22849H6.22848H6.22846H6.22845H6.22844H6.22842H6.22841H6.2284H6.22838H6.22837H6.22836H6.22834H6.22833H6.22832H6.2283H6.22829H6.22828H6.22826H6.22825H6.22824H6.22822H6.22821H6.2282H6.22818H6.22817H6.22816H6.22814H6.22813H6.22811H6.2281H6.22809H6.22807H6.22806H6.22805H6.22803H6.22802H6.22801H6.22799H6.22798H6.22797H6.22795H6.22794H6.22793H6.22791H6.2279H6.22789H6.22787H6.22786H6.22785H6.22783H6.22782H6.22781H6.22779H6.22778H6.22776H6.22775H6.22774H6.22772H6.22771H6.2277H6.22768H6.22767H6.22766H6.22764H6.22763H6.22762H6.2276H6.22759H6.22758H6.22756H6.22755H6.22754H6.22752H6.22751H6.2275H6.22748H6.22747H6.22746H6.22744H6.22743H6.22742H6.2274H6.22739H6.22738H6.22737H6.22735H6.22734H6.22733H6.22731H6.2273H6.22729H6.22727H6.22726H6.22725H6.22723H6.22722H6.22721H6.22719H6.22718H6.22717H6.22716H6.22714H6.22713H6.22712H6.2271H6.22709H6.22708H6.22706H6.22705H6.22704H6.22703H6.22701H6.227H6.22699H6.22697H6.22696H6.22695H6.22694H6.22692H6.22691H6.2269H6.22688H6.22687H6.22686H6.22685H6.22683H6.22682H6.22681H6.2268H6.22678H6.22677H6.22676H6.22675H6.22673H6.22672H6.22671H6.2267H6.22668H6.22667H6.22666H6.22665H6.22663H6.22662H6.22661H6.2266H6.22658H6.22657H6.22656H6.22655H6.22654H6.22652H6.22651H6.2265H6.22649H6.22648H6.22646H6.22645H6.22644C6.1152 14.5296 6.01159 14.4864 5.93052 14.4027L5.93039 14.4026L1.29453 9.62564L1.29449 9.6256C1.12361 9.44956 1.12224 9.15417 1.29225 8.97615L5.89176 4.1617L5.89191 4.16153C5.97278 4.07679 6.07665 4.03268 6.18791 4.03214H6.18792H6.18793H6.18793H6.18794H6.18795H6.18795H6.18796H6.18797H6.18797H6.18798H6.18799H6.18799H6.188H6.18801H6.18801H6.18802H6.18803H6.18803H6.18804H6.18805H6.18805H6.18806H6.18807H6.18807H6.18808H6.18809H6.18809H6.1881H6.18811H6.18811H6.18812H6.18813H6.18813H6.18814H6.18815H6.18815H6.18816H6.18817H6.18817H6.18818H6.18819H6.18819H6.1882H6.18821H6.18821H6.18822H6.18823H6.18823H6.18824H6.18825H6.18825H6.18826H6.18827H6.18827H6.18828H6.18829H6.18829H6.1883H6.18831H6.18831H6.18832H6.18833H6.18833H6.18834H6.18835H6.18835H6.18836H6.18837H6.18837H6.18838H6.18839H6.18839H6.1884H6.18841H6.18841H6.18842H6.18843H6.18843H6.18844H6.18845H6.18845H6.18846H6.18847H6.18847H6.18848H6.18849H6.18849H6.1885H6.18851H6.18851H6.18852H6.18853H6.18853H6.18854H6.18855H6.18855H6.18856H6.18857H6.18857H6.18858H6.18859H6.18859H6.1886H6.18861H6.18861H6.18862H6.18863H6.18864H6.18864H6.18865H6.18866H6.18866H6.18867H6.18868H6.18868H6.18869H6.1887H6.1887H6.18871H6.18872H6.18872H6.18873H6.18874H6.18874H6.18875H6.18876H6.18876H6.18877H6.18878H6.18878H6.18879H6.1888H6.1888H6.18881H6.18882H6.18882H6.18883H6.18884H6.18884H6.18885H6.18886H6.18886H6.18887H6.18888H6.18888H6.18889H6.1889H6.1889H6.18891H6.18892H6.18892H6.18893H6.18894H6.18894H6.18895H6.18896H6.18897H6.18897H6.18898H6.18899H6.18899H6.189H6.18901H6.18901H6.18902H6.18903H6.18903H6.18904H6.18905H6.18905H6.18906H6.18907H6.18907H6.18908H6.18909H6.18909H6.1891H6.18911H6.18911H6.18912H6.18913H6.18913H6.18914H6.18915H6.18915H6.18916H6.18917H6.18917H6.18918H6.18919H6.18919H6.1892H6.18921H6.18921H6.18922H6.18923H6.18923H6.18924H6.18925H6.18925H6.18926H6.18927H6.18927H6.18928H6.18929H6.18929H6.1893H6.18931H6.18931H6.18932H6.18933H6.18933H6.18934H6.18935H6.18935H6.18936H6.18937H6.18937H6.18938H6.18939H6.18939H6.1894H6.18941H6.18941H6.18942H6.18943H6.18943H6.18944H6.18945H6.18945H6.18946H6.18947H6.18947H6.18948H6.18949H6.18949H6.1895H6.18951H6.18951H6.18952H6.18953H6.18953H6.18954H6.18954H6.18955H6.18956H6.18956H6.18957H6.18958H6.18958H6.18959H6.1896H6.1896H6.18961H6.18962H6.18962H6.18963H6.18964H6.18964H6.18965H6.18966H6.18966H6.18967H6.18968H6.18968H6.18969H6.1897H6.1897H6.18971H6.18971H6.18972H6.18973H6.18973H6.18974H6.18975H6.18975H6.18976H6.18977H6.18977H6.18978H6.18979H6.18979H6.1898H6.18981H6.18981H6.18982H6.18982H6.18983H6.18984H6.18984H6.18985H6.18986H6.18986H6.18987H6.18988H6.18988H6.18989H6.1899H6.1899H6.18991H6.18991H6.18992H6.18993H6.18993H6.18994H6.18995H6.18995H6.18996H6.18997H6.18997H6.18998H6.18998H6.18999H6.19H6.19H6.19001H6.19002H6.19002H6.19003H6.19003H6.19004H6.19005H6.19005H6.19006H6.19007H6.19007H6.19008H6.19008H6.19009H6.1901H6.1901H6.19011H6.19012H6.19012H6.19013H6.19014H6.19014H6.19015H6.19015H6.19016H6.19017H6.19017H6.19018H6.19018H6.19019H6.1902H6.1902H6.19021H6.19022H6.19022H6.19023H6.19023H6.19024H6.19025H6.19025H6.19026H6.19026H6.19027H6.19028H6.19028H6.19029H6.1903H6.1903H6.19031H6.19031H6.19032H6.19033H6.19033H6.19034H6.19034H6.19035H6.19036H6.19036H6.19037H6.19037H6.19038H6.19039H6.19039H6.1904C6.30164 4.03214 6.40524 4.07535 6.48632 4.15896L6.48648 4.15913C6.65736 4.33517 6.65873 4.63055 6.48873 4.80857L3.34878 8.09545L2.67747 8.79817H3.64931H14.3297C14.521 8.79817 14.6999 8.96332 14.6999 9.19404C14.6999 9.42477 14.521 9.58992 14.3297 9.58992H3.46731Z" fill="white" stroke="white" stroke-width="0.83125"/>
</svg>
