<svg width="27" height="26" viewBox="0 0 27 26" fill="none" xmlns="http://www.w3.org/2000/svg">
<path d="M13.5 0C13.8841 0 14.2286 0.220409 14.3639 0.553091L15.1593 2.51432C15.5032 3.36109 15.0387 4.30536 14.1222 4.62327C13.922 4.69232 13.7118 4.72747 13.5 4.72727C12.5209 4.72727 11.7273 3.99395 11.7273 3.08927C11.7273 2.89309 11.7657 2.69809 11.8401 2.51432L12.6361 0.553091C12.7708 0.220409 13.1147 0 13.5 0ZM13.5 26C13.1153 26 12.7708 25.7796 12.6361 25.4469L11.8401 23.4857C11.7658 23.3031 11.7275 23.1079 11.7273 22.9107C11.7273 22.0066 12.5209 21.2727 13.5 21.2727C13.7127 21.2727 13.9231 21.3082 14.1222 21.3767C15.0387 21.6946 15.5032 22.6389 15.1593 23.4863L14.3639 25.4469C14.2286 25.7796 13.8841 26 13.5 26ZM26.5 13C26.5 13.3841 26.2796 13.7286 25.9469 13.8639L23.9857 14.6593C23.1389 15.0032 22.1946 14.5387 21.8767 13.6222C21.8077 13.422 21.7725 13.2118 21.7727 13C21.7727 12.0209 22.506 11.2273 23.4107 11.2273C23.6069 11.2273 23.8019 11.2657 23.9857 11.3401L25.9469 12.1361C26.2796 12.2708 26.5 12.6147 26.5 13ZM0.5 13C0.5 12.6153 0.720409 12.2708 1.05309 12.1361L3.01432 11.3401C3.1975 11.2657 3.3925 11.2273 3.58927 11.2273C4.49336 11.2273 5.22727 12.0209 5.22727 13C5.22727 13.2127 5.19182 13.4231 5.12327 13.6222C4.80536 14.5387 3.86109 15.0032 3.01373 14.6593L1.05309 13.8639C0.720409 13.7286 0.5 13.3841 0.5 13ZM4.30723 3.80782C4.57905 3.536 4.9785 3.44855 5.30941 3.588L7.25882 4.41173C8.10086 4.76804 8.44004 5.76373 8.01636 6.6365C7.92372 6.82707 7.79989 7.00082 7.65 7.15059C6.95805 7.84255 5.87845 7.88509 5.23909 7.24514C5.09961 7.10568 4.98844 6.94053 4.91173 6.75882L4.088 4.81C3.94795 4.47909 4.03541 4.07964 4.30723 3.80782ZM22.6922 22.1928C22.4204 22.4646 22.0209 22.552 21.69 22.412L19.7412 21.5883C19.5593 21.5118 19.394 21.4008 19.2543 21.2615C18.6149 20.6215 18.6575 19.542 19.3494 18.85C19.4992 18.7001 19.6729 18.5763 19.8635 18.4836C20.7363 18.06 21.732 18.3991 22.0883 19.2412L22.912 21.1906C23.0515 21.5215 22.964 21.9204 22.6922 22.1928ZM22.6922 3.80723C22.964 4.07905 23.0515 4.4785 22.912 4.80941L22.0883 6.75882C21.732 7.60086 20.7363 7.94004 19.8635 7.51636C19.6729 7.42372 19.4992 7.29989 19.3494 7.15C18.6575 6.45805 18.6149 5.37845 19.2549 4.73909C19.3931 4.59964 19.558 4.48914 19.7412 4.41173L21.69 3.588C22.0209 3.44795 22.4204 3.53541 22.6922 3.80723ZM4.30723 22.1922C4.03541 21.9204 3.94795 21.5209 4.088 21.19L4.91173 19.2412C4.98854 19.058 5.09964 18.8931 5.2385 18.7543C5.87845 18.1149 6.95805 18.1575 7.65 18.8494C7.80068 19.0001 7.92477 19.1744 8.01636 19.3635C8.44004 20.2363 8.10086 21.232 7.25882 21.5883L5.30941 22.412C4.9785 22.5515 4.57964 22.464 4.30723 22.1922ZM13.5 19.5C9.91023 19.5 7 16.5898 7 13C7 9.41023 9.91023 6.5 13.5 6.5C17.0898 6.5 20 9.41023 20 13C20 16.5898 17.0898 19.5 13.5 19.5Z" fill="white"/>
</svg>
