<svg width="61" height="80" viewBox="0 0 61 80" fill="none" xmlns="http://www.w3.org/2000/svg">
<path d="M53.3333 26.6667H49.5238V19.0476C49.5238 8.53333 40.9905 0 30.4762 0C19.9619 0 11.4286 8.53333 11.4286 19.0476V26.6667H7.61905C3.40952 26.6667 0 30.0762 0 34.2857V72.381C0 76.5905 3.40952 80 7.61905 80H53.3333C57.5429 80 60.9524 76.5905 60.9524 72.381V34.2857C60.9524 30.0762 57.5429 26.6667 53.3333 26.6667ZM30.4762 60.9524C26.2667 60.9524 22.8571 57.5429 22.8571 53.3333C22.8571 49.1238 26.2667 45.7143 30.4762 45.7143C34.6857 45.7143 38.0952 49.1238 38.0952 53.3333C38.0952 57.5429 34.6857 60.9524 30.4762 60.9524ZM42.2857 26.6667H18.6667V19.0476C18.6667 12.5333 23.9619 7.2381 30.4762 7.2381C36.9905 7.2381 42.2857 12.5333 42.2857 19.0476V26.6667Z" fill="#C7C7C8" fill-opacity="0.7"/>
</svg>
