<svg width="1em" height="1em" viewBox="0 0 21 21" fill="currentColor" xmlns="http://www.w3.org/2000/svg">
<path d="M10.9292 17.4623C9.55434 17.4623 8.43591 16.1836 8.43591 14.6129C8.43591 13.0421 9.55434 11.7634 10.9292 11.7634C12.3041 11.7634 13.4225 13.0421 13.4225 14.6129C13.4225 16.1836 12.3041 17.4623 10.9292 17.4623ZM10.9292 12.4757C9.94614 12.4757 9.14829 13.4339 9.14829 14.6129C9.14829 15.7918 9.94614 16.75 10.9292 16.75C11.9123 16.75 12.7101 15.7918 12.7101 14.6129C12.7101 13.4339 11.9123 12.4757 10.9292 12.4757Z"/>
<path d="M17.6969 18.8871H4.16179C4.06732 18.8871 3.97673 18.8496 3.90993 18.7828C3.84313 18.716 3.8056 18.6254 3.8056 18.5309C3.8056 18.2475 3.69302 17.9757 3.49263 17.7753C3.29224 17.5749 3.02044 17.4624 2.73705 17.4624C2.64258 17.4624 2.55198 17.4248 2.48518 17.358C2.41839 17.2912 2.38086 17.2006 2.38086 17.1062V12.1196C2.38086 12.0251 2.41839 11.9345 2.48518 11.8677C2.55198 11.8009 2.64258 11.7634 2.73705 11.7634C3.02044 11.7634 3.29224 11.6508 3.49263 11.4504C3.69302 11.25 3.8056 10.9782 3.8056 10.6948C3.8056 10.6004 3.84313 10.5098 3.90993 10.443C3.97673 10.3762 4.06732 10.3386 4.16179 10.3386H17.6969C17.7913 10.3386 17.8819 10.3762 17.9487 10.443C18.0155 10.5098 18.053 10.6004 18.053 10.6948C18.053 10.9782 18.1656 11.25 18.366 11.4504C18.5664 11.6508 18.8382 11.7634 19.1216 11.7634C19.2161 11.7634 19.3067 11.8009 19.3735 11.8677C19.4403 11.9345 19.4778 12.0251 19.4778 12.1196V17.1062C19.4778 17.2006 19.4403 17.2912 19.3735 17.358C19.3067 17.4248 19.2161 17.4624 19.1216 17.4624C18.8382 17.4624 18.5664 17.5749 18.366 17.7753C18.1656 17.9757 18.053 18.2475 18.053 18.5309C18.053 18.6254 18.0155 18.716 17.9487 18.7828C17.8819 18.8496 17.7913 18.8871 17.6969 18.8871ZM4.48236 18.1747H17.3763C17.4461 17.8325 17.615 17.5183 17.862 17.2713C18.109 17.0243 18.4232 16.8554 18.7654 16.7856V12.4401C18.4232 12.3703 18.109 12.2014 17.862 11.9544C17.615 11.7074 17.4461 11.3933 17.3763 11.051H4.48236C4.41256 11.3933 4.24365 11.7074 3.99665 11.9544C3.74966 12.2014 3.43549 12.3703 3.09323 12.4401V16.7856C3.43549 16.8554 3.74966 17.0243 3.99665 17.2713C4.24365 17.5183 4.41256 17.8325 4.48236 18.1747Z"/>
<path d="M19.1217 20.3118H2.73711C2.57553 20.3131 2.41467 20.2903 2.25982 20.2442C1.88533 20.14 1.5552 19.9162 1.31982 19.6068C1.08444 19.2975 0.956728 18.9196 0.956177 18.5309V10.6948C0.956177 10.2225 1.14381 9.7695 1.4778 9.43551C1.81179 9.10152 2.26477 8.91389 2.73711 8.91389H8.43608C8.71948 8.91389 8.99127 8.80131 9.19167 8.60092C9.39206 8.40052 9.50464 8.12873 9.50464 7.84533V4.63966H7.72371C7.65489 4.6395 7.58758 4.6194 7.52994 4.5818C7.4723 4.54419 7.42678 4.4907 7.3989 4.42777C7.37102 4.36485 7.36197 4.2952 7.37283 4.22724C7.3837 4.15928 7.41402 4.09592 7.46013 4.04483L10.6658 0.482969C10.6992 0.446239 10.7399 0.416893 10.7853 0.396811C10.8307 0.376729 10.8798 0.366356 10.9294 0.366356C10.979 0.366356 11.0281 0.376729 11.0735 0.396811C11.1189 0.416893 11.1596 0.446239 11.193 0.482969L14.3986 4.04483C14.4447 4.09592 14.4751 4.15928 14.4859 4.22724C14.4968 4.2952 14.4877 4.36485 14.4599 4.42777C14.432 4.4907 14.3865 4.54419 14.3288 4.5818C14.2712 4.6194 14.2039 4.6395 14.1351 4.63966H12.3541V7.84533C12.3541 8.12873 12.4667 8.40052 12.6671 8.60092C12.8675 8.80131 13.1393 8.91389 13.4227 8.91389H19.1217C19.282 8.91288 19.4417 8.93569 19.5954 8.98157C19.9705 9.08509 20.3015 9.30864 20.5375 9.61804C20.7736 9.92744 20.9018 10.3056 20.9026 10.6948V18.5309C20.9026 19.0032 20.715 19.4562 20.381 19.7902C20.047 20.1242 19.594 20.3118 19.1217 20.3118ZM2.73711 9.62626C2.45371 9.62626 2.18192 9.73884 1.98152 9.93924C1.78113 10.1396 1.66855 10.4114 1.66855 10.6948V18.5309C1.66943 18.764 1.74648 18.9903 1.88795 19.1755C2.02942 19.3607 2.22755 19.4946 2.45216 19.5567C2.54454 19.5848 2.64054 19.5992 2.73711 19.5995H19.1217C19.4051 19.5995 19.6769 19.4869 19.8772 19.2865C20.0776 19.0861 20.1902 18.8143 20.1902 18.5309V10.6948C20.1893 10.4618 20.1123 10.2354 19.9708 10.0502C19.8294 9.86502 19.6312 9.73115 19.4066 9.66901C19.3141 9.64142 19.2182 9.62703 19.1217 9.62626H13.4227C12.9504 9.62626 12.4974 9.43863 12.1634 9.10464C11.8294 8.77065 11.6418 8.31766 11.6418 7.84533V4.28347C11.6418 4.18901 11.6793 4.09841 11.7461 4.03161C11.8129 3.96481 11.9035 3.92729 11.9979 3.92729H13.3336L10.9294 1.25233L8.52513 3.92729H9.86083C9.95529 3.92729 10.0459 3.96481 10.1127 4.03161C10.1795 4.09841 10.217 4.18901 10.217 4.28347V7.84533C10.217 8.31766 10.0294 8.77065 9.69539 9.10464C9.3614 9.43863 8.90841 9.62626 8.43608 9.62626H2.73711ZM17.6969 18.8871H4.16185C4.06738 18.8871 3.97679 18.8496 3.90999 18.7828C3.84319 18.716 3.80566 18.6254 3.80566 18.5309C3.80566 18.2475 3.69308 17.9757 3.49269 17.7753C3.2923 17.5749 3.02051 17.4624 2.73711 17.4624C2.64264 17.4624 2.55204 17.4248 2.48525 17.358C2.41845 17.2912 2.38092 17.2006 2.38092 17.1062V12.1196C2.38092 12.0251 2.41845 11.9345 2.48525 11.8677C2.55204 11.8009 2.64264 11.7634 2.73711 11.7634C3.02051 11.7634 3.2923 11.6508 3.49269 11.4504C3.69308 11.25 3.80566 10.9782 3.80566 10.6948C3.80566 10.6004 3.84319 10.5098 3.90999 10.443C3.97679 10.3762 4.06738 10.3386 4.16185 10.3386H17.6969C17.7914 10.3386 17.882 10.3762 17.9488 10.443C18.0156 10.5098 18.0531 10.6004 18.0531 10.6948C18.0531 10.9782 18.1657 11.25 18.3661 11.4504C18.5665 11.6508 18.8383 11.7634 19.1217 11.7634C19.2161 11.7634 19.3067 11.8009 19.3735 11.8677C19.4403 11.9345 19.4778 12.0251 19.4778 12.1196V17.1062C19.4778 17.2006 19.4403 17.2912 19.3735 17.358C19.3067 17.4248 19.2161 17.4624 19.1217 17.4624C18.8383 17.4624 18.5665 17.5749 18.3661 17.7753C18.1657 17.9757 18.0531 18.2475 18.0531 18.5309C18.0531 18.6254 18.0156 18.716 17.9488 18.7828C17.882 18.8496 17.7914 18.8871 17.6969 18.8871ZM4.48242 18.1747H17.3764C17.4461 17.8325 17.6151 17.5183 17.8621 17.2713C18.109 17.0243 18.4232 16.8554 18.7655 16.7856V12.4401C18.4232 12.3703 18.109 12.2014 17.8621 11.9544C17.6151 11.7074 17.4461 11.3933 17.3764 11.051H4.48242C4.41262 11.3933 4.24371 11.7074 3.99672 11.9544C3.74972 12.2014 3.43555 12.3703 3.09329 12.4401V16.7856C3.43555 16.8554 3.74972 17.0243 3.99672 17.2713C4.24371 17.5183 4.41262 17.8325 4.48242 18.1747Z"/>
</svg>
