<svg width="21" height="21" viewBox="0 0 21 21" fill="none" xmlns="http://www.w3.org/2000/svg">
<g id="move">
<g id="Calque 1">
<g id="Frame">
<path id="Vector" d="M21 10.5C21 10.5301 20.998 10.5603 20.996 10.5904C20.992 10.6206 20.9879 10.6527 20.9819 10.6809C20.9779 10.711 20.9699 10.7411 20.9598 10.7713C20.9518 10.8014 20.9417 10.8296 20.9297 10.8597C20.9176 10.8878 20.9056 10.916 20.8895 10.9441C20.8754 10.9722 20.8593 10.9984 20.8433 11.0245C20.8071 11.0788 20.7669 11.129 20.7207 11.1752L17.857 14.0389C17.6701 14.2257 17.427 14.3182 17.1818 14.3182C16.9367 14.3182 16.6935 14.2257 16.5066 14.0389C16.1348 13.6651 16.1348 13.0622 16.5066 12.6884L17.7405 11.4545H11.4545V17.7405L12.6884 16.5066C13.0622 16.1348 13.6651 16.1348 14.0389 16.5066C14.4106 16.8804 14.4106 17.4833 14.0389 17.857L11.1752 20.7207C11.0024 20.8935 10.7633 21 10.5 21C10.2367 21 9.99761 20.8935 9.82478 20.7207L6.96115 17.857C6.58938 17.4833 6.58938 16.8804 6.96115 16.5066C7.33493 16.1348 7.9378 16.1348 8.31158 16.5066L9.54545 17.7405V11.4545H3.25952L4.4934 12.6884C4.86517 13.0622 4.86517 13.6651 4.4934 14.0389C4.30651 14.2257 4.06335 14.3182 3.81818 14.3182C3.57301 14.3182 3.32986 14.2257 3.14297 14.0389L0.27933 11.1752C0.23311 11.129 0.192919 11.0788 0.156746 11.0245C0.14067 10.9984 0.124593 10.9722 0.110526 10.9441C0.0944498 10.916 0.0823923 10.8878 0.0703349 10.8597C0.0582775 10.8296 0.0482297 10.8014 0.0401914 10.7713C0.0301435 10.7411 0.0221053 10.711 0.0180861 10.6809C0.0120574 10.6527 0.00803828 10.6206 0.00401914 10.5904C0.00200957 10.5603 0 10.5301 0 10.5C0 10.4699 0.00200957 10.4397 0.00401914 10.4096C0.00803828 10.3794 0.0120574 10.3473 0.0180861 10.3191C0.0221053 10.289 0.0301435 10.2589 0.0401914 10.2287C0.0482297 10.1986 0.0582775 10.1704 0.0703349 10.1403C0.0823923 10.1122 0.0944498 10.084 0.110526 10.0559C0.124593 10.0278 0.14067 10.0016 0.156746 9.9755C0.192919 9.92124 0.23311 9.87101 0.27933 9.82478L3.14297 6.96115C3.51675 6.58938 4.11962 6.58938 4.4934 6.96115C4.86517 7.33493 4.86517 7.9378 4.4934 8.31158L3.25952 9.54545H9.54545V3.25952L8.31158 4.4934C7.9378 4.86517 7.33493 4.86517 6.96115 4.4934C6.58938 4.11962 6.58938 3.51675 6.96115 3.14297L9.82478 0.27933C9.99761 0.106507 10.2367 0 10.5 0C10.7633 0 11.0024 0.106507 11.1752 0.27933L14.0389 3.14297C14.4106 3.51675 14.4106 4.11962 14.0389 4.4934C13.852 4.68029 13.6088 4.77273 13.3636 4.77273C13.1185 4.77273 12.8753 4.68029 12.6884 4.4934L11.4545 3.25952V9.54545H17.7405L16.5066 8.31158C16.1348 7.9378 16.1348 7.33493 16.5066 6.96115C16.8804 6.58938 17.4833 6.58938 17.857 6.96115L20.7207 9.82478C20.7669 9.87101 20.8071 9.92124 20.8433 9.9755C20.8593 10.0016 20.8754 10.0278 20.8895 10.0559C20.9056 10.084 20.9176 10.1122 20.9297 10.1403C20.9417 10.1704 20.9518 10.1986 20.9598 10.2287C20.9699 10.2589 20.9779 10.289 20.9819 10.3191C20.9879 10.3473 20.992 10.3794 20.996 10.4096C20.998 10.4397 21 10.4699 21 10.5Z" fill="white"/>
</g>
</g>
</g>
</svg>
