<svg width="35" height="33" viewBox="0 0 35 33" fill="none" xmlns="http://www.w3.org/2000/svg">
<path d="M16.5 0C15.3091 0 14.3478 0.961304 14.3478 2.15217V19.3696C13.4439 20.0439 12.913 21.1057 12.913 22.2391C12.913 24.2191 14.52 25.8261 16.5 25.8261C18.48 25.8261 20.087 24.2191 20.087 22.2391C20.087 21.1057 19.5561 20.087 18.6522 19.3696V17.2174H24.3913V14.3478H18.6522V11.4783H24.3913V8.6087H18.6522V5.73913H24.3913V2.86957H18.6522V2.15217C18.6522 0.961304 17.6909 0 16.5 0ZM0 20.087V22.9565C0.961304 22.9565 1.13348 23.2578 1.85087 23.9752C2.56826 24.6926 3.83087 25.8261 5.73913 25.8261C7.64739 25.8261 8.91 24.6926 9.62739 23.9752C9.78522 23.803 9.91435 23.6739 10.0435 23.5448V20.3165C8.91 20.6896 8.10652 21.4213 7.59 21.9378C6.87261 22.6552 6.70044 22.9565 5.73913 22.9565C4.77783 22.9565 4.60565 22.6552 3.88826 21.9378C3.17087 21.2204 1.90826 20.087 0 20.087ZM22.9565 20.087V22.9565C23.9178 22.9565 24.09 23.2578 24.8074 23.9752C25.5248 24.6926 26.7874 25.8261 28.6957 25.8261C30.6039 25.8261 31.8665 24.6926 32.5839 23.9752C33.3013 23.2578 33.4735 22.9565 34.4348 22.9565V20.087C32.5265 20.087 31.2639 21.2204 30.5465 21.9378C29.8291 22.6552 29.657 22.9565 28.6957 22.9565C27.7344 22.9565 27.5622 22.6552 26.8448 21.9378C26.1274 21.2204 24.8648 20.087 22.9565 20.087ZM11.4783 27.2609C9.57 27.2609 8.30739 28.3943 7.59 29.1117C6.87261 29.8291 6.70044 30.1304 5.73913 30.1304C4.77783 30.1304 4.60565 29.8291 3.88826 29.1117C3.37174 28.5952 2.56826 27.8635 1.43478 27.4904V30.7187C1.56391 30.8478 1.69304 30.977 1.85087 31.1491C2.56826 31.8665 3.83087 33 5.73913 33C7.64739 33 8.91 31.8665 9.62739 31.1491C10.3448 30.4317 10.517 30.1304 11.4783 30.1304C12.4396 30.1304 12.6117 30.4317 13.3291 31.1491C13.9604 31.7661 14.9791 32.713 16.5 32.9426C16.7296 33 16.9735 33 17.2174 33C19.1257 33 20.3883 31.8665 21.1057 31.1491C21.823 30.4317 21.9952 30.1304 22.9565 30.1304C23.9178 30.1304 24.09 30.4317 24.8074 31.1491C25.5248 31.8665 26.7874 33 28.6957 33C30.6039 33 31.8665 31.8665 32.5839 31.1491C32.7417 30.977 32.8709 30.8478 33 30.7187V27.4904C31.8665 27.8635 31.063 28.5952 30.5465 29.1117C29.8291 29.8291 29.657 30.1304 28.6957 30.1304C27.7344 30.1304 27.5622 29.8291 26.8448 29.1117C26.1274 28.3943 24.8648 27.2609 22.9565 27.2609C21.0483 27.2609 19.7857 28.3943 19.0683 29.1117C18.3509 29.8291 18.1787 30.1304 17.2174 30.1304C16.9017 30.1304 16.6865 30.0874 16.5 30.0157C16.0983 29.8722 15.8543 29.5996 15.3665 29.1117C14.6491 28.3943 13.3865 27.2609 11.4783 27.2609Z" fill="white"/>
</svg>
