
<svg viewBox="0 0 37 10" fill="none" xmlns="http://www.w3.org/2000/svg">
<path d="M33.9023 0.111668C33.9777 0.544384 34.2094 0.951973 34.7063 1.53265C34.8654 1.7169 35.0134 1.90116 35.0385 1.93745C35.1893 2.17474 35.0553 2.30595 34.5891 2.38412C34.4746 2.40366 34.1926 2.45391 33.9609 2.49579C33.2155 2.63538 33.0704 2.64933 32.3976 2.64933C31.708 2.64654 31.4763 2.61863 30.9961 2.47904C30.6723 2.38691 30.4071 2.27245 30.1112 2.10495C29.9102 1.9877 29.8124 1.9542 29.5416 1.89557C29.1508 1.81182 28.7013 1.6834 27.7494 1.38469C26.0353 0.845888 25.2396 0.706303 23.2128 0.586259C21.3284 0.474591 21.0018 0.477382 20.5216 0.614176C19.9158 0.787262 19.5306 1.05527 18.7377 1.84532C18.4111 2.17195 18.1319 2.43996 18.118 2.43996C18.104 2.43996 17.8779 2.26408 17.6155 2.04912C16.6384 1.24789 16.5267 1.18089 15.946 1.08318C14.8907 0.907306 13.989 0.921265 12.6322 1.1446C11.2224 1.37352 9.92708 1.72528 7.18841 2.62142C4.63958 3.45614 4.07286 3.61247 3.60106 3.62085C3.34422 3.62643 2.85846 3.5706 2.65467 3.51197C2.24708 3.39472 1.88137 3.10159 1.76411 2.79171C1.60778 2.38133 1.74457 1.93466 2.16054 1.49636L2.35875 1.28698L2.23312 1.30652C1.79761 1.37631 1.50169 1.51032 1.22531 1.76436C0.848432 2.11333 0.61672 2.61583 0.496676 3.34726C0.412925 3.86094 0.465967 4.919 0.602761 5.49688C0.622303 5.58901 0.641845 5.70905 0.641845 5.76209C0.641845 5.82072 0.653012 5.84584 0.66697 5.83189C0.680929 5.81514 0.775847 5.57226 0.876349 5.29029C1.34815 3.98098 1.72503 3.58735 2.26383 3.84419C2.35037 3.88606 2.44529 3.91956 2.47879 3.91956C2.57371 3.91956 3.10413 4.10382 3.35539 4.22386C3.76577 4.41928 4.11194 4.64262 5.06671 5.32659C6.44023 6.30927 9.10911 7.72187 11.0549 8.49797C13.0929 9.31036 14.8182 9.74028 16.8617 9.95245C17.3307 9.99991 18.8829 10.0167 19.4049 9.98037C20.999 9.8687 22.3642 9.46669 24.0643 8.60685C25.6975 7.78329 27.1017 6.86761 30.569 4.36624L31.3926 3.7716L31.6578 3.73252C32.0374 3.67668 32.1659 3.64039 32.995 3.34726C33.88 3.03738 34.0977 2.98992 34.5053 3.00388C34.7817 3.01226 34.818 3.02063 35.0106 3.11555C35.1251 3.17138 35.2591 3.26072 35.3093 3.31376C35.3903 3.39751 35.4098 3.44218 35.4461 3.66831C35.4852 3.9056 35.4852 3.97261 35.4433 4.43324C35.3987 4.94691 35.3903 5.42709 35.421 5.70626L35.4405 5.8598L35.6276 5.48292C36.2334 4.25178 36.3367 3.28584 35.943 2.50975C35.8342 2.29479 35.2842 1.52148 34.9464 1.10831C34.6812 0.784471 34.2485 0.315463 34.0586 0.153544L33.8828 -2.18664e-07L33.9023 0.111668ZM20.4351 1.87324C20.2341 1.96536 20.1392 2.00166 20.1643 1.97653C20.1922 1.94582 20.5272 1.79786 20.5607 1.80065C20.5775 1.80065 20.5188 1.83415 20.4351 1.87324Z" fill="white"/>
</svg>