<svg width="16" height="12" viewBox="0 0 16 12" fill="none" xmlns="http://www.w3.org/2000/svg">
<path d="M4.04032 4.25513L7.08795 1.8954V10.1047L4.04032 7.74485H1.23591V4.25513H4.04032ZM0.576835 3.04926C0.258157 3.04926 0 3.30113 0 3.61206V8.388C0 8.69876 0.258157 8.95083 0.576835 8.95083H3.60958C4.86932 9.92618 6.12903 10.9015 7.38872 11.8771C7.7667 12.1696 8.32406 11.907 8.32406 11.4362V0.563866C8.32406 0.0929257 7.7667 -0.169729 7.38872 0.123045C6.12903 1.09839 4.86932 2.07391 3.60958 3.04926H0.576835ZM9.35939 3.14821C9.14059 2.89282 9.17538 2.51241 9.43715 2.29887C9.69914 2.08537 10.0888 2.11934 10.3077 2.37494C11.0743 3.26985 11.8411 4.1648 12.6077 5.05988C13.3744 4.1648 14.1411 3.26985 14.908 2.37494C15.1268 2.11934 15.5165 2.08537 15.7783 2.29887C16.0402 2.51238 16.075 2.89279 15.8562 3.14821C15.0419 4.09885 14.2275 5.04947 13.4132 6.00009C14.2275 6.9507 15.0419 7.90129 15.8562 8.85177C16.075 9.10736 16.0402 9.4876 15.7783 9.7011C15.5165 9.91478 15.1268 9.88077 14.908 9.62518C14.1411 8.73027 13.3744 7.83518 12.6077 6.94027L10.3077 9.62518C10.0888 9.88077 9.69911 9.91478 9.43715 9.7011C9.17538 9.4876 9.14059 9.10733 9.35939 8.85177C10.1737 7.90129 10.9879 6.9507 11.8024 6.00009C10.988 5.04944 10.1737 4.09883 9.35939 3.14821Z" fill="white"/>
</svg>
