<svg width="13" height="15" viewBox="0 0 13 15" fill="none" xmlns="http://www.w3.org/2000/svg">
<path d="M6.13636 0L0 2.72727V6.81818C0 10.6023 2.61818 14.1409 6.13636 15C9.65454 14.1409 12.2727 10.6023 12.2727 6.81818V2.72727L6.13636 0ZM5.96591 4.37727C5.96591 4.20682 6.075 4.09091 6.24545 4.09091C6.41591 4.09091 6.53182 4.20682 6.53182 4.37727V7.78636C6.53182 7.95682 6.41591 8.06591 6.24545 8.06591C6.075 8.06591 5.96591 7.95682 5.96591 7.78636V4.37727ZM6.24545 10.9091C4.68409 10.9091 3.40909 9.62727 3.40909 8.06591C3.40909 6.9 4.09091 5.87727 5.16818 5.45455C5.31136 5.4 5.48182 5.45455 5.53636 5.59773C5.59091 5.74091 5.53636 5.91136 5.39318 5.96591C4.51364 6.30682 3.975 7.13182 3.975 8.06591C3.975 9.32045 4.99773 10.3432 6.24545 10.3432C7.49318 10.3432 8.52273 9.32045 8.52273 8.06591C8.52273 7.13182 7.97727 6.30682 7.125 5.96591C6.98864 5.91136 6.9 5.74091 6.98864 5.59773C7.04318 5.45455 7.21364 5.36591 7.35682 5.45455C8.40682 5.87727 9.08864 6.9 9.08864 8.06591C9.08864 9.62727 7.80682 10.9091 6.24545 10.9091Z" fill="white"/>
</svg>
