<svg width="20" height="15" viewBox="0 0 20 15" fill="none" xmlns="http://www.w3.org/2000/svg">
<path id="Vector" d="M18.5625 6.04878H16.2422V3.62439C16.2422 3.24665 15.935 2.94146 15.5547 2.94146H8.78711L6.26699 0.546951C6.23493 0.517132 6.19275 0.500374 6.14883 0.5H0.6875C0.307227 0.5 0 0.805183 0 1.18293V13.8171C0 14.1948 0.307227 14.5 0.6875 14.5H15.6836C15.9629 14.5 16.2164 14.3314 16.3217 14.0732L19.2006 6.9878C19.2328 6.90671 19.25 6.81921 19.25 6.73171C19.25 6.35396 18.9428 6.04878 18.5625 6.04878ZM14.6953 6.04878H3.73828C3.45898 6.04878 3.20547 6.21738 3.1002 6.47561L1.54688 10.3V2.03659H5.59668L8.16621 4.47805H14.6953V6.04878Z" fill="white"/>
</svg>
