<svg width="9" height="10" viewBox="0 0 9 10" fill="none" xmlns="http://www.w3.org/2000/svg">
<path d="M7.875 4.125H2.01562V1.5C2.01562 1.13789 2.30977 0.84375 2.67188 0.84375H5.57812C5.94023 0.84375 6.23438 1.13789 6.23438 1.5V2.29688C6.23438 2.34844 6.27656 2.39062 6.32812 2.39062H6.98438C7.03594 2.39062 7.07812 2.34844 7.07812 2.29688V1.5C7.07812 0.671484 6.40664 0 5.57812 0H2.67188C1.84336 0 1.17188 0.671484 1.17188 1.5V4.125H0.375C0.167578 4.125 0 4.29258 0 4.5V9C0 9.20742 0.167578 9.375 0.375 9.375H7.875C8.08242 9.375 8.25 9.20742 8.25 9V4.5C8.25 4.29258 8.08242 4.125 7.875 4.125ZM4.45312 6.90234V7.52344C4.45312 7.575 4.41094 7.61719 4.35938 7.61719H3.89062C3.83906 7.61719 3.79688 7.575 3.79688 7.52344V6.90234C3.70014 6.83289 3.62794 6.73454 3.59066 6.62144C3.55338 6.50834 3.55295 6.38633 3.58943 6.27297C3.62591 6.15961 3.69742 6.06075 3.79366 5.99062C3.8899 5.92049 4.00592 5.8827 4.125 5.8827C4.24408 5.8827 4.3601 5.92049 4.45634 5.99062C4.55258 6.06075 4.62409 6.15961 4.66057 6.27297C4.69705 6.38633 4.69662 6.50834 4.65934 6.62144C4.62206 6.73454 4.54986 6.83289 4.45312 6.90234Z" fill="white"/>
</svg>
