<svg width="20" height="20" viewBox="0 0 20 20" fill="none" xmlns="http://www.w3.org/2000/svg">
<path d="M10 0C4.48 0 0 4.48 0 10C0 15.52 4.48 20 10 20C15.52 20 20 15.52 20 10C20 4.48 15.52 0 10 0ZM8.57 12.76C8.57 13.29 8.16 13.71 7.65 13.71C7.14 13.71 6.73 13.28 6.73 12.76V7.12C6.73 6.59 7.14 6.17 7.65 6.17C8.16 6.17 8.57 6.6 8.57 7.12V12.76ZM13.26 12.76C13.26 13.29 12.85 13.71 12.34 13.71C11.83 13.71 11.42 13.28 11.42 12.76V7.12C11.42 6.59 11.83 6.17 12.34 6.17C12.85 6.17 13.26 6.6 13.26 7.12V12.76Z" fill="white"/>
</svg>
