<svg width="15" height="21" viewBox="0 0 15 21" fill="none" xmlns="http://www.w3.org/2000/svg">
<g id="pointer">
<path id="Vector" d="M0 1.08754V18.4694C0 19.0413 0.464062 19.5007 1.03125 19.5007C1.32656 19.5007 1.6125 19.3741 1.80937 19.1491L5.68125 14.7193L8.40469 20.171C8.775 20.9117 9.675 21.2117 10.4156 20.8413C11.1562 20.471 11.4563 19.571 11.0859 18.8303L8.42813 13.5005H13.9641C14.5359 13.5005 15 13.0364 15 12.4645C15 12.1692 14.8734 11.8879 14.6531 11.691L1.80937 0.276572C1.60781 0.0984409 1.35469 0 1.0875 0C0.4875 0 0 0.487517 0 1.08754Z" fill="white"/>
</g>
</svg>
