<svg width="21" height="30" viewBox="0 0 21 30" fill="none" xmlns="http://www.w3.org/2000/svg">
<path d="M1.55826 16.4133L1.50334 16.3147C0.61646 14.7225 0.1 12.8808 0.1 10.9082C0.1 4.93634 4.75978 0.1 10.5 0.1C16.242 0.1 20.9 4.93633 20.9 10.9082C20.9 12.8809 20.3872 14.7226 19.4976 16.3146L19.4369 16.4231L10.4991 29.8198L1.55826 16.4133ZM5.15093 10.9073C5.15093 13.9715 7.54307 16.4613 10.5009 16.4613C13.4615 16.4613 15.8509 13.9715 15.8509 10.9073C15.8509 7.84503 13.4616 5.35325 10.5009 5.35325C7.54305 5.35325 5.15093 7.84499 5.15093 10.9073Z" fill="white" stroke="white" stroke-width="0.2"/>
</svg>
