<svg width="18" height="14" viewBox="0 0 18 14" fill="none" xmlns="http://www.w3.org/2000/svg">
<path id="Vector" d="M3.5 9.625H0.875C0.391836 9.625 0 10.0168 0 10.5V13.125C0 13.6082 0.391836 14 0.875 14H3.5C3.98316 14 4.375 13.6082 4.375 13.125V10.5C4.375 10.0168 3.98316 9.625 3.5 9.625ZM2.84375 7.4375H8.09375V8.75H9.40625V7.4375H14.6562V8.75H15.9688V7.17527C15.9688 6.59641 15.4976 6.125 14.9185 6.125H9.40625V4.375H10.5C10.9832 4.375 11.375 3.98316 11.375 3.5V0.875C11.375 0.391836 10.9832 0 10.5 0H7C6.51684 0 6.125 0.391836 6.125 0.875V3.5C6.125 3.98316 6.51684 4.375 7 4.375H8.09375V6.125H2.58152C2.00238 6.125 1.53125 6.59613 1.53125 7.17527V8.75H2.84375V7.4375ZM10.0625 9.625H7.4375C6.95434 9.625 6.5625 10.0168 6.5625 10.5V13.125C6.5625 13.6082 6.95434 14 7.4375 14H10.0625C10.5457 14 10.9375 13.6082 10.9375 13.125V10.5C10.9375 10.0168 10.5457 9.625 10.0625 9.625ZM16.625 9.625H14C13.5168 9.625 13.125 10.0168 13.125 10.5V13.125C13.125 13.6082 13.5168 14 14 14H16.625C17.1082 14 17.5 13.6082 17.5 13.125V10.5C17.5 10.0168 17.1082 9.625 16.625 9.625Z" fill="white"/>
</svg>
