<svg width="40" height="40" viewBox="0 0 40 40" fill="none" xmlns="http://www.w3.org/2000/svg">
<path d="M39.4273 20.3593L22.6584 7.26547C22.004 6.78643 21.4314 5.69525 20.9406 3.99202C20.6134 2.87425 19.8772 1.9295 18.732 1.15768C17.5868 0.385868 16.3871 0 15.1329 0C14.1513 0 13.1697 0.332695 12.1881 0.998004C11.2065 1.66331 10.4975 2.39521 10.0613 3.19361H15.1329L17.096 5.42914L15.1329 8.14371H10.3067C10.6339 9.04854 11.2746 9.78044 12.229 10.3393C13.1833 10.8982 14.2876 11.0446 15.5419 10.7784C15.5964 10.7784 16.0191 10.7385 16.8097 10.6587C17.6005 10.5788 18.2003 10.5256 18.6093 10.499C19.0183 10.4724 19.5228 10.4857 20.1226 10.5389C20.5044 10.6454 20.7907 10.7385 20.9815 10.8184C21.1727 10.8982 21.3227 10.9914 21.4314 11.0978C21.5405 11.2042 21.7995 11.4438 22.2085 11.8164C22.6175 12.189 23.0947 12.5882 23.64 13.014L36.8915 23.6327C37.7095 24.3777 38.5548 24.2446 39.4273 23.2335C39.8091 22.8609 39.9999 22.3819 39.9999 21.7964C39.9999 21.2109 39.8091 20.7319 39.4273 20.3593Z" fill="white"/>
<path d="M28.6299 25.3094L23.4765 16.5269C23.0946 15.835 22.7128 15.489 22.3313 15.489H7.85276C7.52556 15.489 7.1438 15.835 6.70757 16.5269L1.71779 25.3094H1.55419C0.518037 25.3094 0 25.682 0 26.4271V33.9321C0 34.7305 0.518037 35.1297 1.55419 35.1297H3.35378V37.7645C3.35378 38.4032 3.54462 38.9355 3.92638 39.3613C4.30814 39.7871 4.79894 40 5.39877 40H6.21677C6.81661 40 7.33472 39.7871 7.77096 39.3613C8.2072 38.9355 8.42536 38.4032 8.42536 37.7645V35.1297H21.7587V37.7645C21.7587 38.3499 21.9769 38.8689 22.4131 39.3214C22.8494 39.7738 23.3675 40 23.9673 40H24.7853C25.3851 40 25.8759 39.7871 26.2577 39.3613C26.6394 38.9355 26.8303 38.4032 26.8303 37.7645V35.1297H28.6299C29.666 35.1297 30.184 34.7305 30.184 33.9321V26.4271C30.184 25.682 29.666 25.3094 28.6299 25.3094ZM5.64417 30.4192C5.26241 30.7918 4.79894 30.978 4.25358 30.978C3.70822 30.978 3.25832 30.7918 2.90389 30.4192C2.54945 30.0465 2.37219 29.5942 2.37219 29.0619C2.37219 28.5296 2.54945 28.0772 2.90389 27.7046C3.25832 27.332 3.70822 27.1457 4.25358 27.1457C4.79894 27.1457 5.26241 27.332 5.64417 27.7046C6.02593 28.0772 6.21677 28.5297 6.21677 29.0619C6.21677 29.5942 6.02593 30.0465 5.64417 30.4192ZM5.80777 25.3094L8.91615 18.9221C9.24335 18.2834 9.62511 17.9641 10.0613 17.9641H20.1227C20.5589 17.9641 20.9407 18.2834 21.2679 18.9221L24.3763 25.3094H5.80777ZM27.3211 30.4192C26.9393 30.7918 26.4757 30.978 25.9305 30.978C25.3849 30.978 24.9214 30.7918 24.5399 30.4192C24.1581 30.0465 23.9673 29.5942 23.9673 29.0619C23.9673 28.5296 24.1581 28.0772 24.5399 27.7046C24.9216 27.332 25.3851 27.1457 25.9305 27.1457C26.4758 27.1457 26.9393 27.332 27.3211 27.7046C27.7028 28.0772 27.8937 28.5297 27.8937 29.0619C27.8937 29.5942 27.7028 30.0465 27.3211 30.4192Z" fill="white"/>
</svg>
