<svg width="21" height="21" viewBox="0 0 21 21" fill="none" xmlns="http://www.w3.org/2000/svg">
<g id="rotate">
<path id="Vector" d="M5.55187 5.19935C8.27312 2.28422 12.67 2.27016 15.4088 5.15248L13.6062 7.07871C13.3044 7.40209 13.2169 7.88482 13.3787 8.30663C13.5406 8.72843 13.9256 9.00026 14.35 9.00026H19.5781H19.95C20.5319 9.00026 21 8.49878 21 7.87545V1.87648C21 1.42187 20.7463 1.00944 20.3525 0.836032C19.9587 0.662624 19.5081 0.756358 19.2062 1.07974L17.3862 3.02941C13.5538 -1.02459 7.38062 -1.01053 3.57 3.07627C2.5025 4.21983 1.7325 5.56491 1.26 7.00372C1.00187 7.7864 1.38688 8.63938 2.11313 8.9159C2.83938 9.19241 3.64 8.77998 3.89812 8.00199C4.235 6.98029 4.78187 6.01952 5.55187 5.19935ZM0 13.1246V13.4807V13.5135V19.1235C0 19.5781 0.25375 19.9906 0.6475 20.164C1.04125 20.3374 1.49187 20.2436 1.79375 19.9203L3.61375 17.9706C7.44625 22.0246 13.6194 22.0105 17.43 17.9237C18.4975 16.7802 19.2719 15.4351 19.7444 14.001C20.0025 13.2183 19.6175 12.3653 18.8912 12.0888C18.165 11.8123 17.3644 12.2247 17.1062 13.0027C16.7694 14.0244 16.2225 14.9852 15.4525 15.8053C12.7312 18.7205 8.33437 18.7345 5.59562 15.8522L7.39375 13.9213C7.69562 13.5979 7.78312 13.1152 7.62125 12.6934C7.45937 12.2716 7.07437 11.9997 6.65 11.9997H1.4175H1.38688H1.05C0.468125 11.9997 0 12.5012 0 13.1246Z" fill="white"/>
</g>
</svg>
