<svg width="21" height="21" viewBox="0 0 21 21" fill="none" xmlns="http://www.w3.org/2000/svg">
<g id="scale">
<path id="GiResize" d="M0 0L0.0463576 4.18142H1.71523V1.67257H2.92053V0H0ZM4.5894 0V1.67257H7.92715V0H4.5894ZM9.59603 0V1.67257H12.9338V0H9.59603ZM14.6026 0V1.67257H17.9404V0H14.6026ZM19.3311 0V3.62389H21V0H19.3311ZM9.78146 3.71681V5.38938H14.4424L8.97219 10.8717H0.0463576V21H10.1523V12.0544L15.6225 6.57212V11.2434H17.2914V3.71681H9.78146ZM19.3311 5.29646V8.64159H21V5.29646H19.3311ZM0.0463576 5.85398V9.19912H1.71523V5.85398H0.0463576ZM19.3311 10.3142V13.6593H21V10.3142H19.3311ZM19.3311 15.3319V18.677H21V15.3319H19.3311ZM11.6358 19.3274V21H14.9735V19.3274H11.6358ZM16.6424 19.3274V21H19.9801V19.3274H16.6424Z" fill="white"/>
</g>
</svg>
