<svg width="14" height="12" viewBox="0 0 14 12" fill="none" xmlns="http://www.w3.org/2000/svg">
<path d="M0 1.72076C0 2.17714 0.181294 2.61482 0.504 2.93753C0.826706 3.26024 1.26439 3.44153 1.72076 3.44153C2.17714 3.44153 2.61482 3.26024 2.93753 2.93753C3.26024 2.61482 3.44153 2.17714 3.44153 1.72076C3.44153 1.26439 3.26024 0.826706 2.93753 0.504C2.61482 0.181294 2.17714 0 1.72076 0C1.26439 0 0.826706 0.181294 0.504 0.504C0.181294 0.826706 0 1.26439 0 1.72076Z" fill="white"/>
<path d="M13.6302 9.32831C13.3812 9.07925 13.2453 8.92076 12.2731 8.78946C10.9583 8.61191 9.06334 8.54931 8.53589 8.55849C7.84457 8.57055 5.67335 8.6657 4.84593 8.75378C4.84432 8.71535 4.84487 8.68011 4.8481 8.64906C5.00381 7.15472 4.6825 6.28754 4.46041 5.63772C4.24765 5.01524 3.50645 4.14038 3.44154 4.07545C3.26041 3.89431 2.85285 3.53205 2.28683 3.73583C1.72079 3.93961 1.26795 4.43772 1.1321 4.66414C0.996246 4.89056 3.07928 11.4792 3.07928 11.4792L3.98494 11.3911V12H12.8152V11.4593L13.6302 11.4793C13.6302 11.4793 13.8793 9.57736 13.6302 9.32831Z" fill="white"/>
</svg>
