<svg width="16" height="16" viewBox="0 0 16 16" fill="none" xmlns="http://www.w3.org/2000/svg">
<g clip-path="url(#clip0_299_3555)">
<path d="M4.66665 12C3.93332 12 3.33998 12.6 3.33998 13.3333C3.33998 14.0667 3.93332 14.6667 4.66665 14.6667C5.39998 14.6667 5.99998 14.0667 5.99998 13.3333C5.99998 12.6 5.39998 12 4.66665 12ZM0.666651 1.33333V2.66666H1.99998L4.39998 7.72666L3.49998 9.35999C3.39332 9.54666 3.33332 9.76666 3.33332 9.99999C3.33332 10.7333 3.93332 11.3333 4.66665 11.3333H12.6666V9.99999H4.94665C4.85332 9.99999 4.77998 9.92666 4.77998 9.83333L4.79998 9.75333L5.39998 8.66666H10.3667C10.8667 8.66666 11.3066 8.39333 11.5333 7.97999L13.92 3.65333C13.9733 3.55999 14 3.44666 14 3.33333C14 2.96666 13.7 2.66666 13.3333 2.66666H3.47332L2.84665 1.33333H0.666651ZM11.3333 12C10.6 12 10.0066 12.6 10.0066 13.3333C10.0066 14.0667 10.6 14.6667 11.3333 14.6667C12.0667 14.6667 12.6666 14.0667 12.6666 13.3333C12.6666 12.6 12.0667 12 11.3333 12Z" fill="white"/>
</g>
<defs>
<clipPath id="clip0_299_3555">
<rect width="16" height="16" fill="white"/>
</clipPath>
</defs>
</svg>
