<svg width="12" height="14" viewBox="0 0 12 14" fill="none" xmlns="http://www.w3.org/2000/svg">
<path d="M9.103 3.62762H11.0763C11.1957 3.62774 11.3107 3.67215 11.3992 3.75226C11.4877 3.83236 11.5433 3.94246 11.5552 4.06121L11.8491 6.99999H10.8798L10.6389 4.59115H9.103V6.03645C9.103 6.16423 9.05224 6.28677 8.96189 6.37712C8.87154 6.46746 8.749 6.51822 8.62123 6.51822C8.49346 6.51822 8.37092 6.46746 8.28057 6.37712C8.19022 6.28677 8.13946 6.16423 8.13946 6.03645V4.59115H4.28532V6.03645C4.28532 6.16423 4.23457 6.28677 4.14422 6.37712C4.05387 6.46746 3.93133 6.51822 3.80356 6.51822C3.67579 6.51822 3.55325 6.46746 3.4629 6.37712C3.37255 6.28677 3.32179 6.16423 3.32179 6.03645V4.59115H1.78495L1.01413 12.2994H6.21239V13.263H0.481292C0.414002 13.2629 0.347473 13.2487 0.28599 13.2214C0.224507 13.194 0.169434 13.1541 0.12432 13.1042C0.0792051 13.0543 0.0450494 12.9954 0.0240533 12.9315C0.00305709 12.8676 -0.00431404 12.8 0.00241494 12.733L0.869596 4.06121C0.881531 3.94246 0.93712 3.83236 1.02559 3.75226C1.11407 3.67215 1.22912 3.62774 1.34847 3.62762H3.32179V3.29135C3.32179 1.62058 4.60907 0.255249 6.21239 0.255249C7.81571 0.255249 9.103 1.62058 9.103 3.29135V3.62858V3.62762ZM8.13946 3.62762V3.29135C8.13946 2.14089 7.27035 1.21878 6.21239 1.21878C5.15443 1.21878 4.28532 2.14089 4.28532 3.29135V3.62858H8.13946V3.62762ZM11.1717 10.9119L10.0665 9.80773V13.263C10.0665 13.3907 10.0158 13.5133 9.92542 13.6036C9.83507 13.694 9.71254 13.7447 9.58476 13.7447C9.45699 13.7447 9.33445 13.694 9.2441 13.6036C9.15375 13.5133 9.103 13.3907 9.103 13.263V9.80773L7.99879 10.9119C7.95434 10.958 7.90118 10.9947 7.84241 11.0199C7.78363 11.0452 7.72041 11.0584 7.65644 11.059C7.59247 11.0596 7.52904 11.0474 7.46983 11.0231C7.41062 10.9989 7.35683 10.9631 7.3116 10.9179C7.26636 10.8727 7.23059 10.8189 7.20636 10.7597C7.18214 10.7005 7.16995 10.637 7.17051 10.5731C7.17106 10.5091 7.18435 10.4459 7.2096 10.3871C7.23485 10.3283 7.27155 10.2752 7.31757 10.2307L9.24464 8.30365C9.33498 8.21333 9.4575 8.1626 9.58524 8.1626C9.71299 8.1626 9.83551 8.21333 9.92585 8.30365L11.8529 10.2307C11.8989 10.2752 11.9356 10.3283 11.9609 10.3871C11.9861 10.4459 11.9994 10.5091 12 10.5731C12.0005 10.637 11.9883 10.7005 11.9641 10.7597C11.9399 10.8189 11.9041 10.8727 11.8589 10.9179C11.8137 10.9631 11.7599 10.9989 11.7007 11.0231C11.6415 11.0474 11.578 11.0596 11.514 11.059C11.4501 11.0584 11.3869 11.0452 11.3281 11.0199C11.2693 10.9947 11.2161 10.958 11.1717 10.9119V10.9119Z" fill="white"/>
</svg>
