<svg width="16" height="14" viewBox="0 0 16 14" fill="none" xmlns="http://www.w3.org/2000/svg">
<path d="M13.0554 0L12.3978 0.769506C13.9883 2.24397 14.9897 4.34373 14.9897 6.67746C14.9897 9.01119 13.9873 11.1109 12.3978 12.5854L13.0544 13.3549C13.9824 12.5077 14.7236 11.4763 15.2307 10.3267C15.7379 9.177 15.9999 7.93425 16 6.67768C16.0001 5.42112 15.7383 4.17832 15.2313 3.02858C14.7243 1.87883 13.9832 0.847374 13.0554 0V0ZM10.764 2.68268L10.1075 3.45219C10.5358 3.87317 10.876 4.37525 11.1082 4.92913C11.3404 5.48301 11.4599 6.0776 11.4598 6.67818C11.4597 7.27876 11.34 7.8733 11.1076 8.42711C10.8753 8.98092 10.5349 9.48289 10.1065 9.90374L10.763 10.6732C11.8119 9.66472 12.4684 8.24875 12.4684 6.67847C12.4684 5.10819 11.8129 3.69121 10.764 2.68268V2.68268ZM0 3.65188V9.70304H2.82791L8.06822 12.7286V0.626296L2.82791 3.65188H0ZM7.05969 2.37307V10.9819L3.0982 8.69451H1.00853V4.66041H3.0982L7.05969 2.37307Z" fill="white"/>
</svg>
