<svg viewBox="0 0 19 21" fill="white" xmlns="http://www.w3.org/2000/svg">
<path d="M18.9913 0.764454C18.95 0.580775 18.7704 0.467418 18.5892 0.508353L13.3443 1.73428C13.1637 1.77679 13.0512 1.95994 13.0925 2.1431C13.1281 2.30106 13.2659 2.40812 13.4192 2.40812C13.444 2.40812 13.4692 2.40497 13.4945 2.3992L18.7394 1.17327C18.9201 1.13076 19.0331 0.948133 18.9913 0.764454ZM18.645 4.20923C18.6254 4.20923 18.6052 4.20713 18.5856 4.20345L14.628 3.48501C14.4452 3.45247 14.324 3.27509 14.357 3.08931C14.3895 2.90353 14.5634 2.7823 14.7461 2.81379L18.7038 3.53224C18.8865 3.56477 19.0078 3.74216 18.9748 3.92793C18.9459 4.09272 18.8045 4.20923 18.645 4.20923ZM18.0876 6.96442C18.0349 6.96442 17.9812 6.95182 17.9312 6.92506L12.981 4.27273C12.8174 4.18509 12.7544 3.97832 12.8406 3.81195C12.9268 3.64507 13.1296 3.58209 13.2938 3.66921L18.244 6.32154C18.4076 6.4097 18.4705 6.61595 18.3843 6.78231C18.3245 6.89829 18.2083 6.96442 18.0876 6.96442ZM11.7624 16.1877V14.934H12.996C13.1812 14.934 13.3314 14.7813 13.3314 14.5929V12.1604C13.3314 11.972 13.1812 11.8193 12.996 11.8193H11.7624V10.5651C11.7624 10.3766 11.6122 10.2239 11.4269 10.2239H11.1689L12.5072 6.09325C12.5351 6.00771 12.5283 5.91377 12.4881 5.83295C12.4478 5.75266 12.3781 5.69073 12.2935 5.66292L11.8832 5.52542L11.9957 5.17853C12.1934 4.56819 11.8656 3.90799 11.2659 3.707L10.3947 3.41521L10.8514 2.00455C10.8793 1.91901 10.8726 1.82507 10.8323 1.74425C10.7921 1.66396 10.7224 1.60203 10.6378 1.57422L9.54924 1.21001C9.37428 1.14966 9.18383 1.24779 9.12602 1.42727L8.66873 2.83793L7.97196 2.6044C7.68189 2.50678 7.37067 2.52935 7.09763 2.67052C6.82409 2.81064 6.62073 3.051 6.52525 3.34646L6.41273 3.69335L5.93583 3.53381C5.8517 3.50442 5.75931 3.51177 5.67983 3.55323C5.60034 3.59364 5.53996 3.66501 5.5126 3.75108L0.921637 17.9227C0.863829 18.1017 0.959314 18.2943 1.13531 18.3531L7.49247 20.4827C7.52757 20.4942 7.56266 20.5 7.59776 20.5C7.73608 20.5 7.86563 20.4124 7.91415 20.2722L9.21531 16.5294H11.4269C11.6122 16.5289 11.7624 16.3761 11.7624 16.1877ZM10.1098 2.11476L9.75776 3.20109L9.30615 3.04995L9.65815 1.96362L10.1098 2.11476ZM11.2463 5.31183L7.05015 3.90642L7.16215 3.55953C7.20189 3.43725 7.28602 3.33754 7.39957 3.27981C7.46667 3.24517 7.53944 3.22733 7.61325 3.22733C7.66331 3.22733 7.71338 3.23573 7.76241 3.252L9.36912 3.78991L9.86615 3.9568H9.86718L11.0558 4.3546C11.3041 4.43804 11.4403 4.71198 11.3583 4.96494L11.2463 5.31183ZM10.4628 10.2239H9.03467C8.84937 10.2239 8.69918 10.3766 8.69918 10.5651V11.8193H7.46563C7.28034 11.8193 7.13015 11.972 7.13015 12.1604V14.5929C7.13015 14.7813 7.28034 14.934 7.46563 14.934H8.69918V15.9652L7.39028 19.7296L1.66331 17.8115L6.04422 4.28742L6.51905 4.44644L6.5206 4.44749L11.3541 6.06649H11.3552L11.7645 6.20346L10.4628 10.2239ZM11.4269 14.2512C11.2416 14.2512 11.0914 14.4039 11.0914 14.5924V15.8461H9.37015V14.5929C9.37015 14.4045 9.21996 14.2518 9.03467 14.2518H7.80112V12.5021H9.03467C9.21996 12.5021 9.37015 12.3494 9.37015 12.161V10.9067H11.0914V12.161C11.0914 12.3494 11.2416 12.5021 11.4269 12.5021H12.6605V14.2518H11.4269V14.2512Z" fill="white"/>
</svg>
