<svg viewBox="0 0 18 18" fill="none" xmlns="http://www.w3.org/2000/svg">
<path d="M13.4221 3.31515L13.3626 3.37053L3.59991 13.1323C3.48499 13.2472 3.40237 13.3529 3.34745 13.4498C2.40594 12.2318 1.85534 10.6806 1.85534 8.97254C1.85534 4.91249 4.91341 1.82718 8.97254 1.82718C10.676 1.82718 12.2097 2.37409 13.4221 3.31515ZM4.81695 14.863C4.90418 14.809 4.99603 14.7305 5.09664 14.629L14.8584 4.86726L14.8773 4.8488C15.6804 6.01092 16.1447 7.43427 16.1447 8.99977C16.1447 13.0543 13.0543 16.1724 8.99977 16.1724C7.41581 16.1724 5.97862 15.6947 4.81695 14.863ZM0 8.99977C0 13.9727 4.03143 17.9995 8.99977 17.9995C13.969 17.9995 18 13.9727 18 8.99977C18 4.02682 13.969 0 9.00023 0C4.03143 0 0 4.02682 0 8.99977Z" fill="white"/>
</svg>