<svg viewBox="0 0 26 34" fill="none" xmlns="http://www.w3.org/2000/svg">
<g filter="url(#filter0_d_1626_5271)">
<path d="M7.21597 6.57722L8.19291 1.01085C8.24403 0.719579 8.05044 0.441825 7.76054 0.390498L5.60265 0.0082178C5.31275 -0.0431093 5.03628 0.151328 4.98513 0.442597L4.00819 6.00897C3.95707 6.30024 4.15066 6.5779 4.44056 6.62935L6.59845 7.0116C6.88832 7.06293 7.16482 6.86849 7.21597 6.57722Z" fill="white"/>
<path d="M21.5594 0.390498L19.4014 0.0082178C19.1116 -0.0431093 18.8351 0.151328 18.7839 0.442597L17.807 6.00897C17.7559 6.30024 17.9496 6.5779 18.2394 6.62935L20.3973 7.0116C20.6872 7.06293 20.9636 6.86849 21.0148 6.57722L21.9917 1.01085C22.0428 0.719579 21.8492 0.441825 21.5594 0.390498Z" fill="white"/>
<path d="M20.7583 18.9496H18.567C18.2727 18.9496 18.034 19.2011 18.034 19.5112V25.4386C18.0341 25.7487 18.2727 26 18.5671 26H20.7583C21.0526 26 21.2912 25.7487 21.2913 25.4386L21.2912 19.5112C21.2913 19.2011 21.0525 18.9496 20.7583 18.9496Z" fill="white"/>
<path d="M7.43312 18.9496H5.24188C4.94752 18.9496 4.70886 19.2011 4.70886 19.5112V25.4386C4.70895 25.7487 4.94761 26 5.24196 26H7.43312C7.72748 26 7.96614 25.7487 7.96623 25.4386L7.96614 19.5112C7.96614 19.2011 7.72739 18.9496 7.43312 18.9496Z" fill="white"/>
<path d="M17.5484 13.275C17.5484 11.3523 16.3611 9.70934 14.6835 9.04238V5.08667C14.6835 5.03498 14.6758 4.9852 14.6623 4.93794H16.8492C17.1835 4.93794 17.4544 4.69824 17.4544 4.40245L17.8966 2.14154C17.8966 1.84584 17.6256 1.60608 17.2914 1.60608H9.18464C8.85049 1.60608 8.57955 1.84584 8.57955 2.14154L8.13922 4.40245C8.13922 4.69824 8.41019 4.93794 8.74435 4.93794H11.3735C11.36 4.98523 11.3522 5.03498 11.3522 5.08667V9.04238C9.67464 9.70934 8.48739 11.3523 8.48739 13.275C8.48739 15.1976 9.67464 16.8406 11.3522 17.5075V21.0617H9.13881C8.84443 21.0617 8.60583 21.3015 8.60583 21.5972V23.8581C8.60583 24.1539 8.84443 24.3936 9.13881 24.3936H16.897C17.1913 24.3936 17.43 24.1539 17.43 23.8581V21.5972C17.43 21.3015 17.1913 21.0617 16.897 21.0617H14.6835V17.5077C16.3611 16.8406 17.5484 15.1976 17.5484 13.275ZM10.5306 13.275C10.5306 12.5386 10.8478 11.8767 11.3523 11.4194C11.4276 11.3511 11.5074 11.2877 11.5907 11.229C11.5997 11.2226 11.6085 11.2159 11.6176 11.2097C11.6375 11.1961 11.6578 11.1832 11.6781 11.1701C11.6904 11.1622 11.7026 11.154 11.715 11.1463C11.7341 11.1345 11.7536 11.1233 11.773 11.1119C11.7872 11.1036 11.8013 11.0953 11.8157 11.0873C11.8344 11.0769 11.8534 11.067 11.8724 11.0571C11.8879 11.0489 11.9035 11.0407 11.9193 11.0329C11.9378 11.0237 11.9567 11.0149 11.9755 11.0062C11.9922 10.9984 12.0089 10.9907 12.0258 10.9833C12.0443 10.9752 12.0629 10.9674 12.0816 10.9598C12.0993 10.9526 12.1171 10.9455 12.1351 10.9386C12.1535 10.9316 12.172 10.9247 12.1907 10.9182C12.2094 10.9115 12.2283 10.9051 12.2472 10.899C12.2655 10.893 12.2838 10.8871 12.3022 10.8816C12.322 10.8756 12.3419 10.87 12.3619 10.8646C12.38 10.8596 12.3981 10.8547 12.4164 10.8501C12.4372 10.8449 12.4581 10.8402 12.479 10.8356C12.4969 10.8316 12.5148 10.8275 12.5329 10.8239C12.5548 10.8196 12.5769 10.8158 12.5991 10.8121C12.6164 10.8091 12.6338 10.8059 12.6513 10.8033C12.6751 10.7998 12.6991 10.797 12.723 10.7942C12.7393 10.7923 12.7554 10.79 12.7717 10.7884C12.7987 10.7858 12.8258 10.784 12.853 10.7822C12.8667 10.7813 12.8803 10.7799 12.894 10.7792C12.9351 10.7773 12.9764 10.7761 13.0179 10.7761C13.0594 10.7761 13.1006 10.7773 13.1418 10.7792C13.1556 10.7799 13.1693 10.7813 13.183 10.7822C13.2101 10.784 13.2372 10.7858 13.264 10.7884C13.2805 10.79 13.2968 10.7923 13.3132 10.7942C13.3369 10.7971 13.3607 10.7998 13.3843 10.8034C13.4021 10.806 13.4196 10.8092 13.4372 10.8122C13.459 10.8159 13.4809 10.8196 13.5026 10.8239C13.5209 10.8275 13.5391 10.8317 13.5573 10.8357C13.5779 10.8403 13.5986 10.845 13.6191 10.85C13.6375 10.8547 13.6559 10.8597 13.6743 10.8647C13.694 10.8701 13.7137 10.8756 13.7332 10.8815C13.7519 10.8871 13.7704 10.8931 13.7889 10.8991C13.8077 10.9053 13.8262 10.9115 13.8447 10.9181C13.8635 10.9248 13.8823 10.9317 13.901 10.9388C13.9187 10.9456 13.9362 10.9525 13.9537 10.9597C13.9727 10.9674 13.9915 10.9753 14.0102 10.9835C14.0269 10.9908 14.0434 10.9983 14.0599 11.006C14.0789 11.0149 14.0978 11.0237 14.1166 11.033C14.1322 11.0408 14.1476 11.0489 14.1632 11.057C14.1823 11.067 14.2013 11.0769 14.2202 11.0874C14.2344 11.0953 14.2485 11.1036 14.2626 11.1119C14.2821 11.1232 14.3016 11.1344 14.3207 11.1463C14.3333 11.154 14.3455 11.1623 14.3579 11.1703C14.3781 11.1832 14.3983 11.1961 14.418 11.2096C14.4274 11.2161 14.4365 11.2229 14.4458 11.2295C14.5279 11.2874 14.6065 11.3498 14.6807 11.4169C15.1868 11.8744 15.5052 12.5372 15.5052 13.275C15.5052 14.0114 15.188 14.6733 14.6835 15.1306C14.6073 15.1997 14.5267 15.2637 14.4425 15.3229C14.4345 15.3285 14.4266 15.3344 14.4184 15.34C14.398 15.3541 14.3771 15.3673 14.3563 15.3808C14.3446 15.3883 14.333 15.3961 14.3211 15.4034C14.3016 15.4156 14.2817 15.4272 14.2618 15.4387C14.248 15.4467 14.2344 15.4547 14.2205 15.4626C14.2014 15.4732 14.1819 15.4833 14.1626 15.4934C14.1474 15.5013 14.1322 15.5093 14.1169 15.5169C14.0979 15.5263 14.0788 15.5352 14.0596 15.5441C14.0433 15.5518 14.0269 15.5593 14.0104 15.5664C13.9916 15.5748 13.9726 15.5827 13.9535 15.5905C13.9361 15.5975 13.9187 15.6045 13.9012 15.6111C13.8824 15.6184 13.8635 15.6252 13.8444 15.632C13.8261 15.6384 13.8077 15.6447 13.7892 15.6508C13.7705 15.6569 13.7519 15.6628 13.7331 15.6686C13.7136 15.6744 13.6941 15.6799 13.6745 15.6853C13.656 15.6904 13.6377 15.6953 13.619 15.7C13.5986 15.705 13.578 15.7097 13.5573 15.7142C13.5392 15.7183 13.521 15.7224 13.5027 15.7261C13.481 15.7304 13.4591 15.7341 13.4372 15.7378C13.4196 15.7409 13.4021 15.744 13.3843 15.7467C13.3607 15.7502 13.3369 15.753 13.3132 15.7557C13.2968 15.7576 13.2805 15.7599 13.264 15.7617C13.2372 15.7643 13.2101 15.766 13.1831 15.7678C13.1693 15.7688 13.1555 15.77 13.1418 15.7707C13.1006 15.7728 13.0595 15.7739 13.0179 15.7739C12.9764 15.7739 12.9351 15.7728 12.894 15.7707C12.8803 15.7701 12.8667 15.7688 12.853 15.7678C12.8259 15.766 12.7987 15.7643 12.7717 15.7617C12.7554 15.7601 12.7393 15.7578 12.7231 15.7559C12.6991 15.753 12.6751 15.7502 12.6513 15.7467C12.6338 15.744 12.6164 15.7409 12.5991 15.738C12.577 15.7341 12.5548 15.7305 12.533 15.7261C12.5149 15.7224 12.497 15.7184 12.479 15.7144C12.4581 15.7097 12.4372 15.705 12.4165 15.7C12.3982 15.6953 12.38 15.6904 12.3619 15.6855C12.3419 15.6799 12.3221 15.6744 12.3023 15.6684C12.2838 15.6628 12.2655 15.6569 12.2472 15.651C12.2283 15.6449 12.2095 15.6384 12.1907 15.6318C12.1721 15.6252 12.1535 15.6184 12.1351 15.6114C12.1172 15.6044 12.0994 15.5975 12.0817 15.5901C12.0629 15.5825 12.0443 15.5748 12.0258 15.5666C12.0089 15.5593 11.9922 15.5516 11.9755 15.5438C11.9567 15.535 11.9378 15.5263 11.9193 15.5171C11.9035 15.5092 11.888 15.5011 11.8724 15.4929C11.8534 15.4829 11.8345 15.4732 11.8157 15.4627C11.8013 15.4547 11.7873 15.4463 11.773 15.438C11.7536 15.4268 11.7342 15.4155 11.715 15.4036C11.7026 15.396 11.6904 15.3878 11.6781 15.3799C11.6578 15.3668 11.6375 15.3539 11.6177 15.3403C11.6086 15.3341 11.5997 15.3274 11.5907 15.321C11.5074 15.2623 11.4276 15.199 11.3523 15.1307C10.8478 14.6733 10.5306 14.0114 10.5306 13.275Z" fill="white"/>
</g>
<defs>
<filter id="filter0_d_1626_5271" x="0" y="0" width="25.9999" height="34" filterUnits="userSpaceOnUse" color-interpolation-filters="sRGB">
<feFlood flood-opacity="0" result="BackgroundImageFix"/>
<feColorMatrix in="SourceAlpha" type="matrix" values="0 0 0 0 0 0 0 0 0 0 0 0 0 0 0 0 0 0 127 0" result="hardAlpha"/>
<feOffset dy="4"/>
<feGaussianBlur stdDeviation="2"/>
<feComposite in2="hardAlpha" operator="out"/>
<feColorMatrix type="matrix" values="0 0 0 0 0 0 0 0 0 0 0 0 0 0 0 0 0 0 0.25 0"/>
<feBlend mode="normal" in2="BackgroundImageFix" result="effect1_dropShadow_1626_5271"/>
<feBlend mode="normal" in="SourceGraphic" in2="effect1_dropShadow_1626_5271" result="shape"/>
</filter>
</defs>
</svg>
