<svg width="10" height="20" viewBox="0 0 10 20" fill="none" xmlns="http://www.w3.org/2000/svg">
<path d="M9.55539 1.08697H9.33318V0.652178C9.33318 0.521743 9.2443 0.434772 9.11095 0.434772C8.97761 0.434772 8.88873 0.521743 8.88873 0.652178V1.08695H5.33322V0.217406C5.33322 0.0869705 5.24431 0 5.11098 0C4.97769 0 4.88879 0.0869705 4.88879 0.217406V1.08697H1.1111V0.652178C1.1111 0.521743 1.0222 0.434772 0.888869 0.434772C0.755538 0.434772 0.666677 0.521743 0.666677 0.652178V1.08695H0.444445C0.200028 1.08695 0 1.28259 0 1.52174V1.95651C0 2.19564 0.200007 2.39129 0.444445 2.39129H2.4444V3.04349C2.4444 3.17392 2.5333 3.26087 2.66663 3.26087H4.22215V3.98642L1.93332 4.58697C1.57777 4.69566 1.37776 5.04349 1.46667 5.39133C1.55555 5.67394 1.8 5.86958 2.1111 5.86958C2.15555 5.86958 2.22222 5.86958 2.28888 5.84784L2.39393 5.82029L3.95551 6.00002C3.99994 6.00002 4.04439 5.97828 4.08886 5.91307C4.11107 5.84784 4.06664 5.78263 3.99994 5.78263L2.98339 5.6656L4.22218 5.34059V6.16034L1.93334 6.76087C1.57779 6.86958 1.37779 7.21739 1.46669 7.56525C1.55557 7.84784 1.80003 8.04349 2.11112 8.04349C2.15557 8.04349 2.22224 8.04349 2.2889 8.02176L2.39395 7.99419L3.95553 8.17392C3.99996 8.17392 4.04441 8.15216 4.08888 8.08697C4.11109 8.02174 4.06666 7.95651 3.99996 7.95651L2.98341 7.83952L4.2222 7.51447V8.33424L1.93336 8.93477C1.57781 9.04344 1.37781 9.39133 1.46671 9.73911C1.55559 10.0217 1.80005 10.2174 2.11114 10.2174C2.15559 10.2174 2.22227 10.2174 2.28892 10.1957L3.33335 9.92161V10.6327L1.93338 11C1.57783 11.1087 1.37783 11.4565 1.46673 11.8043C1.51572 11.9601 1.61212 12.0892 1.74072 12.1739H1.55561C1.31119 12.1739 1.11118 12.3695 1.11118 12.6087V13.0435C1.11118 13.2826 1.31117 13.4782 1.55561 13.4782H2.88892V16.4782C2.88892 16.7391 3.06671 17 3.33337 17.0869L3.42225 17.1305C3.49095 17.1537 3.56019 17.1754 3.6299 17.1956H3.62226L4.20714 18.4387C4.07783 18.601 4.00002 18.8037 4.00002 19.0217C4.00002 19.5652 4.44445 20 5.00002 20C5.53337 20 5.97781 19.5652 5.95554 19.0217C5.95554 18.844 5.90388 18.6764 5.81482 18.5326L6.42219 17.1956H6.34143C6.41246 17.1754 6.48378 17.1538 6.55559 17.1305L6.68888 17.0869C6.95558 17 7.13334 16.7609 7.13334 16.4782V13.4782H8.44443C8.68885 13.4782 8.8889 13.2826 8.8889 13.0435V12.6087C8.8889 12.3696 8.68887 12.1739 8.44443 12.1739H6.66669V11.1123L8.08885 10.7391C8.44443 10.6304 8.64446 10.2826 8.55558 9.93477C8.46664 9.65214 8.2222 9.45653 7.91109 9.45653C7.84443 9.45653 7.80002 9.45653 7.73337 9.47826L6.66669 9.75812V9.04706L8.08885 8.67394C8.44443 8.56523 8.64446 8.21741 8.55558 7.86958C8.46664 7.58697 8.2222 7.39131 7.91109 7.39131C7.84443 7.39131 7.77782 7.39131 7.73337 7.41307L7.40198 7.49994L6.11114 7.34784C6.04449 7.32612 5.97779 7.36956 5.97779 7.43479C5.95559 7.50002 6.00008 7.56527 6.06669 7.56527L6.81929 7.65286L5.77787 7.92617V7.10873H5.76891L8.08885 6.50004C8.44443 6.39133 8.64446 6.04351 8.55558 5.69568C8.46664 5.41309 8.2222 5.21743 7.91109 5.21743C7.84443 5.21743 7.77782 5.21743 7.73337 5.23917L7.40198 5.32608L6.11114 5.17394C6.04449 5.1522 5.97779 5.19568 5.97779 5.26091C5.95559 5.32612 6.00008 5.39135 6.06669 5.39135L6.81929 5.47898L5.77787 5.75225V4.93248L8.08893 4.32614C8.44445 4.21743 8.64448 3.86962 8.5556 3.52178C8.46666 3.23917 8.22222 3.04353 7.91111 3.04353C7.84445 3.04353 7.77784 3.04353 7.73339 3.06527L7.54461 3.11478C7.55119 3.09276 7.55563 3.06927 7.55563 3.04355V2.39129H9.55551C9.80001 2.39129 10 2.19564 10 1.95651V1.52174C9.99977 1.28259 9.79985 1.08697 9.55539 1.08697ZM4.99992 19.6087C4.66658 19.6087 4.39994 19.3478 4.39994 19.0217C4.3996 18.9446 4.4149 18.8681 4.44493 18.7967C4.47497 18.7254 4.51915 18.6605 4.57493 18.606C4.63071 18.5514 4.69698 18.5082 4.76992 18.4788C4.84287 18.4494 4.92103 18.4344 4.99992 18.4348C5.0788 18.4345 5.15697 18.4494 5.22991 18.4788C5.30286 18.5082 5.36913 18.5514 5.42492 18.606C5.4807 18.6605 5.52488 18.7254 5.55492 18.7967C5.58496 18.8681 5.60026 18.9446 5.59994 19.0217C5.60027 19.0989 5.58497 19.1754 5.55494 19.2467C5.5249 19.3181 5.48071 19.3829 5.42493 19.4375C5.36915 19.4921 5.30287 19.5353 5.22992 19.5647C5.15698 19.5941 5.07881 19.609 4.99992 19.6087ZM5.86656 17.3261L5.46038 18.1931C5.31723 18.1121 5.15231 18.0652 4.97769 18.0652C4.82902 18.0652 4.68724 18.0991 4.56003 18.1592L4.1777 17.3261H4.20268C4.4661 17.3695 4.73277 17.3913 4.9999 17.3913C5.25545 17.3913 5.51104 17.3696 5.76936 17.3261H5.86656ZM4.66658 3.26087H5.33324V3.6949L4.66658 3.86983V3.26087ZM2.62027 12.1739L3.33327 11.9868V12.1739H2.62027ZM6.53322 16.6739L6.39989 16.7174C5.48877 17.0217 4.48882 17.0217 3.5777 16.6956L3.48882 16.6739C3.39992 16.6522 3.33327 16.5652 3.33327 16.4782V15.5024C3.34783 15.5094 3.36265 15.5158 3.3777 15.5217L3.4666 15.5435C3.95547 15.7174 4.46659 15.8044 4.9999 15.8044C5.48875 15.8044 5.99989 15.7174 6.48875 15.5652L6.6221 15.5217C6.64489 15.5127 6.66714 15.5025 6.68875 15.491V16.4783C6.6888 16.5652 6.62212 16.6522 6.53322 16.6739ZM6.6888 15.218C6.65285 15.2566 6.60778 15.2873 6.55544 15.3044L6.42211 15.3478C5.48877 15.6522 4.46661 15.6522 3.53327 15.3261L3.44439 15.3044C3.4022 15.2906 3.36514 15.2675 3.33329 15.239V13.4782H6.6888V15.218ZM8.44427 13.0435H1.55553V12.6087H8.44429V13.0435H8.44427ZM6.22215 12.1739H3.77771V11.8703L6.22213 11.2289L6.22215 12.1739ZM7.84433 9.89133H7.91098C7.99986 9.89133 8.08874 9.95649 8.11095 10.0435C8.13315 10.1522 8.06654 10.2826 7.95539 10.3043L2.15551 11.8261C2.04442 11.8696 1.91109 11.7826 1.88886 11.6739C1.86662 11.5652 1.93332 11.4348 2.04442 11.4131L7.84433 9.89133ZM6.22215 9.87475L3.77773 10.5161V9.80504L6.22215 9.16369V9.87475ZM8.11097 7.97826C8.13317 8.08699 8.06656 8.21741 7.95541 8.23917L2.15553 9.76091C2.04444 9.80436 1.91111 9.71741 1.88889 9.60875C1.86664 9.50002 1.93334 9.3696 2.04444 9.34782L7.84435 7.8261H7.911C7.99988 7.82608 8.08876 7.89131 8.11097 7.97826ZM5.33322 8.04272L4.66656 8.21765V7.39792L5.33322 7.22297V8.04272ZM8.11097 5.80434C8.13317 5.91305 8.06656 6.04347 7.95541 6.06521L2.15553 7.58695C2.04444 7.60867 1.91111 7.54347 1.88889 7.43477C1.86664 7.32612 1.93334 7.19566 2.04444 7.17394L7.84435 5.65218H7.911C7.99988 5.65218 8.08876 5.71741 8.11097 5.80434ZM5.33322 5.8688L4.66656 6.04373V5.224L5.33322 5.04905V5.8688ZM7.84433 3.47828H7.91098C7.99986 3.47828 8.08874 3.54349 8.11095 3.63046C8.13315 3.73915 8.06654 3.86958 7.95539 3.89133L2.15551 5.41307C2.04442 5.45653 1.91109 5.36958 1.88886 5.26089C1.86662 5.15218 1.93332 5.02174 2.04442 5.00002L7.84433 3.47828ZM5.77766 3.57831V3.26089H6.98748L5.77766 3.57831ZM7.11097 2.82608H2.88882V2.39129H7.11097V2.82608ZM9.55539 1.95651H0.444445V1.52174H9.55539V1.95651Z" fill="white"/>
</svg>
