<svg viewBox="0 0 31 31" fill="none" xmlns="http://www.w3.org/2000/svg">
<path d="M0.187043 30.2527C0.211543 30.2111 0.825028 29.1962 1.55033 27.9984L2.86905 25.8206L3.6436 25.0092L4.41815 24.1976L3.76541 23.5062C3.40641 23.1258 3.07871 22.7471 3.03719 22.6646C2.91271 22.4174 2.93469 21.9209 3.08091 21.6779C3.15124 21.5608 4.40243 20.224 5.86133 18.7072L8.51387 15.9493L7.49496 14.8731C6.60666 13.935 6.4677 13.7617 6.4109 13.5209C6.30238 13.0611 6.4648 12.5017 6.78216 12.2417C7.14278 11.9463 7.75439 11.9172 8.12251 12.1766C8.22671 12.2495 10.7122 14.8051 13.6457 17.8536L18.9795 23.3966L23.1929 19.0109L27.4062 14.6248L26.317 13.49L25.2278 12.3549L24.4463 13.1665L23.6649 13.9782L24.1797 14.5166L24.6945 15.055L21.9845 17.876L19.2746 20.6974L17.6976 19.0569L16.1205 17.4162L18.8313 14.5946L21.542 11.773L22.1911 12.4465L22.8402 13.1202L23.6204 12.3081L24.4006 11.4959L22.5154 9.53278C21.4785 8.45312 20.6038 7.56966 20.5716 7.56966C20.5395 7.56966 20.1747 7.92122 19.7611 8.35085L19.009 9.13204L19.5388 9.68579L20.0687 10.2395L17.358 13.0606L14.6474 15.8817L13.0711 14.241L11.4948 12.6003L14.2051 9.77869L16.9153 6.9571L17.5357 7.60089C17.8769 7.95479 18.1826 8.24468 18.2149 8.24468C18.2899 8.24468 19.7159 6.75959 19.7159 6.68152C19.7159 6.6503 19.2802 6.1668 18.7475 5.60914C18.2149 5.05097 17.7508 4.51699 17.7162 4.42175C17.6278 4.17974 17.6378 3.69677 17.7364 3.45164C17.9365 2.95488 18.5403 2.66343 19.0861 2.80057C19.3066 2.85521 19.7001 3.24398 22.7934 6.45513C24.6967 8.43126 26.268 10.0332 26.2852 10.0155C26.3024 9.98947 26.3719 9.76308 26.4397 9.49713C26.6143 8.80962 26.6551 7.49784 26.5272 6.68647C26.2272 4.78346 25.4114 3.52294 23.8454 2.54216C23.2098 2.14428 23.0757 1.29752 23.5577 0.726072C23.7839 0.458043 24.0647 0.331055 24.4319 0.331055C25.1793 0.331055 26.714 1.56633 27.5185 2.8154C28.4619 4.28045 28.91 5.90814 28.9096 7.86736C28.9092 9.33865 28.6658 10.5453 28.1818 11.4753L27.985 11.8534L28.9818 12.8863C29.53 13.4543 30.0208 14.0018 30.0724 14.1031C30.2012 14.3555 30.1974 14.9087 30.0649 15.1765C29.9212 15.4671 19.806 26.0101 19.5246 26.1626C19.2472 26.3135 18.8142 26.3265 18.5077 26.1938C18.3396 26.1209 17.6922 25.4894 16.2529 23.9941L14.234 21.8965L11.5971 24.6322C10.1468 26.137 8.8806 27.4233 8.78336 27.491C8.54121 27.6601 8.21452 27.7122 7.91789 27.6289C7.71736 27.5743 7.51511 27.3999 6.86837 26.7384L6.06724 25.9177L5.3331 26.684L4.59896 27.4507L2.40904 28.891C1.20459 29.6828 0.201861 30.3311 0.180761 30.3311C0.159761 30.3311 0.162511 30.2972 0.187011 30.2556L0.187043 30.2527Z" fill="white"/>
</svg>