<svg width="20" height="18" viewBox="0 0 20 18" fill="none" xmlns="http://www.w3.org/2000/svg">
<path d="M9.98461 14.4045L9.45386 15.2171H10.1932V14.5106C10.1932 14.3642 10.2079 14.1373 10.2152 13.9908H10.2006C10.1347 14.1263 10.0615 14.2654 9.98461 14.4045Z" fill="white"/>
<path d="M10.7998 12.7313V9.46695H17.7119C17.712 9.46695 17.7121 9.46695 17.7123 9.46695C18.1545 9.46695 18.513 9.10846 18.513 8.66625V4.43128C19.3815 4.1067 20 3.26948 20 2.28773C20 1.02424 18.9758 0 17.7123 0C16.4488 0 15.4246 1.02424 15.4246 2.28773C15.4246 3.26948 16.043 4.1067 16.9116 4.43128V7.86554H10.7998V4.43128C11.6684 4.1067 12.2869 3.26948 12.2869 2.28773C12.2869 1.02424 11.2626 0 9.99914 0C8.73566 0 7.71142 1.02424 7.71142 2.28773C7.71142 3.2695 8.3299 4.1067 9.19844 4.43128V7.86554H3.08843V4.43128C3.95696 4.1067 4.57545 3.26948 4.57545 2.28773C4.57545 1.02424 3.55121 0 2.28773 0C1.02424 0 0 1.02424 0 2.28773C0 3.26948 0.618486 4.1067 1.48702 4.43128V12.7313C0.618486 13.0558 0 13.893 0 14.8748C0 16.1383 1.02424 17.1625 2.28773 17.1625C3.55121 17.1625 4.57545 16.1383 4.57545 14.8748C4.57545 13.893 3.95696 13.0558 3.08843 12.7313V9.46695H9.19844V12.7313C8.32988 13.0559 7.71142 13.8931 7.71142 14.8748C7.71142 16.1383 8.73566 17.1626 9.99914 17.1626C11.2626 17.1626 12.2869 16.1383 12.2869 14.8748C12.2869 13.8931 11.6684 13.0559 10.7998 12.7313ZM16.7675 3.26211L16.9689 2.98759C17.1226 3.14132 17.3166 3.27675 17.5985 3.27675C17.9023 3.27675 18.1329 3.06079 18.1329 2.70206C18.1329 2.34334 17.9279 2.13834 17.6204 2.13834C17.4484 2.13834 17.3459 2.18958 17.1885 2.29207L16.9835 2.15664L17.064 0.87915H18.4294V1.23423H17.4301L17.3678 1.92606C17.4813 1.86749 17.5911 1.83089 17.7376 1.83089C18.1878 1.83089 18.5575 2.0981 18.5575 2.68744C18.5575 3.2841 18.1219 3.62085 17.6497 3.62085C17.2251 3.62083 16.9579 3.44879 16.7675 3.26211ZM3.1443 15.9089V16.2676H1.40558V16.0223C2.1999 15.3195 2.60986 14.7961 2.60986 14.3532C2.60986 14.0603 2.45246 13.859 2.15231 13.859C1.94001 13.859 1.76432 13.9944 1.62156 14.1591L1.38364 13.9249C1.61424 13.676 1.85217 13.5222 2.20358 13.5222C2.69775 13.5222 3.01621 13.8444 3.01621 14.3312C3.01621 14.851 2.60256 15.389 2.03155 15.9344C2.17064 15.9198 2.33902 15.9088 2.47079 15.9088L3.1443 15.9089ZM1.55934 3.59688V3.24914H2.14868V1.37499H1.66549V1.10776C1.91805 1.06018 2.09741 0.997951 2.25117 0.902782H2.56962V3.24914H3.09673V3.59688H1.55934ZM9.05843 3.21682L9.26341 2.94595C9.42081 3.10701 9.62213 3.24244 9.90034 3.24244C10.2041 3.24244 10.4128 3.07406 10.4128 2.79585C10.4128 2.4957 10.2224 2.3017 9.61481 2.3017V1.99055C10.1456 1.99055 10.3213 1.78923 10.3213 1.51834C10.3213 1.28042 10.1639 1.13034 9.90766 1.12668C9.69899 1.13034 9.5233 1.23283 9.36956 1.38291L9.14992 1.11936C9.36222 0.929023 9.61114 0.793566 9.92228 0.793566C10.4054 0.793566 10.7459 1.04247 10.7459 1.48906C10.7459 1.80019 10.5665 2.01617 10.281 2.12232V2.14062C10.5921 2.21749 10.8374 2.45178 10.8374 2.81415C10.8374 3.30098 10.4311 3.58651 9.93692 3.58651C9.51234 3.58654 9.23781 3.41814 9.05843 3.21682ZM10.9326 15.5428H10.5885V16.2676H10.1932V15.5428H9.02917V15.261L10.1017 13.5735H10.5885V15.217H10.9326V15.5428Z" fill="white"/>
<path d="M18.3031 14.3532C18.3031 14.0274 18.0908 13.9139 17.6992 13.9139H17.2928V14.84H17.6992C18.0908 14.84 18.3031 14.679 18.3031 14.3532Z" fill="white"/>
<path d="M17.7123 12.5872C16.4488 12.5872 15.4246 13.6114 15.4246 14.8749C15.4246 16.1384 16.4488 17.1626 17.7123 17.1626C18.9758 17.1626 20 16.1384 20 14.8749C20 13.6114 18.9758 12.5872 17.7123 12.5872ZM18.3397 16.2676L17.7284 15.1805H17.2928V16.2676H16.8682V13.5735H17.7504C18.3068 13.5735 18.7241 13.7712 18.7241 14.3532C18.7241 14.7705 18.5007 15.0194 18.1603 15.1255L18.8192 16.2676H18.3397Z" fill="white"/>
</svg>
