<svg width="15" height="15" viewBox="0 0 15 15" fill="none" xmlns="http://www.w3.org/2000/svg">
<path d="M14.2585 13.047C14.2585 13.2495 14.2241 13.4383 14.1548 13.6137C14.086 13.7893 13.9875 13.9437 13.8599 14.0769C13.7324 14.2101 13.5834 14.3138 13.4132 14.388C13.2433 14.4623 13.0571 14.4998 12.8551 14.5H2.24075C2.03873 14.5 1.84733 14.4627 1.66665 14.388C1.48596 14.3133 1.32638 14.2098 1.1879 14.0769C1.0494 13.9439 0.940396 13.7898 0.860841 13.6137C0.781163 13.4381 0.741333 13.2493 0.741333 13.047L0.741333 5.07773C0.741333 4.67299 0.882173 4.32955 1.16387 4.0474C1.44569 3.76535 1.78866 3.62428 2.1928 3.62428H12.807C13.2112 3.62428 13.5542 3.76537 13.8362 4.0474C14.1176 4.32955 14.2586 4.67301 14.2586 5.07773V7.24966H10.6379C10.2336 7.24966 9.89064 7.38815 9.60892 7.665C9.32724 7.94222 9.1863 8.28307 9.1863 8.68732C9.19689 8.96431 9.25535 9.2092 9.36191 9.42207C9.44698 9.60309 9.58796 9.7681 9.78454 9.91732C9.98113 10.0665 10.2656 10.1413 10.6379 10.1413H14.2586V13.0479V13.047H14.2585ZM12.0894 2.88988H4.84806C5.42239 2.5918 5.96479 2.30422 6.47513 2.02727C6.92194 1.79284 7.36322 1.55853 7.79907 1.32457C8.23489 1.09038 8.57529 0.909347 8.81997 0.781229C9.19218 0.578859 9.52431 0.485637 9.8166 0.501789C10.1089 0.517697 10.3562 0.568377 10.5582 0.653462C10.7925 0.770747 10.9943 0.925027 11.1645 1.11653L12.0894 2.88988ZM9.92032 8.68734C9.92032 8.48486 9.98916 8.31467 10.1275 8.17632C10.2657 8.03793 10.4356 7.96864 10.6379 7.96864C10.8401 7.96864 11.0101 8.03793 11.1482 8.17632C11.2863 8.31467 11.3554 8.48486 11.3554 8.68734C11.3554 8.88983 11.2863 9.06285 11.1482 9.20665C11.01 9.35043 10.8401 9.42211 10.6379 9.42211C10.4356 9.42211 10.2656 9.35043 10.1275 9.20665C9.98915 9.06285 9.92032 8.88983 9.92032 8.68734Z" fill="white"/>
</svg>
