<svg width="20" height="26" viewBox="0 0 20 26" fill="none" xmlns="http://www.w3.org/2000/svg">
<path d="M18.8957 9.72109L18.857 9.66827L18.8496 9.6526L15.3645 4.36752L11.8793 9.6526L11.8719 9.66769L11.8333 9.72167C11.3522 10.3889 11.0616 11.1794 10.994 12.0052C10.9264 12.8311 11.0843 13.6599 11.4503 14.3995C11.8162 15.1391 12.3758 15.7605 13.0668 16.1947C13.7579 16.6288 14.5532 16.8587 15.3645 16.8587C16.1757 16.8587 16.9711 16.6288 17.6621 16.1947C18.3531 15.7605 18.9127 15.1391 19.2787 14.3995C19.6446 13.6599 19.8025 12.8311 19.7349 12.0052C19.6673 11.1794 19.3768 10.3889 18.8957 9.72167V9.72109Z" fill="white"/>
<path d="M15.3637 18.3863C14.2774 18.3862 13.2123 18.0787 12.2866 17.4979C11.361 16.9172 10.6108 16.0859 10.1194 15.0962C9.62804 14.1065 9.41459 12.9971 9.50276 11.8911C9.59092 10.7851 9.97726 9.72557 10.6189 8.83013L12.9098 5.35589L9.37803 0L2.01907 11.1593C1.18534 12.3197 0.625953 13.6616 0.384732 15.0798C0.143512 16.498 0.227009 17.954 0.628682 19.3338C1.03036 20.7135 1.7393 21.9795 2.69997 23.0326C3.66064 24.0857 4.84695 24.8972 6.16598 25.4037C7.485 25.9102 8.90091 26.0979 10.3028 25.952C11.7047 25.8061 13.0544 25.3306 14.2464 24.5628C15.4383 23.795 16.44 22.7557 17.1731 21.5264C17.9061 20.297 18.3506 18.911 18.4716 17.4769C17.54 18.0725 16.4628 18.3877 15.3637 18.3863Z" fill="white"/>
</svg>
