<svg width="1em" height="1em" viewBox="0 0 13 13" fill="none" xmlns="http://www.w3.org/2000/svg">
<path d="M0.416391 0L5.31495 4.94378C5.75061 4.60012 6.20996 4.3573 6.65002 4.23215C6.81647 4.18481 6.98264 4.15443 7.14424 4.14329L3.03871 0H0.416418H0.416391ZM0 2.09018V2.7064L3.92099 6.66354C3.98502 6.52633 4.0566 6.39284 4.13539 6.26368L0 2.09023V2.09018ZM0 3.43304V4.03013L3.63713 7.70082C3.64686 7.53449 3.67674 7.36315 3.72409 7.19146L0 3.43304ZM7.29426 4.6512C7.1435 4.64955 6.9739 4.67385 6.78811 4.72669C6.29266 4.86759 5.71571 5.21181 5.20645 5.72573C4.69722 6.23966 4.35613 6.82198 4.21648 7.32197C4.0769 7.82198 4.13844 8.20598 4.35223 8.42177C4.56602 8.63753 4.94654 8.69964 5.44196 8.55874C5.51796 8.5371 5.59606 8.51016 5.67542 8.47909C5.5543 9.44973 5.75262 10.7157 6.28209 12.256C6.47393 9.31259 7.37748 10.1353 8.57983 12.7747C7.88195 9.87045 9.96788 10.7866 12.7133 13C10.4616 10.3594 9.85646 8.52514 13 9.29786C9.91677 8.17202 9.43487 7.04679 12.0985 6.96178C10.3685 6.31919 8.97443 6.07745 7.93041 6.20999C7.9631 6.12614 7.99116 6.04366 8.01361 5.96338C8.15319 5.46339 8.09171 5.07934 7.87794 4.86358C7.7443 4.72873 7.54551 4.65389 7.29429 4.65114L7.29426 4.6512ZM6.86847 5.22657C7.05936 5.22888 7.22365 5.28656 7.34134 5.40533C7.53862 5.60443 7.56545 5.9358 7.44921 6.30435C6.57083 6.54389 6.0069 7.1136 5.76967 7.99126C5.40916 8.10425 5.08563 8.07574 4.89047 7.87881C4.51394 7.49875 4.75732 6.63696 5.43411 5.95395C5.8994 5.48437 6.4484 5.22148 6.86847 5.22657Z" fill="white"/>
</svg>
