<svg viewBox="0 0 35 34" fill="white" xmlns="http://www.w3.org/2000/svg">
<path d="M9.6851 12.8498C11.4262 13.842 12.5505 14.0807 13.0111 13.7254C13.4737 13.3685 13.5087 12.2858 12.9401 10.4565C11.667 10.9605 10.5458 11.7849 9.6851 12.8498ZM14.2054 10.0765C14.9249 12.3984 14.8559 13.9701 13.8181 14.7711C12.7836 15.5692 11.1749 15.2367 8.94052 13.9457C8.32834 15.0316 7.98252 16.2473 7.93146 17.4929C10.4597 17.5909 11.9707 18.1922 12.3775 19.4697C12.7496 20.6386 12.0109 21.9428 10.2824 23.4703C11.0052 24.1842 11.8583 24.7528 12.7955 25.145C13.7378 22.8954 14.803 21.7308 16.1152 21.7847C17.327 21.8342 18.2911 22.9479 19.1285 25.0469C20.0655 24.6198 20.9105 24.0145 21.6165 23.2649C19.9517 21.6807 19.285 20.3338 19.7677 19.159C20.2221 18.0539 21.565 17.5279 23.7643 17.4466C23.7085 16.2443 23.3775 15.0707 22.7969 14.0163C20.9607 15.3648 19.527 15.7802 18.4592 15.104C17.3349 14.3921 17.1094 12.72 17.5921 10.098C17.02 9.96986 16.4354 9.90541 15.8491 9.90579C15.2966 9.90547 14.7456 9.96268 14.205 10.0765H14.2054ZM18.8624 10.4985C18.5107 12.514 18.6692 13.6736 19.1658 13.9882C19.6436 14.2907 20.6219 13.9849 22.0649 12.9148C21.2216 11.8486 20.1188 11.0166 18.862 10.4985H18.8624ZM23.7184 18.7707C22.088 18.8427 21.1879 19.1785 20.9894 19.6609C20.7804 20.1694 21.2199 21.0444 22.4429 22.2274C23.1354 21.1921 23.5725 20.0074 23.7184 18.7704V18.7707ZM17.883 25.4914C17.2401 23.8979 16.5966 23.1262 16.061 23.1041C15.4882 23.081 14.7825 23.8563 14.0575 25.5515C14.633 25.6845 15.2329 25.7549 15.8487 25.7549C16.552 25.7549 17.2339 25.6634 17.8827 25.4914H17.883ZM9.42194 22.4675C10.7559 21.2844 11.2842 20.3913 11.1184 19.8702C10.9401 19.3096 9.9225 18.9048 7.98495 18.8169C8.14859 20.1354 8.6429 21.3912 9.42194 22.4675ZM15.8491 27.0756C10.743 27.0756 6.60377 22.9364 6.60377 17.8303C6.60377 12.7243 10.743 8.58504 15.8491 8.58504C16.9337 8.58504 17.9936 8.77225 18.9934 9.13381C21.9199 10.1921 24.1378 12.6734 24.8503 15.7115C25.0118 16.4009 25.0943 17.1105 25.0943 17.8303C25.0943 22.9364 20.9551 27.0756 15.8491 27.0756ZM15.8491 20.802C15.0609 20.802 14.3051 20.4889 13.7478 19.9316C13.1904 19.3743 12.8774 18.6185 12.8774 17.8303C12.8774 17.0422 13.1904 16.2863 13.7478 15.729C14.3051 15.1717 15.0609 14.8586 15.8491 14.8586C16.6372 14.8586 17.3931 15.1717 17.9504 15.729C18.5077 16.2863 18.8208 17.0422 18.8208 17.8303C18.8208 18.6185 18.5077 19.3743 17.9504 19.9316C17.3931 20.4889 16.6372 20.802 15.8491 20.802ZM15.8491 19.4813C16.0659 19.4813 16.2806 19.4386 16.4809 19.3557C16.6813 19.2727 16.8633 19.1511 17.0166 18.9978C17.1699 18.8445 17.2916 18.6625 17.3746 18.4622C17.4575 18.2618 17.5003 18.0471 17.5003 17.8303C17.5003 17.6135 17.4575 17.3988 17.3746 17.1985C17.2916 16.9982 17.1699 16.8161 17.0166 16.6628C16.8633 16.5095 16.6813 16.3879 16.4809 16.305C16.2806 16.222 16.0659 16.1793 15.8491 16.1794C15.4112 16.1794 14.9914 16.3534 14.6818 16.663C14.3723 16.9726 14.1984 17.3925 14.1984 17.8303C14.1984 18.2681 14.3723 18.688 14.6818 18.9976C14.9914 19.3072 15.4112 19.4812 15.8491 19.4813ZM20.3102 2.62381C20.3939 2.64766 20.4719 2.68779 20.54 2.74189C20.6081 2.796 20.6648 2.86301 20.7069 2.93909C20.749 3.01516 20.7756 3.0988 20.7853 3.18521C20.795 3.27162 20.7876 3.35909 20.7634 3.4426C20.7392 3.52612 20.6987 3.60403 20.6444 3.67188C20.59 3.73972 20.5227 3.79616 20.4465 3.83795C20.3702 3.87974 20.2865 3.90606 20.2 3.91541C20.1136 3.92475 20.0262 3.91693 19.9427 3.89239C18.5837 3.49848 17.2197 3.30202 15.8491 3.30202C7.95821 3.30202 1.32075 9.7265 1.32076 17.8303C1.32076 25.9282 7.96944 32.3586 15.8491 32.3586C23.7482 32.3586 30.3774 25.9629 30.3774 17.8303C30.3774 16.9223 30.3011 16.0539 30.1489 15.2248C30.1187 15.0532 30.1575 14.8765 30.257 14.7334C30.3565 14.5903 30.5085 14.4924 30.6799 14.4608C30.8513 14.4293 31.0282 14.4669 31.1721 14.5653C31.3159 14.6637 31.415 14.8149 31.4478 14.9861C31.6149 15.8954 31.6981 16.8437 31.6981 17.8303C31.6981 26.7032 24.4673 33.6794 15.8491 33.6794C7.24962 33.6794 0 26.6678 0 17.8303C0 8.98721 7.23807 1.98126 15.8491 1.98126C17.3448 1.98126 18.8326 2.19588 20.3102 2.62381ZM5.88 13.0307C5.8086 13.189 5.67772 13.3128 5.5157 13.3753C5.35368 13.4378 5.17356 13.434 5.01435 13.3646C4.85514 13.2953 4.72964 13.166 4.66504 13.0048C4.60044 12.8436 4.60194 12.6635 4.6692 12.5034C5.9916 9.46697 8.49807 7.35046 12.1404 6.16971C12.2233 6.14138 12.311 6.12983 12.3984 6.13574C12.4858 6.14165 12.5712 6.16489 12.6496 6.20412C12.7279 6.24335 12.7977 6.29777 12.8548 6.36423C12.9119 6.43068 12.9552 6.50783 12.9822 6.59119C13.0092 6.67455 13.0193 6.76244 13.012 6.84975C13.0047 6.93706 12.98 7.02205 12.9395 7.09975C12.8991 7.17745 12.8435 7.24632 12.7762 7.30235C12.7088 7.35837 12.631 7.40043 12.5472 7.42607C9.25024 8.49522 7.04359 10.3581 5.87967 13.0307H5.88ZM25.6151 23.1797C25.685 23.0191 25.8159 22.893 25.9789 22.8289C26.1419 22.7648 26.3237 22.7682 26.4843 22.8381C26.6448 22.9081 26.771 23.039 26.8351 23.202C26.8991 23.365 26.8958 23.5468 26.8259 23.7073C25.5034 26.7434 22.997 28.8599 19.3547 30.041C19.1881 30.0951 19.0068 30.0807 18.8508 30.0011C18.6948 29.9215 18.5768 29.7832 18.5228 29.6166C18.4687 29.45 18.4831 29.2687 18.5627 29.1127C18.6423 28.9567 18.7806 28.8387 18.9472 28.7847C22.2445 27.7155 24.4508 25.8526 25.6151 23.1797Z" fill="white"/>
<path d="M27.6893 7.47646C27.5913 7.40847 27.5136 7.3152 27.4643 7.20656C27.4151 7.09793 27.3962 6.97799 27.4096 6.85947C27.423 6.74095 27.4683 6.62829 27.5407 6.53345C27.613 6.4386 27.7097 6.36512 27.8204 6.3208L28.1083 3.78462L28.3262 6.32675C28.4363 6.37388 28.5314 6.45003 28.6015 6.54707C28.6716 6.64411 28.7141 6.75838 28.7242 6.87766C28.7344 6.99694 28.712 7.11674 28.6593 7.22425C28.6067 7.33175 28.5258 7.42293 28.4253 7.48802L28.5881 9.38858C28.5952 9.4723 28.5837 9.55656 28.5544 9.6353C28.5251 9.71404 28.4787 9.78531 28.4186 9.84397C28.3584 9.90264 28.286 9.94724 28.2066 9.97458C28.1271 10.0019 28.0426 10.0113 27.9591 10.0021C27.8134 9.9855 27.6802 9.91173 27.5889 9.797C27.4975 9.68226 27.4555 9.53595 27.472 9.39023L27.6893 7.47646ZM32.4275 10.2434C33.0338 9.51327 33.438 8.63685 33.5997 7.70165L32.4863 7.6967C32.3996 7.69633 32.3138 7.67888 32.2338 7.64536C32.1538 7.61183 32.0812 7.56288 32.0202 7.50129C31.9591 7.43971 31.9108 7.3667 31.8779 7.28644C31.8451 7.20618 31.8283 7.12024 31.8287 7.03351C31.8291 6.94679 31.8465 6.86099 31.8801 6.78101C31.9136 6.70103 31.9625 6.62844 32.0241 6.56738C32.0857 6.50632 32.1587 6.45798 32.239 6.42514C32.3192 6.39229 32.4052 6.37557 32.4919 6.37594L33.6657 6.38123C33.6007 5.44959 33.296 4.55058 32.7811 3.77141L31.9897 4.32547C31.8462 4.42592 31.6687 4.46525 31.4962 4.43481C31.3237 4.40438 31.1704 4.30667 31.0699 4.16318C30.9695 4.0197 30.9302 3.84219 30.9606 3.6697C30.991 3.49722 31.0887 3.34389 31.2322 3.24344L31.9217 2.76071C31.3895 2.26991 30.7648 1.89016 30.0842 1.64368C29.6754 1.4959 29.2504 1.39789 28.8182 1.35179V2.39849C28.8182 2.48523 28.8012 2.57112 28.768 2.65125C28.7348 2.73139 28.6862 2.80421 28.6249 2.86555C28.5635 2.92689 28.4907 2.97555 28.4106 3.00874C28.3305 3.04194 28.2446 3.05903 28.1578 3.05903C28.0711 3.05903 27.9852 3.04194 27.9051 3.00874C27.825 2.97555 27.7522 2.92689 27.6908 2.86555C27.6295 2.80421 27.5809 2.73139 27.5477 2.65125C27.5145 2.57112 27.4974 2.48523 27.4975 2.39849V1.36962C26.4289 1.5138 25.4274 1.97303 24.6209 2.68873L25.4133 3.24344C25.4844 3.29318 25.5449 3.35642 25.5915 3.42956C25.6381 3.5027 25.6699 3.5843 25.6849 3.6697C25.7 3.75511 25.6981 3.84265 25.6794 3.92732C25.6606 4.01199 25.6253 4.09214 25.5756 4.16318C25.5259 4.23423 25.4626 4.29479 25.3895 4.34139C25.3164 4.388 25.2347 4.41974 25.1493 4.43481C25.0639 4.44988 24.9764 4.44798 24.8917 4.42922C24.8071 4.41046 24.7269 4.37521 24.6559 4.32547L23.7399 3.68391C23.1906 4.4812 22.865 5.41113 22.7969 6.37693L23.8598 6.38156C23.9465 6.38192 24.0323 6.39937 24.1123 6.4329C24.1923 6.46643 24.2649 6.51538 24.3259 6.57696C24.387 6.63854 24.4353 6.71155 24.4682 6.79181C24.501 6.87207 24.5177 6.95802 24.5174 7.04474C24.517 7.13146 24.4995 7.21726 24.466 7.29724C24.4325 7.37722 24.3835 7.44981 24.3219 7.51087C24.2604 7.57194 24.1874 7.62027 24.1071 7.65312C24.0268 7.68596 23.9409 7.70268 23.8542 7.70231L22.8619 7.69802C23.0179 8.6037 23.4013 9.45492 23.9763 10.1718L24.9861 9.46453C25.0571 9.41479 25.1372 9.37954 25.2219 9.36078C25.3066 9.34202 25.3941 9.34012 25.4795 9.35519C25.5649 9.37026 25.6465 9.402 25.7197 9.44861C25.7928 9.49521 25.8561 9.55577 25.9058 9.62681C25.9555 9.69786 25.9908 9.77801 26.0095 9.86268C26.0283 9.94735 26.0302 10.0349 26.0151 10.1203C26.0001 10.2057 25.9683 10.2873 25.9217 10.3604C25.8751 10.4336 25.8146 10.4968 25.7435 10.5466L24.9388 11.1102C25.8853 11.83 27.0421 12.2189 28.2311 12.217C29.4363 12.217 30.5501 11.8257 31.4525 11.163L30.5719 10.5466C30.5008 10.4968 30.4403 10.4336 30.3936 10.3604C30.347 10.2873 30.3153 10.2057 30.3002 10.1203C30.2852 10.0349 30.2871 9.94735 30.3058 9.86268C30.3246 9.77801 30.3598 9.69786 30.4096 9.62681C30.4593 9.55577 30.5225 9.49521 30.5957 9.44861C30.6688 9.402 30.7504 9.37026 30.8358 9.35519C30.9212 9.34012 31.0088 9.34202 31.0934 9.36078C31.1781 9.37954 31.2583 9.41479 31.3293 9.46453L32.3473 10.1777C32.3763 10.1975 32.4031 10.2197 32.4275 10.2438V10.2434ZM28.2311 13.5377C24.4927 13.5377 21.4623 10.5073 21.4623 6.76887C21.4623 3.03047 24.4927 0 28.2311 0C29.0252 0 29.8012 0.137028 30.5332 0.401839C31.5916 0.785531 32.5377 1.42667 33.2864 2.26742C34.035 3.10816 34.5625 4.12206 34.8214 5.21764C34.9396 5.7225 35 6.24189 35 6.76887C35 10.5073 31.9695 13.5377 28.2311 13.5377Z" fill="white"/>
</svg>
